G04 Generated by Ultiboard 14.0 *
%FSLAX25Y25*%
%MOIN*%

%ADD10C,0.00001*%
%ADD11C,0.15000*%
%ADD12C,0.03500*%
%ADD13C,0.04000*%
%ADD14C,0.05000*%
%ADD15C,0.04333*%
%ADD16C,0.10000*%
%ADD17C,0.03937*%
%ADD18C,0.03000*%
%ADD19C,0.02362*%


G04 ColorRGB 000000 for the following layer *
%LNDrill-Copper Top-Copper Bottom*%
%LPD*%
G54D11*
X26000Y448000D03*
X660300Y447900D03*
G54D12*
X90000Y178000D03*
X100000Y178000D03*
X62000Y178000D03*
X62000Y138000D03*
X62000Y214000D03*
X110000Y236000D03*
X70000Y236000D03*
X110000Y262000D03*
X70000Y262000D03*
X140000Y220000D03*
X170000Y220000D03*
X140000Y230000D03*
X170000Y230000D03*
X140000Y240000D03*
X170000Y240000D03*
X140000Y250000D03*
X170000Y250000D03*
X140000Y260000D03*
X170000Y260000D03*
X140000Y270000D03*
X170000Y270000D03*
X140000Y280000D03*
X170000Y280000D03*
X140000Y290000D03*
X170000Y290000D03*
X160000Y314000D03*
X150000Y314000D03*
X192000Y290000D03*
X192000Y250000D03*
X202000Y176000D03*
X212000Y176000D03*
X170000Y186000D03*
X170000Y146000D03*
X216000Y276000D03*
X216000Y316000D03*
X242000Y267000D03*
X242000Y292000D03*
X60000Y298000D03*
X626000Y428000D03*
X626000Y468000D03*
X468000Y428000D03*
X468000Y468000D03*
X344000Y348000D03*
X344000Y388000D03*
X372000Y422000D03*
X442000Y296000D03*
X442000Y256000D03*
X468000Y216000D03*
X498000Y216000D03*
X468000Y226000D03*
X498000Y226000D03*
X468000Y236000D03*
X498000Y236000D03*
X468000Y246000D03*
X498000Y246000D03*
X468000Y256000D03*
X498000Y256000D03*
X468000Y266000D03*
X498000Y266000D03*
X468000Y276000D03*
X498000Y276000D03*
X468000Y286000D03*
X498000Y286000D03*
X488000Y188000D03*
X478000Y188000D03*
X196000Y50000D03*
X535000Y323000D03*
X566000Y298980D03*
X526000Y298980D03*
X565714Y256323D03*
X525714Y256323D03*
X565714Y234994D03*
X525714Y234994D03*
X565714Y213666D03*
X525714Y213666D03*
X566000Y171009D03*
X526000Y171009D03*
X589000Y323000D03*
X641000Y323000D03*
X264000Y410000D03*
X274000Y410000D03*
X284000Y410000D03*
X294000Y410000D03*
X264000Y440000D03*
X274000Y440000D03*
X284000Y440000D03*
X294000Y440000D03*
X641000Y355000D03*
X483000Y355000D03*
X438000Y124000D03*
X540000Y122000D03*
X636000Y122000D03*
X602000Y202000D03*
X632000Y202000D03*
X602000Y212000D03*
X632000Y212000D03*
X602000Y222000D03*
X632000Y222000D03*
X602000Y232000D03*
X632000Y232000D03*
X602000Y242000D03*
X632000Y242000D03*
X602000Y252000D03*
X632000Y252000D03*
X602000Y262000D03*
X632000Y262000D03*
X246000Y82000D03*
X256000Y82000D03*
X535000Y355000D03*
X520667Y392000D03*
X530667Y392000D03*
X468000Y392000D03*
X478000Y392000D03*
X573333Y392000D03*
X583333Y392000D03*
X626000Y392000D03*
X636000Y392000D03*
X589000Y355000D03*
X304000Y334000D03*
X483000Y323000D03*
X124000Y142000D03*
X238000Y140000D03*
X246000Y38000D03*
X328000Y324000D03*
X328000Y284000D03*
X384000Y232000D03*
X374000Y232000D03*
X364000Y258000D03*
X394000Y258000D03*
X364000Y268000D03*
X394000Y268000D03*
X364000Y278000D03*
X394000Y278000D03*
X364000Y288000D03*
X394000Y288000D03*
X364000Y298000D03*
X394000Y298000D03*
X364000Y308000D03*
X394000Y308000D03*
X364000Y318000D03*
X394000Y318000D03*
X138000Y404000D03*
X148000Y404000D03*
X566000Y277651D03*
X526000Y277651D03*
X520000Y428000D03*
X520000Y468000D03*
X574000Y428000D03*
X574000Y468000D03*
X398000Y388724D03*
X398000Y434000D03*
X212000Y360000D03*
X342000Y123000D03*
X366000Y123000D03*
X565714Y192337D03*
X525714Y192337D03*
G54D13*
X39000Y106000D03*
X39000Y116000D03*
X39000Y96000D03*
X62000Y204000D03*
X219000Y236000D03*
X219000Y226000D03*
X219000Y216000D03*
X60000Y308000D03*
X373000Y347000D03*
X368000Y352000D03*
X378000Y352000D03*
X372000Y412000D03*
X196000Y40000D03*
X163000Y106000D03*
X163000Y116000D03*
X163000Y96000D03*
X525000Y323000D03*
X579000Y323000D03*
X631000Y323000D03*
X631000Y355000D03*
X473000Y355000D03*
X438000Y114000D03*
X540000Y112000D03*
X636000Y112000D03*
X525000Y355000D03*
X579000Y355000D03*
X304000Y324000D03*
X473000Y323000D03*
X124000Y132000D03*
X238000Y130000D03*
X246000Y28000D03*
X212000Y370000D03*
X342000Y113000D03*
X366000Y113000D03*
G54D14*
X31800Y208000D03*
X31800Y180900D03*
X33800Y312000D03*
X33800Y284900D03*
X329800Y436000D03*
X329800Y408900D03*
G54D15*
X389000Y176000D03*
X294000Y176000D03*
G54D16*
X172000Y464000D03*
X112000Y464000D03*
G54D17*
X122000Y439000D03*
X132000Y439000D03*
X142000Y439000D03*
X152000Y439000D03*
X162000Y439000D03*
G54D18*
X96000Y120000D03*
X214000Y116000D03*
X214000Y96000D03*
X96000Y100000D03*
X274000Y217000D03*
X274000Y237000D03*
G54D19*
X110000Y54000D03*
X60000Y50000D03*
X86000Y46000D03*
X101000Y28000D03*
X171900Y56700D03*
X448000Y320000D03*
X235000Y440000D03*
X47000Y32000D03*
X275000Y252000D03*

M02*
