G04 Generated by Ultiboard 14.0 *
%FSLAX24Y24*%
%MOIN*%

%ADD10C,0.0001*%
%ADD11C,0.1500*%
%ADD12C,0.0350*%
%ADD13C,0.0400*%
%ADD14C,0.0500*%
%ADD15C,0.1000*%
%ADD16C,0.0394*%
%ADD17C,0.0433*%
%ADD18C,0.0520*%
%ADD19C,0.0236*%
%ADD20C,0.0300*%


G04 ColorRGB 000000 for the following layer *
%LNDrill-Copper Top-Copper Bottom*%
%LPD*%
G54D11*
X2600Y44800D03*
X66030Y44790D03*
G54D12*
X9000Y17800D03*
X10000Y17800D03*
X6200Y17800D03*
X6200Y13800D03*
X6200Y21400D03*
X11000Y23600D03*
X7000Y23600D03*
X11000Y26200D03*
X7000Y26200D03*
X14000Y22000D03*
X17000Y22000D03*
X14000Y23000D03*
X17000Y23000D03*
X14000Y24000D03*
X17000Y24000D03*
X14000Y25000D03*
X17000Y25000D03*
X14000Y26000D03*
X17000Y26000D03*
X14000Y27000D03*
X17000Y27000D03*
X14000Y28000D03*
X17000Y28000D03*
X14000Y29000D03*
X17000Y29000D03*
X16000Y31400D03*
X15000Y31400D03*
X19200Y29000D03*
X19200Y25000D03*
X20200Y17600D03*
X21200Y17600D03*
X17000Y18600D03*
X17000Y14600D03*
X21600Y27600D03*
X21600Y31600D03*
X24200Y26700D03*
X24200Y29200D03*
X6000Y29800D03*
X62600Y42800D03*
X62600Y46800D03*
X46800Y42800D03*
X46800Y46800D03*
X34400Y34800D03*
X34400Y38800D03*
X37200Y42200D03*
X44200Y29600D03*
X44200Y25600D03*
X46800Y21600D03*
X49800Y21600D03*
X46800Y22600D03*
X49800Y22600D03*
X46800Y23600D03*
X49800Y23600D03*
X46800Y24600D03*
X49800Y24600D03*
X46800Y25600D03*
X49800Y25600D03*
X46800Y26600D03*
X49800Y26600D03*
X46800Y27600D03*
X49800Y27600D03*
X46800Y28600D03*
X49800Y28600D03*
X48800Y18800D03*
X47800Y18800D03*
X19600Y5000D03*
X53500Y32300D03*
X56600Y29898D03*
X52600Y29898D03*
X56571Y25632D03*
X52571Y25632D03*
X56571Y23499D03*
X52571Y23499D03*
X56571Y21367D03*
X52571Y21367D03*
X56600Y17101D03*
X52600Y17101D03*
X58900Y32300D03*
X64100Y32300D03*
X26400Y41000D03*
X27400Y41000D03*
X28400Y41000D03*
X29400Y41000D03*
X26400Y44000D03*
X27400Y44000D03*
X28400Y44000D03*
X29400Y44000D03*
X64100Y35500D03*
X48300Y35500D03*
X43800Y12400D03*
X54000Y12200D03*
X60200Y20200D03*
X63200Y20200D03*
X60200Y21200D03*
X63200Y21200D03*
X60200Y22200D03*
X63200Y22200D03*
X60200Y23200D03*
X63200Y23200D03*
X60200Y24200D03*
X63200Y24200D03*
X60200Y25200D03*
X63200Y25200D03*
X60200Y26200D03*
X63200Y26200D03*
X53500Y35500D03*
X52067Y39200D03*
X53067Y39200D03*
X46800Y39200D03*
X47800Y39200D03*
X57333Y39200D03*
X58333Y39200D03*
X62600Y39200D03*
X63600Y39200D03*
X58900Y35500D03*
X30400Y33400D03*
X48300Y32300D03*
X12400Y14200D03*
X23800Y14000D03*
X24600Y3800D03*
X32800Y32400D03*
X32800Y28400D03*
X38400Y23200D03*
X37400Y23200D03*
X36400Y25800D03*
X39400Y25800D03*
X36400Y26800D03*
X39400Y26800D03*
X36400Y27800D03*
X39400Y27800D03*
X36400Y28800D03*
X39400Y28800D03*
X36400Y29800D03*
X39400Y29800D03*
X36400Y30800D03*
X39400Y30800D03*
X36400Y31800D03*
X39400Y31800D03*
X14800Y40400D03*
X13800Y40400D03*
X56600Y27765D03*
X52600Y27765D03*
X52000Y42800D03*
X52000Y46800D03*
X57400Y42800D03*
X57400Y46800D03*
X39800Y38872D03*
X39800Y43400D03*
X21200Y36000D03*
X56571Y19234D03*
X52571Y19234D03*
G54D13*
X3900Y10600D03*
X3900Y11600D03*
X3900Y9600D03*
X6200Y20400D03*
X21900Y23600D03*
X21900Y22600D03*
X21900Y21600D03*
X6000Y30800D03*
X37300Y34700D03*
X36800Y35200D03*
X37800Y35200D03*
X37200Y41200D03*
X19600Y4000D03*
X16300Y10600D03*
X16300Y11600D03*
X16300Y9600D03*
X52500Y32300D03*
X57900Y32300D03*
X63100Y32300D03*
X63100Y35500D03*
X47300Y35500D03*
X43800Y11400D03*
X54000Y11200D03*
X52500Y35500D03*
X57900Y35500D03*
X30400Y32400D03*
X47300Y32300D03*
X12400Y13200D03*
X23800Y13000D03*
X24600Y2800D03*
X21200Y37000D03*
G54D14*
X3180Y20800D03*
X3180Y18090D03*
X3380Y31200D03*
X3380Y28490D03*
X32980Y43600D03*
X32980Y40890D03*
G54D15*
X17200Y46400D03*
X11200Y46400D03*
G54D16*
X12200Y43900D03*
X13200Y43900D03*
X14200Y43900D03*
X15200Y43900D03*
X16200Y43900D03*
G54D17*
X38900Y17600D03*
X29400Y17600D03*
G54D18*
X35900Y11200D03*
X34900Y11200D03*
G54D19*
X14800Y40300D03*
X11000Y5400D03*
X6000Y5000D03*
X8600Y4600D03*
X10100Y2800D03*
X17190Y5670D03*
X44800Y32000D03*
X23500Y43900D03*
X4700Y3200D03*
X27500Y25200D03*
G54D20*
X9600Y12000D03*
X21400Y11600D03*
X21400Y9600D03*
X9600Y10000D03*
X27400Y21700D03*
X27400Y23700D03*

M02*
