G04 Generated by Ultiboard 14.0 *
%FSLAX24Y24*%
%MOIN*%

%ADD10C,0.0001*%
%ADD11C,0.0001*%
%ADD12C,0.0100*%
%ADD13C,0.0150*%
%ADD14C,0.0200*%
%ADD15C,0.0778*%
%ADD16C,0.0300*%
%ADD17C,0.0585*%
%ADD18C,0.1000*%
%ADD19C,0.0050*%
%ADD20C,0.0850*%
%ADD21C,0.0800*%
%ADD22C,0.0900*%
%ADD23C,0.1000*%
%ADD24R,0.0508X0.0508*%
%ADD25C,0.0392*%
%ADD26C,0.0600*%
%ADD27R,0.0517X0.0517*%
%ADD28C,0.0333*%
%ADD29C,0.0750*%
%ADD30C,0.2000*%
%ADD31R,0.0800X0.0800*%
%ADD32C,0.0833*%
%ADD33C,0.0720*%
%ADD34C,0.0404*%


G04 ColorRGB 0000FF for the following layer *
%LNCopper Bottom*%
%LPD*%
G54D10*
G36*
X101Y101D02*
X101Y101D01*
X28399Y101D01*
X28399Y9200D01*
X26500Y9200D01*
X26500Y1900D01*
X1800Y1900D01*
X1800Y42000D01*
X101Y42000D01*
X101Y101D01*
D02*
G37*
G36*
X16740Y47399D02*
X16740Y47399D01*
X11660Y47399D01*
G74*
D01*
G02X12282Y46601I459J999*
G01*
X12282Y46601D01*
X11658Y46601D01*
G75*
D01*
G02X11658Y46200I-458J-200*
G01*
X11658Y46200D01*
X12282Y46200D01*
G74*
D01*
G02X11401Y45318I1082J200*
G01*
X11401Y45318D01*
X11401Y45942D01*
G75*
D01*
G02X11000Y45942I-200J458*
G01*
X11000Y45942D01*
X11000Y45318D01*
G74*
D01*
G02X10118Y46200I200J1082*
G01*
X10118Y46200D01*
X10742Y46200D01*
G75*
D01*
G02X10742Y46601I457J201*
G01*
X10742Y46601D01*
X10118Y46601D01*
G74*
D01*
G02X10740Y47399I1081J201*
G01*
X10740Y47399D01*
X4970Y47399D01*
X4970Y45200D01*
X64100Y45200D01*
X64000Y47399D01*
X17660Y47399D01*
G74*
D01*
G02X18282Y46601I459J999*
G01*
X18282Y46601D01*
X17658Y46601D01*
G75*
D01*
G02X17658Y46200I-458J-200*
G01*
X17658Y46200D01*
X18282Y46200D01*
G74*
D01*
G02X17401Y45318I1082J200*
G01*
X17401Y45318D01*
X17401Y45942D01*
G75*
D01*
G02X17000Y45942I-200J458*
G01*
X17000Y45942D01*
X17000Y45318D01*
G74*
D01*
G02X16118Y46200I200J1082*
G01*
X16118Y46200D01*
X16742Y46200D01*
G75*
D01*
G02X16742Y46601I457J201*
G01*
X16742Y46601D01*
X16118Y46601D01*
G74*
D01*
G02X16740Y47399I1081J201*
G01*
D02*
G37*
%LPC*%
G36*
X46344Y47005D02*
X46344Y47005D01*
X46549Y46800D01*
X46344Y46595D01*
G75*
D01*
G02X46344Y47005I455J205*
G01*
D02*
G37*
G36*
X46595Y47256D02*
G75*
D01*
G02X47005Y47256I205J-455*
G01*
X47005Y47256D01*
X46800Y47051D01*
X46595Y47256D01*
D02*
G37*
G36*
X47256Y47005D02*
G75*
D01*
G02X47256Y46595I-455J-205*
G01*
X47256Y46595D01*
X47051Y46800D01*
X47256Y47005D01*
D02*
G37*
G36*
X47005Y46344D02*
G75*
D01*
G02X46595Y46344I-205J455*
G01*
X46595Y46344D01*
X46800Y46549D01*
X47005Y46344D01*
D02*
G37*
G36*
X46625Y46800D02*
G75*
D01*
G02X46625Y46800I175J0*
G01*
D02*
G37*
G36*
X51544Y47005D02*
X51544Y47005D01*
X51749Y46800D01*
X51544Y46595D01*
G75*
D01*
G02X51544Y47005I455J205*
G01*
D02*
G37*
G36*
X51795Y47256D02*
G75*
D01*
G02X52205Y47256I205J-455*
G01*
X52205Y47256D01*
X52000Y47051D01*
X51795Y47256D01*
D02*
G37*
G36*
X52456Y47005D02*
G75*
D01*
G02X52456Y46595I-455J-205*
G01*
X52456Y46595D01*
X52251Y46800D01*
X52456Y47005D01*
D02*
G37*
G36*
X52205Y46344D02*
G75*
D01*
G02X51795Y46344I-205J455*
G01*
X51795Y46344D01*
X52000Y46549D01*
X52205Y46344D01*
D02*
G37*
G36*
X51825Y46800D02*
G75*
D01*
G02X51825Y46800I175J0*
G01*
D02*
G37*
G36*
X56944Y47005D02*
X56944Y47005D01*
X57149Y46800D01*
X56944Y46595D01*
G75*
D01*
G02X56944Y47005I455J205*
G01*
D02*
G37*
G36*
X57195Y47256D02*
G75*
D01*
G02X57605Y47256I205J-455*
G01*
X57605Y47256D01*
X57400Y47051D01*
X57195Y47256D01*
D02*
G37*
G36*
X57856Y47005D02*
G75*
D01*
G02X57856Y46595I-455J-205*
G01*
X57856Y46595D01*
X57651Y46800D01*
X57856Y47005D01*
D02*
G37*
G36*
X57605Y46344D02*
G75*
D01*
G02X57195Y46344I-205J455*
G01*
X57195Y46344D01*
X57400Y46549D01*
X57605Y46344D01*
D02*
G37*
G36*
X57225Y46800D02*
G75*
D01*
G02X57225Y46800I175J0*
G01*
D02*
G37*
G36*
X62144Y47005D02*
X62144Y47005D01*
X62349Y46800D01*
X62144Y46595D01*
G75*
D01*
G02X62144Y47005I455J205*
G01*
D02*
G37*
G36*
X62395Y47256D02*
G75*
D01*
G02X62805Y47256I205J-455*
G01*
X62805Y47256D01*
X62600Y47051D01*
X62395Y47256D01*
D02*
G37*
G36*
X63056Y47005D02*
G75*
D01*
G02X63056Y46595I-455J-205*
G01*
X63056Y46595D01*
X62851Y46800D01*
X63056Y47005D01*
D02*
G37*
G36*
X62805Y46344D02*
G75*
D01*
G02X62395Y46344I-205J455*
G01*
X62395Y46344D01*
X62600Y46549D01*
X62805Y46344D01*
D02*
G37*
G36*
X62425Y46800D02*
G75*
D01*
G02X62425Y46800I175J0*
G01*
D02*
G37*
%LPD*%
G36*
X58810Y12911D02*
G75*
D01*
G03X58709Y12810I0J-101*
G01*
X58709Y12810D01*
X58709Y10101D01*
X56600Y10101D01*
X56600Y15780D01*
X68600Y15790D01*
X68649Y12626D01*
X68649Y10101D01*
X61101Y10101D01*
X61101Y12810D01*
G74*
D01*
G03X61000Y12911I101J0*
G01*
X61000Y12911D01*
X58810Y12911D01*
D02*
G37*
G36*
X29549Y12810D02*
G75*
D01*
G02X29750Y13011I201J0*
G01*
X29750Y13011D01*
X31940Y13011D01*
G74*
D01*
G02X32141Y12810I0J201*
G01*
X32141Y12810D01*
X32141Y10201D01*
X35000Y10201D01*
X35000Y10960D01*
G75*
D01*
G02X35000Y11440I-100J240*
G01*
X35000Y11440D01*
X35000Y14900D01*
X25500Y14900D01*
X25500Y10000D01*
X28299Y10000D01*
G75*
D01*
G02X28500Y10201I201J0*
G01*
X28500Y10201D01*
X29549Y10201D01*
X29549Y12810D01*
D02*
G37*
%LPC*%
G36*
X34376Y11399D02*
G74*
D01*
G02X34701Y11724I524J199*
G01*
X34701Y11724D01*
X34701Y11399D01*
X34376Y11399D01*
D02*
G37*
G36*
X34701Y10676D02*
G74*
D01*
G02X34376Y11001I199J524*
G01*
X34376Y11001D01*
X34701Y11001D01*
X34701Y10676D01*
D02*
G37*
%LPD*%
G36*
X49120Y12911D02*
G75*
D01*
G03X49019Y12810I0J-101*
G01*
X49019Y12810D01*
X49019Y10101D01*
X47400Y10101D01*
X47400Y14800D01*
X54700Y14800D01*
X54700Y10101D01*
X51411Y10101D01*
X51411Y12810D01*
G74*
D01*
G03X51310Y12911I101J0*
G01*
X51310Y12911D01*
X49120Y12911D01*
D02*
G37*
%LPC*%
G36*
X53746Y10648D02*
X53746Y10648D01*
X53804Y10648D01*
X53804Y11004D01*
X53448Y11004D01*
X53448Y10946D01*
G75*
D01*
G03X53746Y10648I298J0*
G01*
D02*
G37*
G36*
X54254Y10648D02*
G75*
D01*
G03X54552Y10946I0J298*
G01*
X54552Y10946D01*
X54552Y11004D01*
X54196Y11004D01*
X54196Y10648D01*
X54254Y10648D01*
D02*
G37*
G36*
X53800Y11200D02*
G75*
D01*
G03X53800Y11200I200J0*
G01*
D02*
G37*
G36*
X53509Y12386D02*
X53509Y12386D01*
X53814Y12386D01*
X53814Y12691D01*
G74*
D01*
G03X53509Y12386I186J491*
G01*
D02*
G37*
G36*
X54186Y12691D02*
X54186Y12691D01*
X54186Y12386D01*
X54491Y12386D01*
G74*
D01*
G03X54186Y12691I491J186*
G01*
D02*
G37*
G36*
X54196Y11713D02*
X54196Y11713D01*
X54196Y11396D01*
X54552Y11396D01*
X54552Y11454D01*
G74*
D01*
G03X54273Y11751I298J0*
G01*
G74*
D01*
G03X54491Y12014I273J448*
G01*
X54491Y12014D01*
X54186Y12014D01*
X54186Y11709D01*
G74*
D01*
G03X54196Y11713I190J489*
G01*
D02*
G37*
G36*
X53804Y11713D02*
G74*
D01*
G03X53814Y11709I200J484*
G01*
X53814Y11709D01*
X53814Y12014D01*
X53509Y12014D01*
G74*
D01*
G03X53727Y11751I491J185*
G01*
G74*
D01*
G03X53448Y11454I18J296*
G01*
X53448Y11454D01*
X53448Y11396D01*
X53804Y11396D01*
X53804Y11713D01*
D02*
G37*
G36*
X53825Y12200D02*
G75*
D01*
G03X53825Y12200I175J0*
G01*
D02*
G37*
%LPD*%
G36*
X39440Y12911D02*
G75*
D01*
G03X39339Y12810I0J-101*
G01*
X39339Y12810D01*
X39339Y10101D01*
X37700Y10101D01*
X37700Y14800D01*
X44500Y14800D01*
X44500Y10101D01*
X41731Y10101D01*
X41731Y12810D01*
G74*
D01*
G03X41630Y12911I101J0*
G01*
X41630Y12911D01*
X39440Y12911D01*
D02*
G37*
%LPC*%
G36*
X43546Y10848D02*
X43546Y10848D01*
X43604Y10848D01*
X43604Y11204D01*
X43248Y11204D01*
X43248Y11146D01*
G75*
D01*
G03X43546Y10848I298J0*
G01*
D02*
G37*
G36*
X44054Y10848D02*
G75*
D01*
G03X44352Y11146I0J298*
G01*
X44352Y11146D01*
X44352Y11204D01*
X43996Y11204D01*
X43996Y10848D01*
X44054Y10848D01*
D02*
G37*
G36*
X43600Y11400D02*
G75*
D01*
G03X43600Y11400I200J0*
G01*
D02*
G37*
G36*
X43309Y12586D02*
X43309Y12586D01*
X43614Y12586D01*
X43614Y12891D01*
G74*
D01*
G03X43309Y12586I186J491*
G01*
D02*
G37*
G36*
X43986Y12891D02*
X43986Y12891D01*
X43986Y12586D01*
X44291Y12586D01*
G74*
D01*
G03X43986Y12891I491J186*
G01*
D02*
G37*
G36*
X43996Y11913D02*
X43996Y11913D01*
X43996Y11596D01*
X44352Y11596D01*
X44352Y11654D01*
G74*
D01*
G03X44073Y11951I298J0*
G01*
G74*
D01*
G03X44291Y12214I273J448*
G01*
X44291Y12214D01*
X43986Y12214D01*
X43986Y11909D01*
G74*
D01*
G03X43996Y11913I190J489*
G01*
D02*
G37*
G36*
X43604Y11913D02*
G74*
D01*
G03X43614Y11909I200J484*
G01*
X43614Y11909D01*
X43614Y12214D01*
X43309Y12214D01*
G74*
D01*
G03X43527Y11951I491J185*
G01*
G74*
D01*
G03X43248Y11654I18J296*
G01*
X43248Y11654D01*
X43248Y11596D01*
X43604Y11596D01*
X43604Y11913D01*
D02*
G37*
G36*
X43625Y12400D02*
G75*
D01*
G03X43625Y12400I175J0*
G01*
D02*
G37*
%LPD*%
G36*
X101Y47399D02*
X101Y47399D01*
X5000Y47399D01*
X5000Y41700D01*
X101Y41700D01*
X101Y47399D01*
D02*
G37*
%LPC*%
G36*
X1750Y44800D02*
G75*
D01*
G03X1750Y44800I850J0*
G01*
D02*
G37*
%LPD*%
G36*
X68649Y47399D02*
X68649Y47399D01*
X63800Y47399D01*
X63800Y47300D01*
X63800Y47300D01*
X63800Y41700D01*
X68649Y41700D01*
X68649Y47399D01*
D02*
G37*
%LPC*%
G36*
X65180Y44790D02*
G75*
D01*
G02X65180Y44790I850J0*
G01*
D02*
G37*
%LPD*%
G36*
X68649Y28149D02*
X68649Y28149D01*
X68649Y42000D01*
X67800Y42000D01*
X67800Y14800D01*
X68600Y14700D01*
X68649Y28149D01*
D02*
G37*
G36*
X11401Y46858D02*
X11401Y46858D01*
X11401Y47399D01*
X11000Y47399D01*
X11000Y46858D01*
G75*
D01*
G02X11401Y46858I201J-457*
G01*
D02*
G37*
G36*
X17401Y46858D02*
X17401Y46858D01*
X17401Y47399D01*
X17000Y47399D01*
X17000Y46858D01*
G75*
D01*
G02X17401Y46858I201J-457*
G01*
D02*
G37*
G54D11*
X65180Y44790D02*
G75*
D01*
G02X65180Y44790I850J0*
G01*
X68649Y47399D02*
X63800Y47399D01*
X63800Y47300D01*
X63800Y47300D01*
X63800Y41700D01*
X68649Y41700D01*
X68649Y47399D01*
X68649Y28149D02*
X68649Y42000D01*
X67800Y42000D01*
X67800Y14800D01*
X68600Y14700D01*
X68649Y28149D01*
X1750Y44800D02*
G75*
D01*
G03X1750Y44800I850J0*
G01*
X101Y47399D02*
X5000Y47399D01*
X5000Y41700D01*
X101Y41700D01*
X101Y47399D01*
X43546Y10848D02*
X43604Y10848D01*
X43604Y11204D01*
X43248Y11204D01*
X43248Y11146D01*
G75*
D01*
G03X43546Y10848I298J0*
G01*
X44054Y10848D02*
G75*
D01*
G03X44352Y11146I0J298*
G01*
X44352Y11204D01*
X43996Y11204D01*
X43996Y10848D01*
X44054Y10848D01*
X43600Y11400D02*
G75*
D01*
G03X43600Y11400I200J0*
G01*
X43309Y12586D02*
X43614Y12586D01*
X43614Y12891D01*
G74*
D01*
G03X43309Y12586I186J491*
G01*
X43986Y12891D02*
X43986Y12586D01*
X44291Y12586D01*
G74*
D01*
G03X43986Y12891I491J186*
G01*
X43996Y11913D02*
X43996Y11596D01*
X44352Y11596D01*
X44352Y11654D01*
G74*
D01*
G03X44073Y11951I298J0*
G01*
G74*
D01*
G03X44291Y12214I273J448*
G01*
X43986Y12214D01*
X43986Y11909D01*
G74*
D01*
G03X43996Y11913I190J489*
G01*
X43604Y11913D02*
G74*
D01*
G03X43614Y11909I200J484*
G01*
X43614Y12214D01*
X43309Y12214D01*
G74*
D01*
G03X43527Y11951I491J185*
G01*
G74*
D01*
G03X43248Y11654I18J296*
G01*
X43248Y11596D01*
X43604Y11596D01*
X43604Y11913D01*
X43625Y12400D02*
G75*
D01*
G03X43625Y12400I175J0*
G01*
X39440Y12911D02*
G75*
D01*
G03X39339Y12810I0J-101*
G01*
X39339Y10101D01*
X37700Y10101D01*
X37700Y14800D01*
X44500Y14800D01*
X44500Y10101D01*
X41731Y10101D01*
X41731Y12810D01*
G74*
D01*
G03X41630Y12911I101J0*
G01*
X39440Y12911D01*
X34376Y11399D02*
G74*
D01*
G02X34701Y11724I524J199*
G01*
X34701Y11399D01*
X34376Y11399D01*
X34701Y10676D02*
G74*
D01*
G02X34376Y11001I199J524*
G01*
X34701Y11001D01*
X34701Y10676D01*
X29549Y12810D02*
G75*
D01*
G02X29750Y13011I201J0*
G01*
X31940Y13011D01*
G74*
D01*
G02X32141Y12810I0J201*
G01*
X32141Y10201D01*
X35000Y10201D01*
X35000Y10960D01*
G75*
D01*
G02X35000Y11440I-100J240*
G01*
X35000Y14900D01*
X25500Y14900D01*
X25500Y10000D01*
X28299Y10000D01*
G75*
D01*
G02X28500Y10201I201J0*
G01*
X29549Y10201D01*
X29549Y12810D01*
X53746Y10648D02*
X53804Y10648D01*
X53804Y11004D01*
X53448Y11004D01*
X53448Y10946D01*
G75*
D01*
G03X53746Y10648I298J0*
G01*
X54254Y10648D02*
G75*
D01*
G03X54552Y10946I0J298*
G01*
X54552Y11004D01*
X54196Y11004D01*
X54196Y10648D01*
X54254Y10648D01*
X53800Y11200D02*
G75*
D01*
G03X53800Y11200I200J0*
G01*
X53509Y12386D02*
X53814Y12386D01*
X53814Y12691D01*
G74*
D01*
G03X53509Y12386I186J491*
G01*
X54186Y12691D02*
X54186Y12386D01*
X54491Y12386D01*
G74*
D01*
G03X54186Y12691I491J186*
G01*
X54196Y11713D02*
X54196Y11396D01*
X54552Y11396D01*
X54552Y11454D01*
G74*
D01*
G03X54273Y11751I298J0*
G01*
G74*
D01*
G03X54491Y12014I273J448*
G01*
X54186Y12014D01*
X54186Y11709D01*
G74*
D01*
G03X54196Y11713I190J489*
G01*
X53804Y11713D02*
G74*
D01*
G03X53814Y11709I200J484*
G01*
X53814Y12014D01*
X53509Y12014D01*
G74*
D01*
G03X53727Y11751I491J185*
G01*
G74*
D01*
G03X53448Y11454I18J296*
G01*
X53448Y11396D01*
X53804Y11396D01*
X53804Y11713D01*
X53825Y12200D02*
G75*
D01*
G03X53825Y12200I175J0*
G01*
X49120Y12911D02*
G75*
D01*
G03X49019Y12810I0J-101*
G01*
X49019Y10101D01*
X47400Y10101D01*
X47400Y14800D01*
X54700Y14800D01*
X54700Y10101D01*
X51411Y10101D01*
X51411Y12810D01*
G74*
D01*
G03X51310Y12911I101J0*
G01*
X49120Y12911D01*
X101Y101D02*
X28399Y101D01*
X28399Y9200D01*
X26500Y9200D01*
X26500Y1900D01*
X1800Y1900D01*
X1800Y42000D01*
X101Y42000D01*
X101Y101D01*
X46344Y47005D02*
X46549Y46800D01*
X46344Y46595D01*
G75*
D01*
G02X46344Y47005I455J205*
G01*
X46595Y47256D02*
G75*
D01*
G02X47005Y47256I205J-455*
G01*
X46800Y47051D01*
X46595Y47256D01*
X47256Y47005D02*
G75*
D01*
G02X47256Y46595I-455J-205*
G01*
X47051Y46800D01*
X47256Y47005D01*
X47005Y46344D02*
G75*
D01*
G02X46595Y46344I-205J455*
G01*
X46800Y46549D01*
X47005Y46344D01*
X46625Y46800D02*
G75*
D01*
G02X46625Y46800I175J0*
G01*
X51544Y47005D02*
X51749Y46800D01*
X51544Y46595D01*
G75*
D01*
G02X51544Y47005I455J205*
G01*
X51795Y47256D02*
G75*
D01*
G02X52205Y47256I205J-455*
G01*
X52000Y47051D01*
X51795Y47256D01*
X52456Y47005D02*
G75*
D01*
G02X52456Y46595I-455J-205*
G01*
X52251Y46800D01*
X52456Y47005D01*
X52205Y46344D02*
G75*
D01*
G02X51795Y46344I-205J455*
G01*
X52000Y46549D01*
X52205Y46344D01*
X51825Y46800D02*
G75*
D01*
G02X51825Y46800I175J0*
G01*
X56944Y47005D02*
X57149Y46800D01*
X56944Y46595D01*
G75*
D01*
G02X56944Y47005I455J205*
G01*
X57195Y47256D02*
G75*
D01*
G02X57605Y47256I205J-455*
G01*
X57400Y47051D01*
X57195Y47256D01*
X57856Y47005D02*
G75*
D01*
G02X57856Y46595I-455J-205*
G01*
X57651Y46800D01*
X57856Y47005D01*
X57605Y46344D02*
G75*
D01*
G02X57195Y46344I-205J455*
G01*
X57400Y46549D01*
X57605Y46344D01*
X57225Y46800D02*
G75*
D01*
G02X57225Y46800I175J0*
G01*
X62144Y47005D02*
X62349Y46800D01*
X62144Y46595D01*
G75*
D01*
G02X62144Y47005I455J205*
G01*
X62395Y47256D02*
G75*
D01*
G02X62805Y47256I205J-455*
G01*
X62600Y47051D01*
X62395Y47256D01*
X63056Y47005D02*
G75*
D01*
G02X63056Y46595I-455J-205*
G01*
X62851Y46800D01*
X63056Y47005D01*
X62805Y46344D02*
G75*
D01*
G02X62395Y46344I-205J455*
G01*
X62600Y46549D01*
X62805Y46344D01*
X62425Y46800D02*
G75*
D01*
G02X62425Y46800I175J0*
G01*
X16740Y47399D02*
X11660Y47399D01*
G74*
D01*
G02X12282Y46601I459J999*
G01*
X11658Y46601D01*
G75*
D01*
G02X11658Y46200I-458J-200*
G01*
X12282Y46200D01*
G74*
D01*
G02X11401Y45318I1082J200*
G01*
X11401Y45942D01*
G75*
D01*
G02X11000Y45942I-200J458*
G01*
X11000Y45318D01*
G74*
D01*
G02X10118Y46200I200J1082*
G01*
X10742Y46200D01*
G75*
D01*
G02X10742Y46601I457J201*
G01*
X10118Y46601D01*
G74*
D01*
G02X10740Y47399I1081J201*
G01*
X4970Y47399D01*
X4970Y45200D01*
X64100Y45200D01*
X64000Y47399D01*
X17660Y47399D01*
G74*
D01*
G02X18282Y46601I459J999*
G01*
X17658Y46601D01*
G75*
D01*
G02X17658Y46200I-458J-200*
G01*
X18282Y46200D01*
G74*
D01*
G02X17401Y45318I1082J200*
G01*
X17401Y45942D01*
G75*
D01*
G02X17000Y45942I-200J458*
G01*
X17000Y45318D01*
G74*
D01*
G02X16118Y46200I200J1082*
G01*
X16742Y46200D01*
G75*
D01*
G02X16742Y46601I457J201*
G01*
X16118Y46601D01*
G74*
D01*
G02X16740Y47399I1081J201*
G01*
X11401Y46858D02*
X11401Y47399D01*
X11000Y47399D01*
X11000Y46858D01*
G75*
D01*
G02X11401Y46858I201J-457*
G01*
X17401Y46858D02*
X17401Y47399D01*
X17000Y47399D01*
X17000Y46858D01*
G75*
D01*
G02X17401Y46858I201J-457*
G01*
X58810Y12911D02*
G75*
D01*
G03X58709Y12810I0J-101*
G01*
X58709Y10101D01*
X56600Y10101D01*
X56600Y15780D01*
X68600Y15790D01*
X68649Y12626D01*
X68649Y10101D01*
X61101Y10101D01*
X61101Y12810D01*
G74*
D01*
G03X61000Y12911I101J0*
G01*
X58810Y12911D01*
G54D12*
X39795Y29800D02*
X39400Y29800D01*
X47300Y35400D02*
X40700Y28800D01*
X39400Y28800D01*
X47300Y35400D02*
X47300Y35500D01*
X34400Y38800D02*
X32980Y40220D01*
X32980Y40890D01*
X21400Y11600D02*
X16300Y11600D01*
X48280Y28855D02*
X51730Y32305D01*
X48280Y28375D02*
X48280Y28855D01*
X47200Y28600D02*
X51945Y33345D01*
X56855Y33345D01*
X17190Y5670D02*
X17190Y8710D01*
X16300Y9600D01*
X39795Y29800D02*
X46325Y36330D01*
X62270Y36330D01*
X63100Y35500D01*
X6964Y23594D02*
X6964Y23636D01*
X6225Y22855D02*
X6964Y23594D01*
X6964Y23636D02*
X7000Y23600D01*
X60180Y31070D02*
X51416Y31070D01*
X64360Y23229D02*
X64331Y23200D01*
X63200Y23200D02*
X64331Y23200D01*
X6000Y26229D02*
X6000Y30800D01*
X64360Y26680D02*
X63216Y27824D01*
X64360Y23229D02*
X64360Y26680D01*
X63216Y27824D02*
X56560Y27824D01*
X4920Y18090D02*
X3180Y18090D01*
X6200Y20400D02*
X6200Y19370D01*
X4920Y18090D01*
X9150Y4600D02*
X10120Y3630D01*
X10120Y2870D01*
X9150Y4600D02*
X8600Y4600D01*
X10000Y18274D02*
X10000Y17800D01*
X11595Y23595D02*
X14000Y26000D01*
X11595Y20020D02*
X11595Y23595D01*
X11598Y19992D02*
X11598Y19872D01*
X10000Y18274D01*
X51260Y27600D02*
X49800Y27600D01*
X52570Y26290D02*
X51260Y27600D01*
X52570Y25830D02*
X52570Y26290D01*
X52571Y25632D02*
X52571Y25829D01*
X11000Y5400D02*
X10600Y5000D01*
X11200Y5600D02*
X11000Y5400D01*
X10600Y5000D02*
X6000Y5000D01*
X11200Y11200D02*
X11200Y5600D01*
X11605Y11605D02*
X11200Y11200D01*
X16395Y11605D02*
X11605Y11605D01*
X16395Y11605D02*
X16400Y11600D01*
X16300Y9600D02*
X16300Y10600D01*
X21600Y32670D02*
X21600Y31600D01*
X21600Y32670D02*
X20120Y34150D01*
X20120Y36641D01*
X20489Y37010D01*
X21190Y37010D01*
X21200Y37000D01*
X18310Y24690D02*
X17000Y26000D01*
X18310Y22160D02*
X18310Y24690D01*
X21200Y19270D02*
X18310Y22160D01*
X21200Y17600D02*
X21200Y19270D01*
X21600Y25710D02*
X21600Y27600D01*
X22600Y24710D02*
X21600Y25710D01*
X22600Y23000D02*
X22600Y24710D01*
X22200Y22600D02*
X22600Y23000D01*
X21900Y22600D02*
X22200Y22600D01*
X6225Y22855D02*
X6225Y20600D01*
X6000Y26200D02*
X8390Y26200D01*
X3775Y26200D02*
X5971Y26200D01*
X6000Y26229D01*
X8390Y26200D02*
X9220Y27030D01*
X3775Y26200D02*
X3380Y26595D01*
X9220Y27030D02*
X13970Y27030D01*
X3380Y26595D02*
X3380Y28490D01*
X13970Y27030D02*
X14000Y27000D01*
X44200Y26800D02*
X39400Y26800D01*
X44800Y27400D02*
X44200Y26800D01*
X44800Y32000D02*
X44800Y27400D01*
X41180Y25800D02*
X39400Y25800D01*
X41590Y26210D02*
X41180Y25800D01*
X45010Y26210D02*
X41590Y26210D01*
X45200Y26400D02*
X45010Y26210D01*
X45200Y32800D02*
X45200Y26400D01*
X45400Y33000D02*
X45200Y32800D01*
X51000Y33000D02*
X45400Y33000D01*
X51200Y33200D02*
X51000Y33000D01*
X51200Y35000D02*
X51200Y33200D01*
X51400Y35200D02*
X51200Y35000D01*
X52200Y35200D02*
X51400Y35200D01*
X52500Y35500D02*
X52200Y35200D01*
X36400Y29800D02*
X35160Y29800D01*
X33720Y28360D01*
X32910Y28360D01*
X32800Y28470D01*
X32690Y28360D02*
X32800Y28470D01*
X32690Y28360D02*
X30720Y28360D01*
X29800Y29280D01*
X29800Y33800D01*
X30000Y34000D01*
X37600Y34000D01*
X37800Y34200D01*
X37800Y35200D01*
X58761Y23500D02*
X56572Y23500D01*
X59090Y23829D02*
X58761Y23500D01*
X59090Y26590D02*
X59090Y23829D01*
X59600Y27100D02*
X59090Y26590D01*
X62100Y27100D02*
X59600Y27100D01*
X62600Y26600D02*
X62100Y27100D01*
X62600Y25600D02*
X62600Y26600D01*
X63000Y25200D02*
X62600Y25600D01*
X63200Y25200D02*
X63000Y25200D01*
X57213Y21367D02*
X56571Y21367D01*
X57610Y20970D02*
X57213Y21367D01*
X57610Y19629D02*
X57610Y20970D01*
X57610Y19629D02*
X58299Y18940D01*
X61740Y18940D02*
X58299Y18940D01*
X62000Y19200D02*
X61740Y18940D01*
X62000Y21690D02*
X62000Y19200D01*
X62510Y22200D02*
X62000Y21690D01*
X63200Y22200D02*
X62510Y22200D01*
X47665Y22600D02*
X46800Y22600D01*
X48775Y23710D02*
X47665Y22600D01*
X48775Y28429D02*
X48775Y23710D01*
X51416Y31070D02*
X48775Y28429D01*
X61410Y32300D02*
X60180Y31070D01*
X63100Y32300D02*
X61410Y32300D01*
X47200Y28600D02*
X46800Y28600D01*
X56855Y33345D02*
X57900Y32300D01*
X47505Y27600D02*
X46800Y27600D01*
X47505Y27600D02*
X48280Y28375D01*
X52495Y32305D02*
X51730Y32305D01*
X52495Y32305D02*
X52500Y32300D01*
X45960Y23600D02*
X46800Y23600D01*
X45470Y24090D02*
X45960Y23600D01*
X45470Y30270D02*
X45470Y24090D01*
X47300Y32100D02*
X45470Y30270D01*
X47300Y32300D02*
X47300Y32100D01*
X50480Y22600D02*
X49800Y22600D01*
X51010Y22070D02*
X50480Y22600D01*
X51010Y17740D02*
X51010Y22070D01*
X51670Y17080D02*
X51010Y17740D01*
X52579Y17080D02*
X51670Y17080D01*
X52579Y17080D02*
X52600Y17101D01*
X3410Y31230D02*
X3380Y31200D01*
G54D13*
X9200Y11600D02*
X9600Y12000D01*
X21900Y21600D02*
X27300Y21600D01*
X27400Y21700D01*
X9200Y11600D02*
X3880Y11600D01*
G54D14*
X21400Y9600D02*
X16270Y9600D01*
X9600Y10000D02*
X8970Y10630D01*
X3910Y10630D01*
G54D15*
X18320Y43970D02*
X21060Y43970D01*
X18320Y43970D02*
X17200Y42850D01*
X12480Y42850D01*
X12200Y42000D02*
X12200Y45400D01*
X12480Y42850D02*
X12200Y42570D01*
X12200Y42000D02*
X13800Y40400D01*
X12200Y45400D02*
X12170Y45430D01*
X21060Y43970D02*
X22150Y42880D01*
X22150Y39340D01*
X27550Y33940D01*
X27550Y25270D01*
G54D16*
X12170Y45430D02*
X11200Y46400D01*
X13800Y40400D02*
X13800Y38430D01*
X13800Y38430D02*
X13790Y38420D01*
X30670Y37330D02*
X30670Y45510D01*
X30670Y37330D02*
X31300Y36700D01*
X32980Y43600D02*
X30670Y43600D01*
X3180Y20800D02*
X1370Y20800D01*
X3380Y31200D02*
X1640Y31200D01*
X31300Y36700D02*
X35300Y36700D01*
X35300Y36700D02*
X36800Y35200D01*
X14000Y22000D02*
X14000Y15430D01*
X38400Y24480D02*
X37080Y25800D01*
X14890Y14650D02*
X14150Y15390D01*
X9380Y15390D01*
X14000Y15430D02*
X13960Y15390D01*
X37080Y25800D02*
X36400Y25800D01*
X14890Y14600D02*
X14890Y14650D01*
X17000Y14600D02*
X14900Y14600D01*
X14890Y14610D01*
X9380Y15390D02*
X7790Y13800D01*
X4340Y13800D02*
X7790Y13800D01*
X4340Y13800D02*
X2620Y12080D01*
X2620Y5340D01*
X4730Y3230D01*
X24200Y26700D02*
X23900Y27000D01*
X23600Y27000D01*
X23400Y27200D01*
X23400Y32480D01*
X21200Y34680D01*
X21200Y36000D01*
X39400Y31800D02*
X39400Y33000D01*
X39000Y33400D01*
X30400Y33400D01*
X19795Y29005D02*
X19205Y29005D01*
X20400Y28400D02*
X19795Y29005D01*
X20400Y24000D02*
X20400Y28400D01*
X20795Y23605D02*
X20400Y24000D01*
X21595Y23605D02*
X20795Y23605D01*
X21800Y23600D02*
X21600Y23600D01*
X38400Y23200D02*
X38400Y24480D01*
G54D17*
X13790Y40412D02*
X13790Y32610D01*
X13790Y32610D02*
X15000Y31400D01*
X38900Y17600D02*
X38900Y22700D01*
X38900Y22700D02*
X38400Y23200D01*
X46530Y17610D02*
X47720Y18800D01*
X47720Y18800D02*
X47800Y18800D01*
X38910Y17610D02*
X46530Y17610D01*
G54D18*
X23510Y43890D02*
X23510Y39930D01*
X28790Y34650D01*
X28790Y18210D02*
X28790Y34650D01*
X28790Y18210D02*
X29400Y17600D01*
G54D19*
X-100Y-100D02*
X-100Y4670D01*
X-100Y-100D02*
X6795Y-100D01*
X68850Y-100D02*
X61955Y-100D01*
X68850Y-100D02*
X68850Y4670D01*
X68850Y47600D02*
X68850Y42830D01*
X68850Y47600D02*
X61955Y47600D01*
X-100Y47600D02*
X6795Y47600D01*
X-100Y47600D02*
X-100Y42830D01*
X-2069Y-100D02*
X-6006Y-100D01*
X-4037Y-2069D02*
X-4037Y1869D01*
X-5513Y-100D02*
G75*
D01*
G02X-5513Y-100I1476J0*
G01*
X70819Y-100D02*
X74756Y-100D01*
X72787Y-2069D02*
X72787Y1869D01*
X71311Y-100D02*
G75*
D01*
G02X71311Y-100I1476J0*
G01*
X72295Y-100D02*
G75*
D01*
G02X72295Y-100I492J0*
G01*
X-2069Y47600D02*
X-6006Y47600D01*
X-4037Y45631D02*
X-4037Y49569D01*
X-5513Y47600D02*
G75*
D01*
G02X-5513Y47600I1476J0*
G01*
X-5021Y47600D02*
G75*
D01*
G02X-5021Y47600I984J0*
G01*
X-4529Y47600D02*
G75*
D01*
G02X-4529Y47600I492J0*
G01*
G54D20*
X9000Y17800D03*
X10000Y17800D03*
X6200Y21400D03*
X14000Y22000D03*
X17000Y22000D03*
X14000Y23000D03*
X17000Y23000D03*
X14000Y24000D03*
X17000Y24000D03*
X14000Y25000D03*
X17000Y25000D03*
X14000Y26000D03*
X17000Y26000D03*
X14000Y27000D03*
X17000Y27000D03*
X14000Y28000D03*
X17000Y28000D03*
X14000Y29000D03*
X17000Y29000D03*
X16000Y31400D03*
X15000Y31400D03*
X20200Y17600D03*
X21200Y17600D03*
X24200Y26700D03*
X24200Y29200D03*
X6000Y29800D03*
X37200Y42200D03*
X46800Y21600D03*
X49800Y21600D03*
X46800Y22600D03*
X49800Y22600D03*
X46800Y23600D03*
X49800Y23600D03*
X46800Y24600D03*
X49800Y24600D03*
X46800Y25600D03*
X49800Y25600D03*
X46800Y26600D03*
X49800Y26600D03*
X46800Y27600D03*
X49800Y27600D03*
X46800Y28600D03*
X49800Y28600D03*
X48800Y18800D03*
X47800Y18800D03*
X19600Y5000D03*
X53500Y32300D03*
X58900Y32300D03*
X64100Y32300D03*
X27400Y41000D03*
X28400Y41000D03*
X29400Y41000D03*
X26400Y44000D03*
X27400Y44000D03*
X28400Y44000D03*
X29400Y44000D03*
X64100Y35500D03*
X48300Y35500D03*
X43800Y12400D03*
X54000Y12200D03*
X60200Y20200D03*
X63200Y20200D03*
X60200Y21200D03*
X63200Y21200D03*
X60200Y22200D03*
X63200Y22200D03*
X60200Y23200D03*
X63200Y23200D03*
X60200Y24200D03*
X63200Y24200D03*
X60200Y25200D03*
X63200Y25200D03*
X60200Y26200D03*
X63200Y26200D03*
X53500Y35500D03*
X52067Y39200D03*
X53067Y39200D03*
X46800Y39200D03*
X47800Y39200D03*
X57333Y39200D03*
X58333Y39200D03*
X62600Y39200D03*
X63600Y39200D03*
X58900Y35500D03*
X30400Y33400D03*
X48300Y32300D03*
X12400Y14200D03*
X23800Y14000D03*
X24600Y3800D03*
X38400Y23200D03*
X37400Y23200D03*
X36400Y25800D03*
X39400Y25800D03*
X36400Y26800D03*
X39400Y26800D03*
X36400Y27800D03*
X39400Y27800D03*
X36400Y28800D03*
X39400Y28800D03*
X36400Y29800D03*
X39400Y29800D03*
X36400Y30800D03*
X39400Y30800D03*
X36400Y31800D03*
X39400Y31800D03*
X39800Y38872D03*
X39800Y43400D03*
X21200Y36000D03*
G54D21*
X6200Y17800D03*
X6200Y13800D03*
X11000Y23600D03*
X7000Y23600D03*
X11000Y26200D03*
X7000Y26200D03*
X19200Y29000D03*
X19200Y25000D03*
X17000Y18600D03*
X17000Y14600D03*
X21600Y27600D03*
X21600Y31600D03*
X62600Y42800D03*
X62600Y46800D03*
X46800Y42800D03*
X46800Y46800D03*
X34400Y34800D03*
X34400Y38800D03*
X44200Y29600D03*
X44200Y25600D03*
X56600Y29898D03*
X52600Y29898D03*
X56571Y25632D03*
X52571Y25632D03*
X56571Y23499D03*
X52571Y23499D03*
X56571Y21367D03*
X52571Y21367D03*
X56600Y17101D03*
X52600Y17101D03*
X32800Y32400D03*
X32800Y28400D03*
X56600Y27765D03*
X52600Y27765D03*
X52000Y42800D03*
X52000Y46800D03*
X57400Y42800D03*
X57400Y46800D03*
X13200Y43900D03*
X14200Y43900D03*
X15200Y43900D03*
X16200Y43900D03*
X56571Y19234D03*
X52571Y19234D03*
G54D22*
X3900Y10600D03*
X3900Y11600D03*
X3900Y9600D03*
X21900Y23600D03*
X21900Y22600D03*
X21900Y21600D03*
X16300Y10600D03*
X16300Y11600D03*
X16300Y9600D03*
G54D23*
X3180Y20800D03*
X3180Y18090D03*
X3380Y31200D03*
X3380Y28490D03*
X32980Y43600D03*
X32980Y40890D03*
G54D24*
X6200Y20400D03*
X6000Y30800D03*
X37200Y41200D03*
X19600Y4000D03*
X52500Y32300D03*
X57900Y32300D03*
X63100Y32300D03*
X63100Y35500D03*
X47300Y35500D03*
X43800Y11400D03*
X54000Y11200D03*
X52500Y35500D03*
X57900Y35500D03*
X30400Y32400D03*
X47300Y32300D03*
X12400Y13200D03*
X23800Y13000D03*
X24600Y2800D03*
X21200Y37000D03*
G54D25*
X5946Y20146D02*
X6454Y20146D01*
X6454Y20654D01*
X5946Y20654D01*
X5946Y20146D01*D02*
X5746Y30546D02*
X6254Y30546D01*
X6254Y31054D01*
X5746Y31054D01*
X5746Y30546D01*D02*
X36946Y40946D02*
X37454Y40946D01*
X37454Y41454D01*
X36946Y41454D01*
X36946Y40946D01*D02*
X19346Y3746D02*
X19854Y3746D01*
X19854Y4254D01*
X19346Y4254D01*
X19346Y3746D01*D02*
X52246Y32046D02*
X52754Y32046D01*
X52754Y32554D01*
X52246Y32554D01*
X52246Y32046D01*D02*
X57646Y32046D02*
X58154Y32046D01*
X58154Y32554D01*
X57646Y32554D01*
X57646Y32046D01*D02*
X62846Y32046D02*
X63354Y32046D01*
X63354Y32554D01*
X62846Y32554D01*
X62846Y32046D01*D02*
X62846Y35246D02*
X63354Y35246D01*
X63354Y35754D01*
X62846Y35754D01*
X62846Y35246D01*D02*
X47046Y35246D02*
X47554Y35246D01*
X47554Y35754D01*
X47046Y35754D01*
X47046Y35246D01*D02*
X43546Y11146D02*
X44054Y11146D01*
X44054Y11654D01*
X43546Y11654D01*
X43546Y11146D01*D02*
X53746Y10946D02*
X54254Y10946D01*
X54254Y11454D01*
X53746Y11454D01*
X53746Y10946D01*D02*
X52246Y35246D02*
X52754Y35246D01*
X52754Y35754D01*
X52246Y35754D01*
X52246Y35246D01*D02*
X57646Y35246D02*
X58154Y35246D01*
X58154Y35754D01*
X57646Y35754D01*
X57646Y35246D01*D02*
X30146Y32146D02*
X30654Y32146D01*
X30654Y32654D01*
X30146Y32654D01*
X30146Y32146D01*D02*
X47046Y32046D02*
X47554Y32046D01*
X47554Y32554D01*
X47046Y32554D01*
X47046Y32046D01*D02*
X12146Y12946D02*
X12654Y12946D01*
X12654Y13454D01*
X12146Y13454D01*
X12146Y12946D01*D02*
X23546Y12746D02*
X24054Y12746D01*
X24054Y13254D01*
X23546Y13254D01*
X23546Y12746D01*D02*
X24346Y2546D02*
X24854Y2546D01*
X24854Y3054D01*
X24346Y3054D01*
X24346Y2546D01*D02*
X20946Y36746D02*
X21454Y36746D01*
X21454Y37254D01*
X20946Y37254D01*
X20946Y36746D01*D02*
G54D26*
X37300Y34700D03*
X36800Y35200D03*
X37800Y35200D03*
G54D27*
X26400Y41000D03*
G54D28*
X26142Y40742D02*
X26658Y40742D01*
X26658Y41258D01*
X26142Y41258D01*
X26142Y40742D01*D02*
G54D29*
X14800Y40400D03*
X13800Y40400D03*
X9600Y12000D03*
X21400Y11600D03*
X21400Y9600D03*
X9600Y10000D03*
X27400Y21700D03*
X27400Y23700D03*
G54D30*
X17200Y46400D03*
X11200Y46400D03*
G54D31*
X12200Y43900D03*
G54D32*
X38900Y17600D03*
X29400Y17600D03*
G54D33*
X35900Y11200D03*
X34900Y11200D03*
G54D34*
X14800Y40300D03*
X11000Y5400D03*
X6000Y5000D03*
X8600Y4600D03*
X10100Y2800D03*
X17190Y5670D03*
X44800Y32000D03*
X23500Y43900D03*
X4700Y3200D03*
X27500Y25200D03*

M02*
