G04 Generated by Ultiboard 14.0 *
%FSLAX25Y25*%
%MOIN*%

%ADD10C,0.00001*%
%ADD11C,0.00005*%
%ADD12C,0.01000*%
%ADD13C,0.03000*%
%ADD14C,0.01500*%
%ADD15C,0.05846*%
%ADD16C,0.02000*%
%ADD17C,0.07781*%
%ADD18C,0.10000*%
%ADD19C,0.00500*%
%ADD20C,0.08500*%
%ADD21C,0.08000*%
%ADD22C,0.09000*%
%ADD23C,0.10000*%
%ADD24R,0.05083X0.05083*%
%ADD25C,0.03917*%
%ADD26C,0.06000*%
%ADD27R,0.05167X0.05167*%
%ADD28C,0.03333*%
%ADD29C,0.08334*%
%ADD30C,0.05166*%
%ADD31C,0.20000*%
%ADD32R,0.08000X0.08000*%
%ADD33C,0.07500*%
%ADD34C,0.04037*%


G04 ColorRGB 0000FF for the following layer *
%LNCopper Bottom*%
%LPD*%
G54D10*
G36*
X1007Y1007D02*
X1007Y1007D01*
X283993Y1007D01*
X283993Y92000D01*
X265000Y92000D01*
X265000Y19000D01*
X18000Y19000D01*
X18000Y420000D01*
X1007Y420000D01*
X1007Y1007D01*
D02*
G37*
G36*
X167395Y473993D02*
X167395Y473993D01*
X116605Y473993D01*
G74*
D01*
G02X122818Y466005I4606J9993*
G01*
X122818Y466005D01*
X116580Y466005D01*
G75*
D01*
G02X116580Y461995I-4579J-2005*
G01*
X116580Y461995D01*
X122818Y461995D01*
G74*
D01*
G02X114005Y453182I10818J2005*
G01*
X114005Y453182D01*
X114005Y459420D01*
G75*
D01*
G02X109995Y459420I-2005J4579*
G01*
X109995Y459420D01*
X109995Y453182D01*
G74*
D01*
G02X101182Y461995I2005J10818*
G01*
X101182Y461995D01*
X107420Y461995D01*
G75*
D01*
G02X107420Y466005I4579J2005*
G01*
X107420Y466005D01*
X101182Y466005D01*
G74*
D01*
G02X107395Y473993I10818J2004*
G01*
X107395Y473993D01*
X49700Y473993D01*
X49700Y452000D01*
X641000Y452000D01*
X640000Y473993D01*
X176605Y473993D01*
G74*
D01*
G02X182818Y466005I4606J9993*
G01*
X182818Y466005D01*
X176580Y466005D01*
G75*
D01*
G02X176580Y461995I-4579J-2005*
G01*
X176580Y461995D01*
X182818Y461995D01*
G74*
D01*
G02X174005Y453182I10818J2005*
G01*
X174005Y453182D01*
X174005Y459420D01*
G75*
D01*
G02X169995Y459420I-2005J4579*
G01*
X169995Y459420D01*
X169995Y453182D01*
G74*
D01*
G02X161182Y461995I2005J10818*
G01*
X161182Y461995D01*
X167420Y461995D01*
G75*
D01*
G02X167420Y466005I4579J2005*
G01*
X167420Y466005D01*
X161182Y466005D01*
G74*
D01*
G02X167395Y473993I10818J2004*
G01*
D02*
G37*
%LPC*%
G36*
X463438Y470053D02*
X463438Y470053D01*
X465491Y468000D01*
X463438Y465947D01*
G75*
D01*
G02X463438Y470053I4561J2053*
G01*
D02*
G37*
G36*
X465947Y472562D02*
G75*
D01*
G02X470053Y472562I2053J-4561*
G01*
X470053Y472562D01*
X468000Y470509D01*
X465947Y472562D01*
D02*
G37*
G36*
X472562Y470053D02*
G75*
D01*
G02X472562Y465947I-4561J-2053*
G01*
X472562Y465947D01*
X470509Y468000D01*
X472562Y470053D01*
D02*
G37*
G36*
X470053Y463438D02*
G75*
D01*
G02X465947Y463438I-2053J4561*
G01*
X465947Y463438D01*
X468000Y465491D01*
X470053Y463438D01*
D02*
G37*
G36*
X466250Y468000D02*
G75*
D01*
G02X466250Y468000I1750J0*
G01*
D02*
G37*
G36*
X515438Y470053D02*
X515438Y470053D01*
X517491Y468000D01*
X515438Y465947D01*
G75*
D01*
G02X515438Y470053I4561J2053*
G01*
D02*
G37*
G36*
X517947Y472562D02*
G75*
D01*
G02X522053Y472562I2053J-4561*
G01*
X522053Y472562D01*
X520000Y470509D01*
X517947Y472562D01*
D02*
G37*
G36*
X524562Y470053D02*
G75*
D01*
G02X524562Y465947I-4561J-2053*
G01*
X524562Y465947D01*
X522509Y468000D01*
X524562Y470053D01*
D02*
G37*
G36*
X522053Y463438D02*
G75*
D01*
G02X517947Y463438I-2053J4561*
G01*
X517947Y463438D01*
X520000Y465491D01*
X522053Y463438D01*
D02*
G37*
G36*
X518250Y468000D02*
G75*
D01*
G02X518250Y468000I1750J0*
G01*
D02*
G37*
G36*
X569438Y470053D02*
X569438Y470053D01*
X571491Y468000D01*
X569438Y465947D01*
G75*
D01*
G02X569438Y470053I4561J2053*
G01*
D02*
G37*
G36*
X571947Y472562D02*
G75*
D01*
G02X576053Y472562I2053J-4561*
G01*
X576053Y472562D01*
X574000Y470509D01*
X571947Y472562D01*
D02*
G37*
G36*
X578562Y470053D02*
G75*
D01*
G02X578562Y465947I-4561J-2053*
G01*
X578562Y465947D01*
X576509Y468000D01*
X578562Y470053D01*
D02*
G37*
G36*
X576053Y463438D02*
G75*
D01*
G02X571947Y463438I-2053J4561*
G01*
X571947Y463438D01*
X574000Y465491D01*
X576053Y463438D01*
D02*
G37*
G36*
X572250Y468000D02*
G75*
D01*
G02X572250Y468000I1750J0*
G01*
D02*
G37*
G36*
X621438Y470053D02*
X621438Y470053D01*
X623491Y468000D01*
X621438Y465947D01*
G75*
D01*
G02X621438Y470053I4561J2053*
G01*
D02*
G37*
G36*
X623947Y472562D02*
G75*
D01*
G02X628053Y472562I2053J-4561*
G01*
X628053Y472562D01*
X626000Y470509D01*
X623947Y472562D01*
D02*
G37*
G36*
X630562Y470053D02*
G75*
D01*
G02X630562Y465947I-4561J-2053*
G01*
X630562Y465947D01*
X628509Y468000D01*
X630562Y470053D01*
D02*
G37*
G36*
X628053Y463438D02*
G75*
D01*
G02X623947Y463438I-2053J4561*
G01*
X623947Y463438D01*
X626000Y465491D01*
X628053Y463438D01*
D02*
G37*
G36*
X624250Y468000D02*
G75*
D01*
G02X624250Y468000I1750J0*
G01*
D02*
G37*
%LPD*%
G36*
X588100Y129107D02*
G75*
D01*
G03X587093Y128100I0J-1007*
G01*
X587093Y128100D01*
X587093Y101007D01*
X566000Y101007D01*
X566000Y157800D01*
X686000Y157900D01*
X686493Y126261D01*
X686493Y101007D01*
X611007Y101007D01*
X611007Y128100D01*
G74*
D01*
G03X610000Y129107I1007J0*
G01*
X610000Y129107D01*
X588100Y129107D01*
D02*
G37*
%LPC*%
G36*
X633459Y106483D02*
X633459Y106483D01*
X634044Y106483D01*
X634044Y110044D01*
X630483Y110044D01*
X630483Y109459D01*
G75*
D01*
G03X633459Y106483I2976J0*
G01*
D02*
G37*
G36*
X638542Y106483D02*
G75*
D01*
G03X641517Y109459I-1J2976*
G01*
X641517Y109459D01*
X641517Y110044D01*
X637956Y110044D01*
X637956Y106483D01*
X638542Y106483D01*
D02*
G37*
G36*
X634000Y112000D02*
G75*
D01*
G03X634000Y112000I2000J0*
G01*
D02*
G37*
G36*
X631089Y123863D02*
X631089Y123863D01*
X634137Y123863D01*
X634137Y126911D01*
G74*
D01*
G03X631089Y123863I1863J4911*
G01*
D02*
G37*
G36*
X637863Y126911D02*
X637863Y126911D01*
X637863Y123863D01*
X640911Y123863D01*
G74*
D01*
G03X637863Y126911I4911J1863*
G01*
D02*
G37*
G36*
X637956Y117125D02*
X637956Y117125D01*
X637956Y113956D01*
X641517Y113956D01*
X641517Y114542D01*
G74*
D01*
G03X638727Y117511I2975J0*
G01*
G74*
D01*
G03X640911Y120137I2727J4489*
G01*
X640911Y120137D01*
X637863Y120137D01*
X637863Y117089D01*
G74*
D01*
G03X637956Y117125I1849J4916*
G01*
D02*
G37*
G36*
X634044Y117125D02*
G74*
D01*
G03X634137Y117089I1942J4880*
G01*
X634137Y117089D01*
X634137Y120137D01*
X631089Y120137D01*
G74*
D01*
G03X633273Y117511I4911J1863*
G01*
G74*
D01*
G03X630483Y114542I184J2968*
G01*
X630483Y114542D01*
X630483Y113956D01*
X634044Y113956D01*
X634044Y117125D01*
D02*
G37*
G36*
X634250Y122000D02*
G75*
D01*
G03X634250Y122000I1750J0*
G01*
D02*
G37*
%LPD*%
G36*
X296493Y128100D02*
G75*
D01*
G02X297500Y129107I1007J0*
G01*
X297500Y129107D01*
X319400Y129107D01*
G74*
D01*
G02X320407Y128100I0J1007*
G01*
X320407Y128100D01*
X320407Y101007D01*
X350000Y101007D01*
X350000Y149000D01*
X255000Y149000D01*
X255000Y100000D01*
X283993Y100000D01*
G75*
D01*
G02X285000Y101007I1007J0*
G01*
X285000Y101007D01*
X296493Y101007D01*
X296493Y128100D01*
D02*
G37*
%LPC*%
G36*
X339459Y107483D02*
G75*
D01*
G02X336483Y110459I0J2976*
G01*
X336483Y110459D01*
X336483Y111044D01*
X340044Y111044D01*
X340044Y107483D01*
X339459Y107483D01*
D02*
G37*
G36*
X344542Y107483D02*
X344542Y107483D01*
X343956Y107483D01*
X343956Y111044D01*
X347517Y111044D01*
X347517Y110459D01*
G75*
D01*
G02X344542Y107483I-2975J-1*
G01*
D02*
G37*
G36*
X340000Y113000D02*
G75*
D01*
G02X340000Y113000I2000J0*
G01*
D02*
G37*
G36*
X337089Y124863D02*
G74*
D01*
G02X340137Y127911I4911J1863*
G01*
X340137Y127911D01*
X340137Y124863D01*
X337089Y124863D01*
D02*
G37*
G36*
X343863Y127911D02*
G74*
D01*
G02X346911Y124863I1863J4911*
G01*
X346911Y124863D01*
X343863Y124863D01*
X343863Y127911D01*
D02*
G37*
G36*
X343956Y118125D02*
G74*
D01*
G02X343863Y118089I1942J4880*
G01*
X343863Y118089D01*
X343863Y121137D01*
X346911Y121137D01*
G74*
D01*
G02X344727Y118511I4911J1863*
G01*
G74*
D01*
G02X347517Y115542I184J2968*
G01*
X347517Y115542D01*
X347517Y114956D01*
X343956Y114956D01*
X343956Y118125D01*
D02*
G37*
G36*
X340044Y118125D02*
X340044Y118125D01*
X340044Y114956D01*
X336483Y114956D01*
X336483Y115542D01*
G74*
D01*
G02X339273Y118511I2976J1*
G01*
G74*
D01*
G02X337089Y121137I2727J4489*
G01*
X337089Y121137D01*
X340137Y121137D01*
X340137Y118089D01*
G74*
D01*
G02X340044Y118125I1849J4916*
G01*
D02*
G37*
G36*
X340250Y123000D02*
G75*
D01*
G02X340250Y123000I1750J0*
G01*
D02*
G37*
%LPD*%
G36*
X491200Y129107D02*
G75*
D01*
G03X490193Y128100I0J-1007*
G01*
X490193Y128100D01*
X490193Y101007D01*
X474000Y101007D01*
X474000Y148000D01*
X547000Y148000D01*
X547000Y101007D01*
X514107Y101007D01*
X514107Y128100D01*
G74*
D01*
G03X513100Y129107I1007J0*
G01*
X513100Y129107D01*
X491200Y129107D01*
D02*
G37*
%LPC*%
G36*
X537459Y106483D02*
X537459Y106483D01*
X538044Y106483D01*
X538044Y110044D01*
X534483Y110044D01*
X534483Y109459D01*
G75*
D01*
G03X537459Y106483I2976J0*
G01*
D02*
G37*
G36*
X542542Y106483D02*
G75*
D01*
G03X545517Y109459I-1J2976*
G01*
X545517Y109459D01*
X545517Y110044D01*
X541956Y110044D01*
X541956Y106483D01*
X542542Y106483D01*
D02*
G37*
G36*
X538000Y112000D02*
G75*
D01*
G03X538000Y112000I2000J0*
G01*
D02*
G37*
G36*
X535089Y123863D02*
X535089Y123863D01*
X538137Y123863D01*
X538137Y126911D01*
G74*
D01*
G03X535089Y123863I1863J4911*
G01*
D02*
G37*
G36*
X541863Y126911D02*
X541863Y126911D01*
X541863Y123863D01*
X544911Y123863D01*
G74*
D01*
G03X541863Y126911I4911J1863*
G01*
D02*
G37*
G36*
X541956Y117125D02*
X541956Y117125D01*
X541956Y113956D01*
X545517Y113956D01*
X545517Y114542D01*
G74*
D01*
G03X542727Y117511I2975J0*
G01*
G74*
D01*
G03X544911Y120137I2727J4489*
G01*
X544911Y120137D01*
X541863Y120137D01*
X541863Y117089D01*
G74*
D01*
G03X541956Y117125I1849J4916*
G01*
D02*
G37*
G36*
X538044Y117125D02*
G74*
D01*
G03X538137Y117089I1942J4880*
G01*
X538137Y117089D01*
X538137Y120137D01*
X535089Y120137D01*
G74*
D01*
G03X537273Y117511I4911J1863*
G01*
G74*
D01*
G03X534483Y114542I184J2968*
G01*
X534483Y114542D01*
X534483Y113956D01*
X538044Y113956D01*
X538044Y117125D01*
D02*
G37*
G36*
X538250Y122000D02*
G75*
D01*
G03X538250Y122000I1750J0*
G01*
D02*
G37*
%LPD*%
G36*
X394400Y129107D02*
G75*
D01*
G03X393393Y128100I0J-1007*
G01*
X393393Y128100D01*
X393393Y101007D01*
X377000Y101007D01*
X377000Y148000D01*
X445000Y148000D01*
X445000Y101007D01*
X417307Y101007D01*
X417307Y128100D01*
G74*
D01*
G03X416300Y129107I1007J0*
G01*
X416300Y129107D01*
X394400Y129107D01*
D02*
G37*
%LPC*%
G36*
X435459Y108483D02*
X435459Y108483D01*
X436044Y108483D01*
X436044Y112044D01*
X432483Y112044D01*
X432483Y111459D01*
G75*
D01*
G03X435459Y108483I2976J0*
G01*
D02*
G37*
G36*
X440541Y108483D02*
G75*
D01*
G03X443517Y111459I0J2976*
G01*
X443517Y111459D01*
X443517Y112044D01*
X439956Y112044D01*
X439956Y108483D01*
X440541Y108483D01*
D02*
G37*
G36*
X436000Y114000D02*
G75*
D01*
G03X436000Y114000I2000J0*
G01*
D02*
G37*
G36*
X433089Y125863D02*
X433089Y125863D01*
X436137Y125863D01*
X436137Y128911D01*
G74*
D01*
G03X433089Y125863I1863J4911*
G01*
D02*
G37*
G36*
X439863Y128911D02*
X439863Y128911D01*
X439863Y125863D01*
X442911Y125863D01*
G74*
D01*
G03X439863Y128911I4911J1863*
G01*
D02*
G37*
G36*
X439956Y119125D02*
X439956Y119125D01*
X439956Y115956D01*
X443517Y115956D01*
X443517Y116542D01*
G74*
D01*
G03X440727Y119511I2976J1*
G01*
G74*
D01*
G03X442911Y122137I2727J4489*
G01*
X442911Y122137D01*
X439863Y122137D01*
X439863Y119089D01*
G74*
D01*
G03X439956Y119125I1849J4916*
G01*
D02*
G37*
G36*
X436044Y119125D02*
G74*
D01*
G03X436137Y119089I1942J4880*
G01*
X436137Y119089D01*
X436137Y122137D01*
X433089Y122137D01*
G74*
D01*
G03X435273Y119511I4911J1863*
G01*
G74*
D01*
G03X432483Y116542I184J2968*
G01*
X432483Y116542D01*
X432483Y115956D01*
X436044Y115956D01*
X436044Y119125D01*
D02*
G37*
G36*
X436250Y124000D02*
G75*
D01*
G03X436250Y124000I1750J0*
G01*
D02*
G37*
%LPD*%
G36*
X1007Y473993D02*
X1007Y473993D01*
X50000Y473993D01*
X50000Y417000D01*
X1007Y417000D01*
X1007Y473993D01*
D02*
G37*
%LPC*%
G36*
X17498Y448000D02*
G75*
D01*
G03X17498Y448000I8502J0*
G01*
D02*
G37*
%LPD*%
G36*
X686493Y473993D02*
X686493Y473993D01*
X638000Y473993D01*
X638000Y473000D01*
X638000Y473000D01*
X638000Y417000D01*
X686493Y417000D01*
X686493Y473993D01*
D02*
G37*
%LPC*%
G36*
X651798Y447900D02*
G75*
D01*
G02X651798Y447900I8502J0*
G01*
D02*
G37*
%LPD*%
G36*
X686493Y281493D02*
X686493Y281493D01*
X686493Y420000D01*
X678000Y420000D01*
X678000Y148000D01*
X686000Y147000D01*
X686493Y281493D01*
D02*
G37*
G36*
X174005Y468580D02*
X174005Y468580D01*
X174005Y473993D01*
X169995Y473993D01*
X169995Y468580D01*
G75*
D01*
G02X174005Y468580I2005J-4579*
G01*
D02*
G37*
G36*
X114005Y468580D02*
X114005Y468580D01*
X114005Y473993D01*
X109995Y473993D01*
X109995Y468580D01*
G75*
D01*
G02X114005Y468580I2005J-4579*
G01*
D02*
G37*
G54D11*
X651798Y447900D02*
G75*
D01*
G02X651798Y447900I8502J0*
G01*
X686493Y473993D02*
X638000Y473993D01*
X638000Y473000D01*
X638000Y473000D01*
X638000Y417000D01*
X686493Y417000D01*
X686493Y473993D01*
X686493Y281493D02*
X686493Y420000D01*
X678000Y420000D01*
X678000Y148000D01*
X686000Y147000D01*
X686493Y281493D01*
X17498Y448000D02*
G75*
D01*
G03X17498Y448000I8502J0*
G01*
X1007Y473993D02*
X50000Y473993D01*
X50000Y417000D01*
X1007Y417000D01*
X1007Y473993D01*
X435459Y108483D02*
X436044Y108483D01*
X436044Y112044D01*
X432483Y112044D01*
X432483Y111459D01*
G75*
D01*
G03X435459Y108483I2976J0*
G01*
X440541Y108483D02*
G75*
D01*
G03X443517Y111459I0J2976*
G01*
X443517Y112044D01*
X439956Y112044D01*
X439956Y108483D01*
X440541Y108483D01*
X436000Y114000D02*
G75*
D01*
G03X436000Y114000I2000J0*
G01*
X433089Y125863D02*
X436137Y125863D01*
X436137Y128911D01*
G74*
D01*
G03X433089Y125863I1863J4911*
G01*
X439863Y128911D02*
X439863Y125863D01*
X442911Y125863D01*
G74*
D01*
G03X439863Y128911I4911J1863*
G01*
X439956Y119125D02*
X439956Y115956D01*
X443517Y115956D01*
X443517Y116542D01*
G74*
D01*
G03X440727Y119511I2976J1*
G01*
G74*
D01*
G03X442911Y122137I2727J4489*
G01*
X439863Y122137D01*
X439863Y119089D01*
G74*
D01*
G03X439956Y119125I1849J4916*
G01*
X436044Y119125D02*
G74*
D01*
G03X436137Y119089I1942J4880*
G01*
X436137Y122137D01*
X433089Y122137D01*
G74*
D01*
G03X435273Y119511I4911J1863*
G01*
G74*
D01*
G03X432483Y116542I184J2968*
G01*
X432483Y115956D01*
X436044Y115956D01*
X436044Y119125D01*
X436250Y124000D02*
G75*
D01*
G03X436250Y124000I1750J0*
G01*
X394400Y129107D02*
G75*
D01*
G03X393393Y128100I0J-1007*
G01*
X393393Y101007D01*
X377000Y101007D01*
X377000Y148000D01*
X445000Y148000D01*
X445000Y101007D01*
X417307Y101007D01*
X417307Y128100D01*
G74*
D01*
G03X416300Y129107I1007J0*
G01*
X394400Y129107D01*
X339459Y107483D02*
G75*
D01*
G02X336483Y110459I0J2976*
G01*
X336483Y111044D01*
X340044Y111044D01*
X340044Y107483D01*
X339459Y107483D01*
X344542Y107483D02*
X343956Y107483D01*
X343956Y111044D01*
X347517Y111044D01*
X347517Y110459D01*
G75*
D01*
G02X344542Y107483I-2975J-1*
G01*
X340000Y113000D02*
G75*
D01*
G02X340000Y113000I2000J0*
G01*
X337089Y124863D02*
G74*
D01*
G02X340137Y127911I4911J1863*
G01*
X340137Y124863D01*
X337089Y124863D01*
X343863Y127911D02*
G74*
D01*
G02X346911Y124863I1863J4911*
G01*
X343863Y124863D01*
X343863Y127911D01*
X343956Y118125D02*
G74*
D01*
G02X343863Y118089I1942J4880*
G01*
X343863Y121137D01*
X346911Y121137D01*
G74*
D01*
G02X344727Y118511I4911J1863*
G01*
G74*
D01*
G02X347517Y115542I184J2968*
G01*
X347517Y114956D01*
X343956Y114956D01*
X343956Y118125D01*
X340044Y118125D02*
X340044Y114956D01*
X336483Y114956D01*
X336483Y115542D01*
G74*
D01*
G02X339273Y118511I2976J1*
G01*
G74*
D01*
G02X337089Y121137I2727J4489*
G01*
X340137Y121137D01*
X340137Y118089D01*
G74*
D01*
G02X340044Y118125I1849J4916*
G01*
X340250Y123000D02*
G75*
D01*
G02X340250Y123000I1750J0*
G01*
X296493Y128100D02*
G75*
D01*
G02X297500Y129107I1007J0*
G01*
X319400Y129107D01*
G74*
D01*
G02X320407Y128100I0J1007*
G01*
X320407Y101007D01*
X350000Y101007D01*
X350000Y149000D01*
X255000Y149000D01*
X255000Y100000D01*
X283993Y100000D01*
G75*
D01*
G02X285000Y101007I1007J0*
G01*
X296493Y101007D01*
X296493Y128100D01*
X537459Y106483D02*
X538044Y106483D01*
X538044Y110044D01*
X534483Y110044D01*
X534483Y109459D01*
G75*
D01*
G03X537459Y106483I2976J0*
G01*
X542542Y106483D02*
G75*
D01*
G03X545517Y109459I-1J2976*
G01*
X545517Y110044D01*
X541956Y110044D01*
X541956Y106483D01*
X542542Y106483D01*
X538000Y112000D02*
G75*
D01*
G03X538000Y112000I2000J0*
G01*
X535089Y123863D02*
X538137Y123863D01*
X538137Y126911D01*
G74*
D01*
G03X535089Y123863I1863J4911*
G01*
X541863Y126911D02*
X541863Y123863D01*
X544911Y123863D01*
G74*
D01*
G03X541863Y126911I4911J1863*
G01*
X541956Y117125D02*
X541956Y113956D01*
X545517Y113956D01*
X545517Y114542D01*
G74*
D01*
G03X542727Y117511I2975J0*
G01*
G74*
D01*
G03X544911Y120137I2727J4489*
G01*
X541863Y120137D01*
X541863Y117089D01*
G74*
D01*
G03X541956Y117125I1849J4916*
G01*
X538044Y117125D02*
G74*
D01*
G03X538137Y117089I1942J4880*
G01*
X538137Y120137D01*
X535089Y120137D01*
G74*
D01*
G03X537273Y117511I4911J1863*
G01*
G74*
D01*
G03X534483Y114542I184J2968*
G01*
X534483Y113956D01*
X538044Y113956D01*
X538044Y117125D01*
X538250Y122000D02*
G75*
D01*
G03X538250Y122000I1750J0*
G01*
X491200Y129107D02*
G75*
D01*
G03X490193Y128100I0J-1007*
G01*
X490193Y101007D01*
X474000Y101007D01*
X474000Y148000D01*
X547000Y148000D01*
X547000Y101007D01*
X514107Y101007D01*
X514107Y128100D01*
G74*
D01*
G03X513100Y129107I1007J0*
G01*
X491200Y129107D01*
X1007Y1007D02*
X283993Y1007D01*
X283993Y92000D01*
X265000Y92000D01*
X265000Y19000D01*
X18000Y19000D01*
X18000Y420000D01*
X1007Y420000D01*
X1007Y1007D01*
X174005Y468580D02*
X174005Y473993D01*
X169995Y473993D01*
X169995Y468580D01*
G75*
D01*
G02X174005Y468580I2005J-4579*
G01*
X114005Y468580D02*
X114005Y473993D01*
X109995Y473993D01*
X109995Y468580D01*
G75*
D01*
G02X114005Y468580I2005J-4579*
G01*
X463438Y470053D02*
X465491Y468000D01*
X463438Y465947D01*
G75*
D01*
G02X463438Y470053I4561J2053*
G01*
X465947Y472562D02*
G75*
D01*
G02X470053Y472562I2053J-4561*
G01*
X468000Y470509D01*
X465947Y472562D01*
X472562Y470053D02*
G75*
D01*
G02X472562Y465947I-4561J-2053*
G01*
X470509Y468000D01*
X472562Y470053D01*
X470053Y463438D02*
G75*
D01*
G02X465947Y463438I-2053J4561*
G01*
X468000Y465491D01*
X470053Y463438D01*
X466250Y468000D02*
G75*
D01*
G02X466250Y468000I1750J0*
G01*
X515438Y470053D02*
X517491Y468000D01*
X515438Y465947D01*
G75*
D01*
G02X515438Y470053I4561J2053*
G01*
X517947Y472562D02*
G75*
D01*
G02X522053Y472562I2053J-4561*
G01*
X520000Y470509D01*
X517947Y472562D01*
X524562Y470053D02*
G75*
D01*
G02X524562Y465947I-4561J-2053*
G01*
X522509Y468000D01*
X524562Y470053D01*
X522053Y463438D02*
G75*
D01*
G02X517947Y463438I-2053J4561*
G01*
X520000Y465491D01*
X522053Y463438D01*
X518250Y468000D02*
G75*
D01*
G02X518250Y468000I1750J0*
G01*
X569438Y470053D02*
X571491Y468000D01*
X569438Y465947D01*
G75*
D01*
G02X569438Y470053I4561J2053*
G01*
X571947Y472562D02*
G75*
D01*
G02X576053Y472562I2053J-4561*
G01*
X574000Y470509D01*
X571947Y472562D01*
X578562Y470053D02*
G75*
D01*
G02X578562Y465947I-4561J-2053*
G01*
X576509Y468000D01*
X578562Y470053D01*
X576053Y463438D02*
G75*
D01*
G02X571947Y463438I-2053J4561*
G01*
X574000Y465491D01*
X576053Y463438D01*
X572250Y468000D02*
G75*
D01*
G02X572250Y468000I1750J0*
G01*
X621438Y470053D02*
X623491Y468000D01*
X621438Y465947D01*
G75*
D01*
G02X621438Y470053I4561J2053*
G01*
X623947Y472562D02*
G75*
D01*
G02X628053Y472562I2053J-4561*
G01*
X626000Y470509D01*
X623947Y472562D01*
X630562Y470053D02*
G75*
D01*
G02X630562Y465947I-4561J-2053*
G01*
X628509Y468000D01*
X630562Y470053D01*
X628053Y463438D02*
G75*
D01*
G02X623947Y463438I-2053J4561*
G01*
X626000Y465491D01*
X628053Y463438D01*
X624250Y468000D02*
G75*
D01*
G02X624250Y468000I1750J0*
G01*
X167395Y473993D02*
X116605Y473993D01*
G74*
D01*
G02X122818Y466005I4606J9993*
G01*
X116580Y466005D01*
G75*
D01*
G02X116580Y461995I-4579J-2005*
G01*
X122818Y461995D01*
G74*
D01*
G02X114005Y453182I10818J2005*
G01*
X114005Y459420D01*
G75*
D01*
G02X109995Y459420I-2005J4579*
G01*
X109995Y453182D01*
G74*
D01*
G02X101182Y461995I2005J10818*
G01*
X107420Y461995D01*
G75*
D01*
G02X107420Y466005I4579J2005*
G01*
X101182Y466005D01*
G74*
D01*
G02X107395Y473993I10818J2004*
G01*
X49700Y473993D01*
X49700Y452000D01*
X641000Y452000D01*
X640000Y473993D01*
X176605Y473993D01*
G74*
D01*
G02X182818Y466005I4606J9993*
G01*
X176580Y466005D01*
G75*
D01*
G02X176580Y461995I-4579J-2005*
G01*
X182818Y461995D01*
G74*
D01*
G02X174005Y453182I10818J2005*
G01*
X174005Y459420D01*
G75*
D01*
G02X169995Y459420I-2005J4579*
G01*
X169995Y453182D01*
G74*
D01*
G02X161182Y461995I2005J10818*
G01*
X167420Y461995D01*
G75*
D01*
G02X167420Y466005I4579J2005*
G01*
X161182Y466005D01*
G74*
D01*
G02X167395Y473993I10818J2004*
G01*
X633459Y106483D02*
X634044Y106483D01*
X634044Y110044D01*
X630483Y110044D01*
X630483Y109459D01*
G75*
D01*
G03X633459Y106483I2976J0*
G01*
X638542Y106483D02*
G75*
D01*
G03X641517Y109459I-1J2976*
G01*
X641517Y110044D01*
X637956Y110044D01*
X637956Y106483D01*
X638542Y106483D01*
X634000Y112000D02*
G75*
D01*
G03X634000Y112000I2000J0*
G01*
X631089Y123863D02*
X634137Y123863D01*
X634137Y126911D01*
G74*
D01*
G03X631089Y123863I1863J4911*
G01*
X637863Y126911D02*
X637863Y123863D01*
X640911Y123863D01*
G74*
D01*
G03X637863Y126911I4911J1863*
G01*
X637956Y117125D02*
X637956Y113956D01*
X641517Y113956D01*
X641517Y114542D01*
G74*
D01*
G03X638727Y117511I2975J0*
G01*
G74*
D01*
G03X640911Y120137I2727J4489*
G01*
X637863Y120137D01*
X637863Y117089D01*
G74*
D01*
G03X637956Y117125I1849J4916*
G01*
X634044Y117125D02*
G74*
D01*
G03X634137Y117089I1942J4880*
G01*
X634137Y120137D01*
X631089Y120137D01*
G74*
D01*
G03X633273Y117511I4911J1863*
G01*
G74*
D01*
G03X630483Y114542I184J2968*
G01*
X630483Y113956D01*
X634044Y113956D01*
X634044Y117125D01*
X634250Y122000D02*
G75*
D01*
G03X634250Y122000I1750J0*
G01*
X588100Y129107D02*
G75*
D01*
G03X587093Y128100I0J-1007*
G01*
X587093Y101007D01*
X566000Y101007D01*
X566000Y157800D01*
X686000Y157900D01*
X686493Y126261D01*
X686493Y101007D01*
X611007Y101007D01*
X611007Y128100D01*
G74*
D01*
G03X610000Y129107I1007J0*
G01*
X588100Y129107D01*
G54D12*
X397950Y298000D02*
X394000Y298000D01*
X473000Y354000D02*
X407000Y288000D01*
X394000Y288000D01*
X473000Y354000D02*
X473000Y355000D01*
X344000Y388000D02*
X329800Y402200D01*
X329800Y408900D01*
X214000Y116000D02*
X163000Y116000D01*
X482800Y288550D02*
X517300Y323050D01*
X482800Y283750D02*
X482800Y288550D01*
X472000Y286000D02*
X519450Y333450D01*
X568550Y333450D01*
X171900Y56700D02*
X171900Y87100D01*
X163000Y96000D01*
X397950Y298000D02*
X463250Y363300D01*
X622700Y363300D01*
X631000Y355000D01*
X69643Y235943D02*
X69643Y236357D01*
X62250Y228550D02*
X69643Y235943D01*
X69643Y236357D02*
X70000Y236000D01*
X601800Y310700D02*
X514156Y310700D01*
X643600Y232293D02*
X643307Y232000D01*
X632000Y232000D02*
X643307Y232000D01*
X60000Y262293D02*
X60000Y308000D01*
X643600Y266800D02*
X632158Y278242D01*
X643600Y232293D02*
X643600Y266800D01*
X632158Y278242D02*
X565600Y278242D01*
X49200Y180900D02*
X31800Y180900D01*
X62000Y204000D02*
X62000Y193700D01*
X49200Y180900D01*
X91500Y46000D02*
X101200Y36300D01*
X101200Y28700D01*
X91500Y46000D02*
X86000Y46000D01*
X100000Y182744D02*
X100000Y178000D01*
X115950Y235950D02*
X140000Y260000D01*
X115950Y200200D02*
X115950Y235950D01*
X115978Y199922D02*
X115978Y198722D01*
X100000Y182744D01*
X512600Y276000D02*
X498000Y276000D01*
X525700Y262900D02*
X512600Y276000D01*
X525700Y258300D02*
X525700Y262900D01*
X525714Y256323D02*
X525714Y258286D01*
X110000Y54000D02*
X106000Y50000D01*
X112000Y56000D02*
X110000Y54000D01*
X106000Y50000D02*
X60000Y50000D01*
X112000Y112000D02*
X112000Y56000D01*
X116050Y116050D02*
X112000Y112000D01*
X163950Y116050D02*
X116050Y116050D01*
X163950Y116050D02*
X164000Y116000D01*
X163000Y96000D02*
X163000Y106000D01*
X216000Y326700D02*
X216000Y316000D01*
X216000Y326700D02*
X201200Y341500D01*
X201200Y366407D01*
X204893Y370100D01*
X211900Y370100D01*
X212000Y370000D01*
X183100Y246900D02*
X170000Y260000D01*
X183100Y221600D02*
X183100Y246900D01*
X212000Y192700D02*
X183100Y221600D01*
X212000Y176000D02*
X212000Y192700D01*
X216000Y257100D02*
X216000Y276000D01*
X226000Y247100D02*
X216000Y257100D01*
X226000Y230000D02*
X226000Y247100D01*
X222000Y226000D02*
X226000Y230000D01*
X219000Y226000D02*
X222000Y226000D01*
X62250Y228550D02*
X62250Y206000D01*
X60000Y262000D02*
X83900Y262000D01*
X37750Y262000D02*
X59707Y262000D01*
X60000Y262293D01*
X83900Y262000D02*
X92200Y270300D01*
X37750Y262000D02*
X33800Y265950D01*
X92200Y270300D02*
X139700Y270300D01*
X33800Y265950D02*
X33800Y284900D01*
X139700Y270300D02*
X140000Y270000D01*
X442000Y268000D02*
X394000Y268000D01*
X448000Y274000D02*
X442000Y268000D01*
X448000Y320000D02*
X448000Y274000D01*
X411800Y258000D02*
X394000Y258000D01*
X415900Y262100D02*
X411800Y258000D01*
X450100Y262100D02*
X415900Y262100D01*
X452000Y264000D02*
X450100Y262100D01*
X452000Y328000D02*
X452000Y264000D01*
X454000Y330000D02*
X452000Y328000D01*
X510000Y330000D02*
X454000Y330000D01*
X512000Y332000D02*
X510000Y330000D01*
X512000Y350000D02*
X512000Y332000D01*
X514000Y352000D02*
X512000Y350000D01*
X522000Y352000D02*
X514000Y352000D01*
X525000Y355000D02*
X522000Y352000D01*
X364000Y298000D02*
X351600Y298000D01*
X337200Y283600D01*
X329100Y283600D01*
X328000Y284700D01*
X326900Y283600D02*
X328000Y284700D01*
X326900Y283600D02*
X307200Y283600D01*
X298000Y292800D01*
X298000Y338000D01*
X300000Y340000D01*
X376000Y340000D01*
X378000Y342000D01*
X378000Y352000D01*
X587607Y235000D02*
X565720Y235000D01*
X590900Y238293D02*
X587607Y235000D01*
X590900Y265900D02*
X590900Y238293D01*
X596000Y271000D02*
X590900Y265900D01*
X621000Y271000D02*
X596000Y271000D01*
X626000Y266000D02*
X621000Y271000D01*
X626000Y256000D02*
X626000Y266000D01*
X630000Y252000D02*
X626000Y256000D01*
X632000Y252000D02*
X630000Y252000D01*
X572134Y213666D02*
X565714Y213666D01*
X576100Y209700D02*
X572134Y213666D01*
X576100Y196293D02*
X576100Y209700D01*
X576100Y196293D02*
X582993Y189400D01*
X617400Y189400D02*
X582993Y189400D01*
X620000Y192000D02*
X617400Y189400D01*
X620000Y216900D02*
X620000Y192000D01*
X625100Y222000D02*
X620000Y216900D01*
X632000Y222000D02*
X625100Y222000D01*
X476650Y226000D02*
X468000Y226000D01*
X487750Y237100D02*
X476650Y226000D01*
X487750Y284294D02*
X487750Y237100D01*
X514156Y310700D02*
X487750Y284294D01*
X614100Y323000D02*
X601800Y310700D01*
X631000Y323000D02*
X614100Y323000D01*
X472000Y286000D02*
X468000Y286000D01*
X568550Y333450D02*
X579000Y323000D01*
X475050Y276000D02*
X468000Y276000D01*
X475050Y276000D02*
X482800Y283750D01*
X524950Y323050D02*
X517300Y323050D01*
X524950Y323050D02*
X525000Y323000D01*
X459600Y236000D02*
X468000Y236000D01*
X454700Y240900D02*
X459600Y236000D01*
X454700Y302700D02*
X454700Y240900D01*
X473000Y321000D02*
X454700Y302700D01*
X473000Y323000D02*
X473000Y321000D01*
X504800Y226000D02*
X498000Y226000D01*
X510100Y220700D02*
X504800Y226000D01*
X510100Y177400D02*
X510100Y220700D01*
X516700Y170800D02*
X510100Y177400D01*
X525791Y170800D02*
X516700Y170800D01*
X525791Y170800D02*
X526000Y171009D01*
X34100Y312300D02*
X33800Y312000D01*
G54D13*
X384000Y244800D02*
X370800Y258000D01*
X364000Y258000D01*
X329800Y436000D02*
X306700Y436000D01*
X306700Y373300D02*
X306700Y455100D01*
X306700Y373300D02*
X313000Y367000D01*
X353000Y367000D01*
X368000Y352000D01*
X33800Y312000D02*
X16400Y312000D01*
X31800Y208000D02*
X13700Y208000D01*
X148900Y146000D02*
X148900Y146500D01*
X141500Y153900D01*
X121700Y454300D02*
X112000Y464000D01*
X138000Y404000D02*
X138000Y384300D01*
X137900Y384200D01*
X141500Y153900D02*
X93800Y153900D01*
X77900Y138000D01*
X140000Y220000D02*
X140000Y154300D01*
X139600Y153900D01*
X170000Y146000D02*
X149000Y146000D01*
X148900Y146100D01*
X43400Y138000D02*
X77900Y138000D01*
X26200Y120800D02*
X26200Y53400D01*
X43400Y138000D02*
X26200Y120800D01*
X26200Y53400D02*
X47300Y32300D01*
X242000Y267000D02*
X239000Y270000D01*
X236000Y270000D01*
X234000Y272000D01*
X234000Y324800D01*
X212000Y346800D01*
X212000Y360000D01*
X394000Y318000D02*
X394000Y330000D01*
X390000Y334000D01*
X304000Y334000D01*
X197950Y290050D02*
X192050Y290050D01*
X204000Y284000D02*
X197950Y290050D01*
X204000Y240000D02*
X204000Y284000D01*
X207950Y236050D02*
X204000Y240000D01*
X215950Y236050D02*
X207950Y236050D01*
X218000Y236000D02*
X216000Y236000D01*
X384000Y232000D02*
X384000Y244800D01*
G54D14*
X92000Y116000D02*
X96000Y120000D01*
X219000Y216000D02*
X273000Y216000D01*
X274000Y217000D01*
X92000Y116000D02*
X38800Y116000D01*
G54D15*
X389000Y176000D02*
X389000Y227000D01*
X384000Y232000D01*
X465500Y175500D02*
X478000Y188000D01*
X137900Y404121D02*
X137900Y326100D01*
X150000Y314000D01*
X389100Y176100D02*
X464700Y176100D01*
G54D16*
X214000Y96000D02*
X162700Y96000D01*
X96000Y100000D02*
X89700Y106300D01*
X39100Y106300D01*
G54D17*
X122000Y454000D02*
X121700Y454300D01*
X122000Y420000D02*
X122000Y454000D01*
X122000Y420000D02*
X138000Y404000D01*
X137900Y384200D02*
X147600Y384200D01*
X162400Y399000D01*
X162400Y418900D01*
X183200Y439700D01*
X210800Y439700D01*
X209600Y440000D02*
X221500Y428100D01*
X221500Y393400D01*
X275500Y339400D01*
X275500Y252700D01*
G54D18*
X235000Y440000D02*
X235000Y399400D01*
X289700Y180300D02*
X289700Y344700D01*
X235000Y399400D02*
X289700Y344700D01*
X289700Y180300D02*
X294000Y176000D01*
G54D19*
X-1000Y-1000D02*
X-1000Y46700D01*
X-1000Y-1000D02*
X67950Y-1000D01*
X688500Y-1000D02*
X619550Y-1000D01*
X688500Y-1000D02*
X688500Y46700D01*
X688500Y476000D02*
X688500Y428300D01*
X688500Y476000D02*
X619550Y476000D01*
X-1000Y476000D02*
X67950Y476000D01*
X-1000Y476000D02*
X-1000Y428300D01*
X-20685Y-1000D02*
X-60055Y-1000D01*
X-40370Y-20685D02*
X-40370Y18685D01*
X-55134Y-1000D02*
G75*
D01*
G02X-55134Y-1000I14764J0*
G01*
X708185Y-1000D02*
X747555Y-1000D01*
X727870Y-20685D02*
X727870Y18685D01*
X713106Y-1000D02*
G75*
D01*
G02X713106Y-1000I14764J0*
G01*
X722949Y-1000D02*
G75*
D01*
G02X722949Y-1000I4921J0*
G01*
X-20685Y476000D02*
X-60055Y476000D01*
X-40370Y456315D02*
X-40370Y495685D01*
X-55134Y476000D02*
G75*
D01*
G02X-55134Y476000I14764J0*
G01*
X-50213Y476000D02*
G75*
D01*
G02X-50213Y476000I9843J0*
G01*
X-45291Y476000D02*
G75*
D01*
G02X-45291Y476000I4921J0*
G01*
G54D20*
X90000Y178000D03*
X100000Y178000D03*
X62000Y214000D03*
X140000Y220000D03*
X170000Y220000D03*
X140000Y230000D03*
X170000Y230000D03*
X140000Y240000D03*
X170000Y240000D03*
X140000Y250000D03*
X170000Y250000D03*
X140000Y260000D03*
X170000Y260000D03*
X140000Y270000D03*
X170000Y270000D03*
X140000Y280000D03*
X170000Y280000D03*
X140000Y290000D03*
X170000Y290000D03*
X160000Y314000D03*
X150000Y314000D03*
X202000Y176000D03*
X212000Y176000D03*
X242000Y267000D03*
X242000Y292000D03*
X60000Y298000D03*
X372000Y422000D03*
X468000Y216000D03*
X498000Y216000D03*
X468000Y226000D03*
X498000Y226000D03*
X468000Y236000D03*
X498000Y236000D03*
X468000Y246000D03*
X498000Y246000D03*
X468000Y256000D03*
X498000Y256000D03*
X468000Y266000D03*
X498000Y266000D03*
X468000Y276000D03*
X498000Y276000D03*
X468000Y286000D03*
X498000Y286000D03*
X488000Y188000D03*
X478000Y188000D03*
X196000Y50000D03*
X535000Y323000D03*
X589000Y323000D03*
X641000Y323000D03*
X274000Y410000D03*
X284000Y410000D03*
X294000Y410000D03*
X264000Y440000D03*
X274000Y440000D03*
X284000Y440000D03*
X294000Y440000D03*
X641000Y355000D03*
X483000Y355000D03*
X438000Y124000D03*
X540000Y122000D03*
X636000Y122000D03*
X602000Y202000D03*
X632000Y202000D03*
X602000Y212000D03*
X632000Y212000D03*
X602000Y222000D03*
X632000Y222000D03*
X602000Y232000D03*
X632000Y232000D03*
X602000Y242000D03*
X632000Y242000D03*
X602000Y252000D03*
X632000Y252000D03*
X602000Y262000D03*
X632000Y262000D03*
X246000Y82000D03*
X256000Y82000D03*
X535000Y355000D03*
X520667Y392000D03*
X530667Y392000D03*
X468000Y392000D03*
X478000Y392000D03*
X573333Y392000D03*
X583333Y392000D03*
X626000Y392000D03*
X636000Y392000D03*
X589000Y355000D03*
X304000Y334000D03*
X483000Y323000D03*
X124000Y142000D03*
X238000Y140000D03*
X246000Y38000D03*
X384000Y232000D03*
X374000Y232000D03*
X364000Y258000D03*
X394000Y258000D03*
X364000Y268000D03*
X394000Y268000D03*
X364000Y278000D03*
X394000Y278000D03*
X364000Y288000D03*
X394000Y288000D03*
X364000Y298000D03*
X394000Y298000D03*
X364000Y308000D03*
X394000Y308000D03*
X364000Y318000D03*
X394000Y318000D03*
X398000Y388724D03*
X398000Y434000D03*
X212000Y360000D03*
X342000Y123000D03*
X366000Y123000D03*
G54D21*
X62000Y178000D03*
X62000Y138000D03*
X110000Y236000D03*
X70000Y236000D03*
X110000Y262000D03*
X70000Y262000D03*
X192000Y290000D03*
X192000Y250000D03*
X170000Y186000D03*
X170000Y146000D03*
X216000Y276000D03*
X216000Y316000D03*
X626000Y428000D03*
X626000Y468000D03*
X468000Y428000D03*
X468000Y468000D03*
X344000Y348000D03*
X344000Y388000D03*
X442000Y296000D03*
X442000Y256000D03*
X566000Y298980D03*
X526000Y298980D03*
X565714Y256323D03*
X525714Y256323D03*
X565714Y234994D03*
X525714Y234994D03*
X565714Y213666D03*
X525714Y213666D03*
X566000Y171009D03*
X526000Y171009D03*
X328000Y324000D03*
X328000Y284000D03*
X566000Y277651D03*
X526000Y277651D03*
X520000Y428000D03*
X520000Y468000D03*
X574000Y428000D03*
X574000Y468000D03*
X132000Y439000D03*
X142000Y439000D03*
X152000Y439000D03*
X162000Y439000D03*
X565714Y192337D03*
X525714Y192337D03*
G54D22*
X39000Y106000D03*
X39000Y116000D03*
X39000Y96000D03*
X219000Y236000D03*
X219000Y226000D03*
X219000Y216000D03*
X163000Y106000D03*
X163000Y116000D03*
X163000Y96000D03*
G54D23*
X31800Y208000D03*
X31800Y180900D03*
X33800Y312000D03*
X33800Y284900D03*
X329800Y436000D03*
X329800Y408900D03*
G54D24*
X62000Y204000D03*
X60000Y308000D03*
X372000Y412000D03*
X196000Y40000D03*
X525000Y323000D03*
X579000Y323000D03*
X631000Y323000D03*
X631000Y355000D03*
X473000Y355000D03*
X438000Y114000D03*
X540000Y112000D03*
X636000Y112000D03*
X525000Y355000D03*
X579000Y355000D03*
X304000Y324000D03*
X473000Y323000D03*
X124000Y132000D03*
X238000Y130000D03*
X246000Y28000D03*
X212000Y370000D03*
X342000Y113000D03*
X366000Y113000D03*
G54D25*
X59459Y201459D02*
X64541Y201459D01*
X64541Y206541D01*
X59459Y206541D01*
X59459Y201459D01*D02*
X57459Y305459D02*
X62541Y305459D01*
X62541Y310541D01*
X57459Y310541D01*
X57459Y305459D01*D02*
X369459Y409459D02*
X374541Y409459D01*
X374541Y414541D01*
X369459Y414541D01*
X369459Y409459D01*D02*
X193459Y37459D02*
X198541Y37459D01*
X198541Y42541D01*
X193459Y42541D01*
X193459Y37459D01*D02*
X522459Y320459D02*
X527541Y320459D01*
X527541Y325541D01*
X522459Y325541D01*
X522459Y320459D01*D02*
X576459Y320459D02*
X581541Y320459D01*
X581541Y325541D01*
X576459Y325541D01*
X576459Y320459D01*D02*
X628459Y320459D02*
X633541Y320459D01*
X633541Y325541D01*
X628459Y325541D01*
X628459Y320459D01*D02*
X628459Y352459D02*
X633541Y352459D01*
X633541Y357541D01*
X628459Y357541D01*
X628459Y352459D01*D02*
X470459Y352459D02*
X475541Y352459D01*
X475541Y357541D01*
X470459Y357541D01*
X470459Y352459D01*D02*
X435459Y111459D02*
X440541Y111459D01*
X440541Y116541D01*
X435459Y116541D01*
X435459Y111459D01*D02*
X537459Y109459D02*
X542541Y109459D01*
X542541Y114541D01*
X537459Y114541D01*
X537459Y109459D01*D02*
X633459Y109459D02*
X638541Y109459D01*
X638541Y114541D01*
X633459Y114541D01*
X633459Y109459D01*D02*
X522459Y352459D02*
X527541Y352459D01*
X527541Y357541D01*
X522459Y357541D01*
X522459Y352459D01*D02*
X576459Y352459D02*
X581541Y352459D01*
X581541Y357541D01*
X576459Y357541D01*
X576459Y352459D01*D02*
X301459Y321459D02*
X306541Y321459D01*
X306541Y326541D01*
X301459Y326541D01*
X301459Y321459D01*D02*
X470459Y320459D02*
X475541Y320459D01*
X475541Y325541D01*
X470459Y325541D01*
X470459Y320459D01*D02*
X121459Y129459D02*
X126541Y129459D01*
X126541Y134541D01*
X121459Y134541D01*
X121459Y129459D01*D02*
X235459Y127459D02*
X240541Y127459D01*
X240541Y132541D01*
X235459Y132541D01*
X235459Y127459D01*D02*
X243459Y25459D02*
X248541Y25459D01*
X248541Y30541D01*
X243459Y30541D01*
X243459Y25459D01*D02*
X209459Y367459D02*
X214541Y367459D01*
X214541Y372541D01*
X209459Y372541D01*
X209459Y367459D01*D02*
X339459Y110459D02*
X344541Y110459D01*
X344541Y115541D01*
X339459Y115541D01*
X339459Y110459D01*D02*
X363459Y110459D02*
X368541Y110459D01*
X368541Y115541D01*
X363459Y115541D01*
X363459Y110459D01*D02*
G54D26*
X373000Y347000D03*
X368000Y352000D03*
X378000Y352000D03*
G54D27*
X264000Y410000D03*
G54D28*
X261417Y407417D02*
X266583Y407417D01*
X266583Y412583D01*
X261417Y412583D01*
X261417Y407417D01*D02*
G54D29*
X389000Y176000D03*
X294000Y176000D03*
G54D30*
X138000Y404000D03*
X148000Y404000D03*
G54D31*
X172000Y464000D03*
X112000Y464000D03*
G54D32*
X122000Y439000D03*
G54D33*
X96000Y120000D03*
X214000Y116000D03*
X214000Y96000D03*
X96000Y100000D03*
X274000Y217000D03*
X274000Y237000D03*
G54D34*
X110000Y54000D03*
X60000Y50000D03*
X86000Y46000D03*
X101000Y28000D03*
X171900Y56700D03*
X448000Y320000D03*
X235000Y440000D03*
X47000Y32000D03*
X275000Y252000D03*

M02*
