M48
INCH,TZ
VER,1
FMAT,2
DETECT,ON
ATC,ON
T1C0.15000
T2C0.03500
T3C0.04000
T4C0.05000
T5C0.04333
T6C0.10000
T7C0.03937
T8C0.03000
T9C0.02362
%
T1
X26000Y448000
X660300Y447900
T2
X90000Y178000
X100000
X62000
Y138000
Y214000
X110000Y236000
X70000
X110000Y262000
X70000
X140000Y220000
X170000
X140000Y230000
X170000
X140000Y240000
X170000
X140000Y250000
X170000
X140000Y260000
X170000
X140000Y270000
X170000
X140000Y280000
X170000
X140000Y290000
X170000
X160000Y314000
X150000
X192000Y290000
Y250000
X202000Y176000
X212000
X170000Y186000
Y146000
X216000Y276000
Y316000
X242000Y267000
Y292000
X60000Y298000
X626000Y428000
Y468000
X468000Y428000
Y468000
X344000Y348000
Y388000
X372000Y422000
X442000Y296000
Y256000
X468000Y216000
X498000
X468000Y226000
X498000
X468000Y236000
X498000
X468000Y246000
X498000
X468000Y256000
X498000
X468000Y266000
X498000
X468000Y276000
X498000
X468000Y286000
X498000
X488000Y188000
X478000
X196000Y50000
X535000Y323000
X566000Y298980
X526000
X565714Y256323
X525714
X565714Y234994
X525714
X565714Y213666
X525714
X566000Y171009
X526000
X589000Y323000
X641000
X264000Y410000
X274000
X284000
X294000
X264000Y440000
X274000
X284000
X294000
X641000Y355000
X483000
X438000Y124000
X540000Y122000
X636000
X602000Y202000
X632000
X602000Y212000
X632000
X602000Y222000
X632000
X602000Y232000
X632000
X602000Y242000
X632000
X602000Y252000
X632000
X602000Y262000
X632000
X246000Y82000
X256000
X535000Y355000
X520667Y392000
X530667
X468000
X478000
X573333
X583333
X626000
X636000
X589000Y355000
X304000Y334000
X483000Y323000
X124000Y142000
X238000Y140000
X246000Y38000
X328000Y324000
Y284000
X384000Y232000
X374000
X364000Y258000
X394000
X364000Y268000
X394000
X364000Y278000
X394000
X364000Y288000
X394000
X364000Y298000
X394000
X364000Y308000
X394000
X364000Y318000
X394000
X138000Y404000
X148000
X566000Y277651
X526000
X520000Y428000
Y468000
X574000Y428000
Y468000
X398000Y388724
Y434000
X212000Y360000
X342000Y123000
X366000
X565714Y192337
X525714
T3
X39000Y106000
Y116000
Y96000
X62000Y204000
X219000Y236000
Y226000
Y216000
X60000Y308000
X373000Y347000
X368000Y352000
X378000
X372000Y412000
X196000Y40000
X163000Y106000
Y116000
Y96000
X525000Y323000
X579000
X631000
Y355000
X473000
X438000Y114000
X540000Y112000
X636000
X525000Y355000
X579000
X304000Y324000
X473000Y323000
X124000Y132000
X238000Y130000
X246000Y28000
X212000Y370000
X342000Y113000
X366000
T4
X31800Y208000
Y180900
X33800Y312000
Y284900
X329800Y436000
Y408900
T5
X389000Y176000
X294000
T6
X172000Y464000
X112000
T7
X122000Y439000
X132000
X142000
X152000
X162000
T8
X96000Y120000
X214000Y116000
Y96000
X96000Y100000
X274000Y217000
Y237000
T9
X110000Y54000
X60000Y50000
X86000Y46000
X101000Y28000
X171900Y56700
X448000Y320000
X235000Y440000
X47000Y32000
X275000Y252000
M30
