G04 Generated by Ultiboard 14.0 *
%FSLAX24Y24*%
%MOIN*%

%ADD10C,0.0001*%
%ADD11C,0.0150*%
%ADD12C,0.0061*%
%ADD13C,0.0001*%
%ADD14C,0.0067*%
%ADD15C,0.0037*%
%ADD16C,0.0001*%
%ADD17C,0.0111*%
%ADD18C,0.0080*%
%ADD19C,0.0079*%
%ADD20C,0.0197*%
%ADD21C,0.0098*%
%ADD22C,0.0100*%
%ADD23C,0.0059*%
%ADD24C,0.0039*%
%ADD25C,0.0022*%
%ADD26C,0.0050*%
%ADD27C,0.23000*%
%ADD28C,0.01969*%
%ADD29C,0.03937*%


G04 ColorRGB FFFF66 for the following layer *
%LNSilkscreen Top*%
%LPD*%
G54D10*
G54D11*
X1118Y22776D02*
X7500Y22776D01*
X7500Y17000D01*
X1118Y17000D01*
X1118Y22776D01*
X900Y32500D02*
X7500Y32500D01*
X7500Y27600D01*
X900Y27600D01*
X900Y32500D01*
X31818Y44876D02*
X38418Y44876D01*
X38418Y39976D01*
X31818Y39976D01*
X31818Y44876D01*
X19618Y25600D02*
X28500Y25600D01*
X28500Y19824D01*
X19618Y19824D01*
X19618Y25600D01*
X13478Y13776D02*
X22360Y13776D01*
X22360Y8000D01*
X13478Y8000D01*
X13478Y13776D01*
X1678Y13776D02*
X10560Y13776D01*
X10560Y8000D01*
X1678Y8000D01*
X1678Y13776D01*
X26690Y34640D02*
X31700Y34640D01*
X31700Y30790D01*
X26690Y30790D01*
X26690Y34640D01*
X19661Y2105D02*
X19803Y2145D01*
X19940Y2223D01*
X20072Y2339D01*
X20196Y2491D01*
X20309Y2676D01*
X20410Y2890D01*
X20496Y3131D01*
X20568Y3394D01*
X20622Y3674D01*
X20659Y3967D01*
X20678Y4268D01*
X20678Y4572D01*
X20659Y4873D01*
X20622Y5166D01*
X20568Y5446D01*
X20496Y5709D01*
X20410Y5950D01*
X20309Y6164D01*
X20196Y6349D01*
X20072Y6501D01*
X19940Y6617D01*
X19803Y6695D01*
X19661Y6735D01*
X19519Y6735D01*
X19377Y6695D01*
X19240Y6617D01*
X19108Y6501D01*
X18984Y6349D01*
X18871Y6164D01*
X18770Y5950D01*
X18684Y5709D01*
X18612Y5446D01*
X18558Y5166D01*
X18521Y4873D01*
X18502Y4572D01*
X18502Y4268D01*
X18521Y3967D01*
X18558Y3674D01*
X18612Y3394D01*
X18684Y3131D01*
X18770Y2890D01*
X18871Y2676D01*
X18984Y2491D01*
X19108Y2339D01*
X19240Y2223D01*
X19377Y2145D01*
X19519Y2105D01*
X19661Y2105D01*
X11950Y15870D02*
X12630Y15870D01*
X21171Y34145D02*
X21313Y34185D01*
X21450Y34263D01*
X21582Y34379D01*
X21706Y34531D01*
X21819Y34716D01*
X21920Y34930D01*
X22006Y35171D01*
X22078Y35434D01*
X22132Y35714D01*
X22169Y36007D01*
X22188Y36308D01*
X22188Y36612D01*
X22169Y36913D01*
X22132Y37206D01*
X22078Y37486D01*
X22006Y37749D01*
X21920Y37990D01*
X21819Y38204D01*
X21706Y38389D01*
X21582Y38541D01*
X21450Y38657D01*
X21313Y38735D01*
X21171Y38775D01*
X21029Y38775D01*
X20887Y38735D01*
X20750Y38657D01*
X20618Y38541D01*
X20494Y38389D01*
X20381Y38204D01*
X20280Y37990D01*
X20194Y37749D01*
X20122Y37486D01*
X20068Y37206D01*
X20031Y36913D01*
X20012Y36612D01*
X20012Y36308D01*
X20031Y36007D01*
X20068Y35714D01*
X20122Y35434D01*
X20194Y35171D01*
X20280Y34930D01*
X20381Y34716D01*
X20494Y34531D01*
X20618Y34379D01*
X20750Y34263D01*
X20887Y34185D01*
X21029Y34145D01*
X21171Y34145D01*
G54D12*
X3974Y31846D02*
X3896Y31767D01*
X3818Y31767D01*
X3739Y31846D01*
X3739Y32082D01*
X3818Y32161D01*
X3896Y32161D01*
X3974Y32082D01*
X4092Y32161D02*
X4092Y31767D01*
X4327Y31767D01*
X4680Y31767D02*
X4445Y31767D01*
X4445Y31964D01*
X4445Y32161D01*
X4680Y32161D01*
X4445Y31964D02*
X4601Y31964D01*
X4797Y31767D02*
X4797Y32003D01*
X4876Y32161D01*
X4954Y32161D01*
X5033Y32003D01*
X5033Y31767D01*
X4797Y31885D02*
X5033Y31885D01*
X5150Y31767D02*
X5150Y32161D01*
X5307Y32161D01*
X5385Y32082D01*
X5385Y32043D01*
X5307Y31964D01*
X5150Y31964D01*
X5189Y31964D02*
X5385Y31767D01*
X34657Y44143D02*
X34657Y44536D01*
X34814Y44536D01*
X34892Y44457D01*
X34892Y44418D01*
X34814Y44339D01*
X34657Y44339D01*
X34697Y44339D02*
X34892Y44143D01*
X35245Y44143D02*
X35010Y44143D01*
X35010Y44339D01*
X35010Y44536D01*
X35245Y44536D01*
X35010Y44339D02*
X35167Y44339D01*
X35363Y44221D02*
X35441Y44143D01*
X35520Y44143D01*
X35598Y44221D01*
X35363Y44457D01*
X35441Y44536D01*
X35520Y44536D01*
X35598Y44457D01*
X35951Y44143D02*
X35716Y44143D01*
X35716Y44339D01*
X35716Y44536D01*
X35951Y44536D01*
X35716Y44339D02*
X35872Y44339D01*
X36186Y44143D02*
X36186Y44536D01*
X36068Y44536D02*
X36303Y44536D01*
X3904Y22067D02*
X3904Y22461D01*
X3786Y22461D02*
X4022Y22461D01*
X4139Y22067D02*
X4139Y22461D01*
X4296Y22461D01*
X4374Y22382D01*
X4374Y22343D01*
X4296Y22264D01*
X4139Y22264D01*
X4178Y22264D02*
X4374Y22067D01*
X4570Y22067D02*
X4649Y22067D01*
X4570Y22461D02*
X4649Y22461D01*
X4610Y22067D02*
X4610Y22461D01*
X5001Y22264D02*
X5080Y22264D01*
X5080Y22146D01*
X5001Y22067D01*
X4923Y22067D01*
X4845Y22146D01*
X4845Y22382D01*
X4923Y22461D01*
X5080Y22461D01*
X5354Y22264D02*
X5433Y22264D01*
X5433Y22146D01*
X5354Y22067D01*
X5276Y22067D01*
X5197Y22146D01*
X5197Y22382D01*
X5276Y22461D01*
X5433Y22461D01*
X5785Y22067D02*
X5550Y22067D01*
X5550Y22264D01*
X5550Y22461D01*
X5785Y22461D01*
X5550Y22264D02*
X5707Y22264D01*
X5903Y22067D02*
X5903Y22461D01*
X6060Y22461D01*
X6138Y22382D01*
X6138Y22343D01*
X6060Y22264D01*
X5903Y22264D01*
X5942Y22264D02*
X6138Y22067D01*
X19939Y24867D02*
X19939Y25261D01*
X20096Y25261D01*
X20174Y25182D01*
X20174Y25143D01*
X20096Y25064D01*
X19939Y25064D01*
X20292Y25261D02*
X20292Y24946D01*
X20370Y24867D01*
X20449Y24867D01*
X20527Y24946D01*
X20527Y25261D01*
X20645Y25261D02*
X20645Y24867D01*
X20880Y24867D01*
X20997Y24946D02*
X21076Y24867D01*
X21154Y24867D01*
X21233Y24946D01*
X20997Y25182D01*
X21076Y25261D01*
X21154Y25261D01*
X21233Y25182D01*
X21585Y24867D02*
X21350Y24867D01*
X21350Y25064D01*
X21350Y25261D01*
X21585Y25261D01*
X21350Y25064D02*
X21507Y25064D01*
X21703Y25024D02*
X21938Y25024D01*
X22056Y25261D02*
X22095Y24867D01*
X22173Y25024D01*
X22252Y24867D01*
X22291Y25261D01*
X22487Y24867D02*
X22565Y24867D01*
X22487Y25261D02*
X22565Y25261D01*
X22526Y24867D02*
X22526Y25261D01*
X22761Y24867D02*
X22918Y24867D01*
X22996Y24946D01*
X22996Y25182D01*
X22918Y25261D01*
X22761Y25261D01*
X22800Y25261D02*
X22800Y24867D01*
X23232Y24867D02*
X23232Y25261D01*
X23114Y25261D02*
X23349Y25261D01*
X23467Y24867D02*
X23467Y25261D01*
X23702Y24867D02*
X23702Y25261D01*
X23467Y25064D02*
X23702Y25064D01*
X13839Y13067D02*
X13839Y13461D01*
X13996Y13461D01*
X14074Y13382D01*
X14074Y13343D01*
X13996Y13264D01*
X13839Y13264D01*
X14192Y13461D02*
X14192Y13146D01*
X14270Y13067D01*
X14349Y13067D01*
X14427Y13146D01*
X14427Y13461D01*
X14545Y13461D02*
X14545Y13067D01*
X14780Y13067D01*
X14897Y13146D02*
X14976Y13067D01*
X15054Y13067D01*
X15133Y13146D01*
X14897Y13382D01*
X14976Y13461D01*
X15054Y13461D01*
X15133Y13382D01*
X15485Y13067D02*
X15250Y13067D01*
X15250Y13264D01*
X15250Y13461D01*
X15485Y13461D01*
X15250Y13264D02*
X15407Y13264D01*
X15603Y13224D02*
X15838Y13224D01*
X16034Y13067D02*
X16113Y13067D01*
X16034Y13461D02*
X16113Y13461D01*
X16073Y13067D02*
X16073Y13461D01*
X16308Y13067D02*
X16308Y13461D01*
X16544Y13067D01*
X16544Y13461D01*
X16779Y13067D02*
X16779Y13461D01*
X16661Y13461D02*
X16896Y13461D01*
X17249Y13067D02*
X17014Y13067D01*
X17014Y13264D01*
X17014Y13461D01*
X17249Y13461D01*
X17014Y13264D02*
X17171Y13264D01*
X17367Y13067D02*
X17367Y13461D01*
X17524Y13461D01*
X17602Y13382D01*
X17602Y13343D01*
X17524Y13264D01*
X17367Y13264D01*
X17406Y13264D02*
X17602Y13067D01*
X17720Y13461D02*
X17837Y13067D01*
X17955Y13461D01*
X18072Y13067D02*
X18072Y13303D01*
X18151Y13461D01*
X18229Y13461D01*
X18307Y13303D01*
X18307Y13067D01*
X18072Y13185D02*
X18307Y13185D01*
X18425Y13461D02*
X18425Y13067D01*
X18660Y13067D01*
X1999Y13043D02*
X1999Y13436D01*
X2156Y13436D01*
X2234Y13357D01*
X2234Y13318D01*
X2156Y13239D01*
X1999Y13239D01*
X2352Y13436D02*
X2352Y13121D01*
X2430Y13043D01*
X2509Y13043D01*
X2587Y13121D01*
X2587Y13436D01*
X2705Y13436D02*
X2705Y13043D01*
X2940Y13043D01*
X3057Y13121D02*
X3136Y13043D01*
X3214Y13043D01*
X3292Y13121D01*
X3057Y13357D01*
X3136Y13436D01*
X3214Y13436D01*
X3292Y13357D01*
X3645Y13043D02*
X3410Y13043D01*
X3410Y13239D01*
X3410Y13436D01*
X3645Y13436D01*
X3410Y13239D02*
X3567Y13239D01*
X3763Y13200D02*
X3998Y13200D01*
X4116Y13436D02*
X4155Y13043D01*
X4233Y13200D01*
X4312Y13043D01*
X4351Y13436D01*
X4547Y13043D02*
X4625Y13043D01*
X4547Y13436D02*
X4625Y13436D01*
X4586Y13043D02*
X4586Y13436D01*
X4821Y13043D02*
X4978Y13043D01*
X5056Y13121D01*
X5056Y13357D01*
X4978Y13436D01*
X4821Y13436D01*
X4860Y13436D02*
X4860Y13043D01*
X5291Y13043D02*
X5291Y13436D01*
X5174Y13436D02*
X5409Y13436D01*
X5527Y13043D02*
X5527Y13436D01*
X5762Y13043D02*
X5762Y13436D01*
X5527Y13239D02*
X5762Y13239D01*
X18303Y7428D02*
X18068Y7428D01*
X18068Y7625D01*
X18068Y7822D01*
X18303Y7822D01*
X18068Y7625D02*
X18225Y7625D01*
X18421Y7428D02*
X18656Y7704D01*
X18421Y7704D02*
X18656Y7428D01*
X18970Y7467D02*
X18930Y7428D01*
X18891Y7467D01*
X18891Y7822D01*
X18813Y7704D02*
X18970Y7704D01*
X19362Y7507D02*
X19283Y7428D01*
X19205Y7428D01*
X19126Y7507D01*
X19126Y7625D01*
X19205Y7704D01*
X19283Y7704D01*
X19362Y7625D01*
X19322Y7586D01*
X19126Y7586D01*
X19479Y7586D02*
X19597Y7704D01*
X19636Y7704D01*
X19714Y7625D01*
X19479Y7428D02*
X19479Y7704D01*
X19832Y7428D02*
X19832Y7664D01*
X19832Y7704D01*
X19832Y7664D02*
X19871Y7704D01*
X19950Y7704D01*
X19989Y7664D01*
X19989Y7428D01*
X20224Y7704D02*
X20341Y7704D01*
X20381Y7664D01*
X20381Y7467D01*
X20341Y7428D01*
X20224Y7428D01*
X20185Y7467D01*
X20185Y7546D01*
X20224Y7586D01*
X20381Y7586D01*
X20381Y7467D02*
X20420Y7428D01*
X20577Y7822D02*
X20577Y7507D01*
X20655Y7428D01*
X18127Y6956D02*
X18049Y6877D01*
X17970Y6877D01*
X17892Y6956D01*
X17892Y7192D01*
X17970Y7271D01*
X18049Y7271D01*
X18127Y7192D01*
X18284Y7153D02*
X18401Y7153D01*
X18441Y7113D01*
X18441Y6916D01*
X18401Y6877D01*
X18284Y6877D01*
X18245Y6916D01*
X18245Y6995D01*
X18284Y7034D01*
X18441Y7034D01*
X18441Y6916D02*
X18480Y6877D01*
X18597Y6956D02*
X18676Y6877D01*
X18754Y6877D01*
X18832Y6956D01*
X18832Y7074D01*
X18754Y7153D01*
X18676Y7153D01*
X18597Y7074D01*
X18597Y6759D02*
X18597Y7153D01*
X18989Y7153D02*
X19107Y7153D01*
X19146Y7113D01*
X19146Y6916D01*
X19107Y6877D01*
X18989Y6877D01*
X18950Y6916D01*
X18950Y6995D01*
X18989Y7034D01*
X19146Y7034D01*
X19146Y6916D02*
X19185Y6877D01*
X19499Y6916D02*
X19460Y6877D01*
X19381Y6877D01*
X19303Y6956D01*
X19303Y7074D01*
X19381Y7153D01*
X19460Y7153D01*
X19499Y7113D01*
X19773Y6877D02*
X19773Y7113D01*
X19773Y7192D02*
X19773Y7231D01*
X20204Y6916D02*
X20165Y6877D01*
X20126Y6916D01*
X20126Y7271D01*
X20048Y7153D02*
X20204Y7153D01*
X20361Y6956D02*
X20439Y6877D01*
X20518Y6877D01*
X20596Y6956D01*
X20596Y7074D01*
X20518Y7153D01*
X20439Y7153D01*
X20361Y7074D01*
X20361Y6956D01*
X20714Y7034D02*
X20831Y7153D01*
X20871Y7153D01*
X20949Y7074D01*
X20714Y6877D02*
X20714Y7153D01*
X6163Y8467D02*
X6163Y8861D01*
X6320Y8861D01*
X6398Y8782D01*
X6398Y8743D01*
X6320Y8664D01*
X6163Y8664D01*
X6202Y8664D02*
X6398Y8467D01*
X6516Y8782D02*
X6594Y8861D01*
X6672Y8861D01*
X6751Y8782D01*
X6751Y8743D01*
X6516Y8467D01*
X6751Y8467D01*
X6751Y8506D01*
X6868Y8782D02*
X6947Y8861D01*
X7025Y8861D01*
X7103Y8782D01*
X7103Y8743D01*
X6868Y8467D01*
X7103Y8467D01*
X7103Y8506D01*
X2359Y8682D02*
X2437Y8761D01*
X2437Y8367D01*
X2320Y8367D02*
X2555Y8367D01*
X2672Y8682D02*
X2751Y8761D01*
X2829Y8761D01*
X2907Y8682D01*
X2907Y8446D01*
X2829Y8367D01*
X2751Y8367D01*
X2672Y8446D01*
X2672Y8682D01*
X2907Y8682D02*
X2672Y8446D01*
X3025Y8682D02*
X3103Y8761D01*
X3182Y8761D01*
X3260Y8682D01*
X3260Y8446D01*
X3182Y8367D01*
X3103Y8367D01*
X3025Y8446D01*
X3025Y8682D01*
X3260Y8682D02*
X3025Y8446D01*
X3378Y8524D02*
X3456Y8524D01*
X3574Y8643D01*
X3456Y8524D02*
X3574Y8367D01*
X3378Y8367D02*
X3378Y8761D01*
X4316Y5607D02*
X4316Y6001D01*
X4473Y6001D01*
X4552Y5922D01*
X4552Y5883D01*
X4473Y5804D01*
X4316Y5804D01*
X4356Y5804D02*
X4552Y5607D01*
X4669Y5922D02*
X4748Y6001D01*
X4826Y6001D01*
X4904Y5922D01*
X4904Y5883D01*
X4669Y5607D01*
X4904Y5607D01*
X4904Y5646D01*
X5257Y5764D02*
X5022Y5764D01*
X5218Y6001D01*
X5218Y5607D01*
X5179Y5607D02*
X5257Y5607D01*
X9739Y4761D02*
X9739Y4446D01*
X9818Y4367D01*
X9896Y4367D01*
X9974Y4446D01*
X9974Y4761D01*
X10288Y4761D02*
X10170Y4761D01*
X10092Y4682D01*
X10092Y4524D01*
X10092Y4446D01*
X10170Y4367D01*
X10249Y4367D01*
X10327Y4446D01*
X10327Y4524D01*
X10249Y4603D01*
X10170Y4603D01*
X10092Y4524D01*
X8484Y2086D02*
X8406Y2007D01*
X8328Y2007D01*
X8249Y2086D01*
X8249Y2322D01*
X8328Y2401D01*
X8406Y2401D01*
X8484Y2322D01*
X8602Y2086D02*
X8680Y2007D01*
X8759Y2007D01*
X8837Y2086D01*
X8837Y2243D01*
X8837Y2322D01*
X8759Y2401D01*
X8680Y2401D01*
X8602Y2322D01*
X8602Y2243D01*
X8680Y2164D01*
X8759Y2164D01*
X8837Y2243D01*
X8954Y7566D02*
X8876Y7487D01*
X8798Y7487D01*
X8719Y7566D01*
X8719Y7802D01*
X8798Y7881D01*
X8876Y7881D01*
X8954Y7802D01*
X9189Y7487D02*
X9189Y7684D01*
X9307Y7802D01*
X9307Y7881D01*
X9072Y7881D01*
X9072Y7802D01*
X20559Y20682D02*
X20637Y20761D01*
X20637Y20367D01*
X20520Y20367D02*
X20755Y20367D01*
X20872Y20682D02*
X20951Y20761D01*
X21029Y20761D01*
X21107Y20682D01*
X21107Y20446D01*
X21029Y20367D01*
X20951Y20367D01*
X20872Y20446D01*
X20872Y20682D01*
X21107Y20682D02*
X20872Y20446D01*
X21225Y20682D02*
X21303Y20761D01*
X21382Y20761D01*
X21460Y20682D01*
X21460Y20446D01*
X21382Y20367D01*
X21303Y20367D01*
X21225Y20446D01*
X21225Y20682D01*
X21460Y20682D02*
X21225Y20446D01*
X21578Y20524D02*
X21656Y20524D01*
X21774Y20643D01*
X21656Y20524D02*
X21774Y20367D01*
X21578Y20367D02*
X21578Y20761D01*
X23963Y20267D02*
X23963Y20661D01*
X24120Y20661D01*
X24198Y20582D01*
X24198Y20543D01*
X24120Y20464D01*
X23963Y20464D01*
X24002Y20464D02*
X24198Y20267D01*
X24355Y20582D02*
X24433Y20661D01*
X24433Y20267D01*
X24316Y20267D02*
X24551Y20267D01*
X24903Y20661D02*
X24668Y20661D01*
X24668Y20503D01*
X24825Y20503D01*
X24903Y20424D01*
X24903Y20346D01*
X24825Y20267D01*
X24668Y20267D01*
X16833Y2027D02*
X16833Y2421D01*
X16990Y2421D01*
X17068Y2342D01*
X17068Y2303D01*
X16990Y2224D01*
X16833Y2224D01*
X16872Y2224D02*
X17068Y2027D01*
X17186Y2342D02*
X17264Y2421D01*
X17342Y2421D01*
X17421Y2342D01*
X17421Y2303D01*
X17186Y2027D01*
X17421Y2027D01*
X17421Y2066D01*
X17734Y2421D02*
X17617Y2421D01*
X17538Y2342D01*
X17538Y2184D01*
X17538Y2106D01*
X17617Y2027D01*
X17695Y2027D01*
X17773Y2106D01*
X17773Y2184D01*
X17695Y2263D01*
X17617Y2263D01*
X17538Y2184D01*
X15004Y4966D02*
X14926Y4887D01*
X14848Y4887D01*
X14769Y4966D01*
X14769Y5202D01*
X14848Y5281D01*
X14926Y5281D01*
X15004Y5202D01*
X15279Y4887D02*
X15200Y4887D01*
X15122Y4966D01*
X15122Y5044D01*
X15161Y5084D01*
X15122Y5123D01*
X15122Y5202D01*
X15200Y5281D01*
X15279Y5281D01*
X15357Y5202D01*
X15357Y5123D01*
X15318Y5084D01*
X15357Y5044D01*
X15357Y4966D01*
X15279Y4887D01*
X15161Y5084D02*
X15318Y5084D01*
X11989Y2027D02*
X12146Y2027D01*
X12224Y2106D01*
X12224Y2342D01*
X12146Y2421D01*
X11989Y2421D01*
X12028Y2421D02*
X12028Y2027D01*
X12342Y2342D02*
X12420Y2421D01*
X12499Y2421D01*
X12577Y2342D01*
X12577Y2303D01*
X12342Y2027D01*
X12577Y2027D01*
X12577Y2066D01*
X14859Y8682D02*
X14937Y8761D01*
X14937Y8367D01*
X14820Y8367D02*
X15055Y8367D01*
X15172Y8682D02*
X15251Y8761D01*
X15329Y8761D01*
X15407Y8682D01*
X15407Y8446D01*
X15329Y8367D01*
X15251Y8367D01*
X15172Y8446D01*
X15172Y8682D01*
X15407Y8682D02*
X15172Y8446D01*
X15525Y8682D02*
X15603Y8761D01*
X15682Y8761D01*
X15760Y8682D01*
X15760Y8446D01*
X15682Y8367D01*
X15603Y8367D01*
X15525Y8446D01*
X15525Y8682D01*
X15760Y8682D02*
X15525Y8446D01*
X15878Y8524D02*
X15956Y8524D01*
X16074Y8643D01*
X15956Y8524D02*
X16074Y8367D01*
X15878Y8367D02*
X15878Y8761D01*
X18663Y8467D02*
X18663Y8861D01*
X18820Y8861D01*
X18898Y8782D01*
X18898Y8743D01*
X18820Y8664D01*
X18663Y8664D01*
X18702Y8664D02*
X18898Y8467D01*
X19016Y8782D02*
X19094Y8861D01*
X19172Y8861D01*
X19251Y8782D01*
X19251Y8743D01*
X19016Y8467D01*
X19251Y8467D01*
X19251Y8506D01*
X19408Y8821D02*
X19447Y8861D01*
X19525Y8861D01*
X19603Y8782D01*
X19603Y8703D01*
X19564Y8664D01*
X19603Y8624D01*
X19603Y8546D01*
X19525Y8467D01*
X19447Y8467D01*
X19408Y8506D01*
X19447Y8664D02*
X19564Y8664D01*
X21353Y4827D02*
X21353Y5221D01*
X21510Y5221D01*
X21588Y5142D01*
X21588Y5103D01*
X21510Y5024D01*
X21353Y5024D01*
X21392Y5024D02*
X21588Y4827D01*
X21706Y5142D02*
X21784Y5221D01*
X21862Y5221D01*
X21941Y5142D01*
X21941Y5103D01*
X21706Y4827D01*
X21941Y4827D01*
X21941Y4866D01*
X22293Y5221D02*
X22058Y5221D01*
X22058Y5063D01*
X22215Y5063D01*
X22293Y4984D01*
X22293Y4906D01*
X22215Y4827D01*
X22058Y4827D01*
X19891Y39807D02*
X19656Y39807D01*
X19656Y40004D01*
X19656Y40201D01*
X19891Y40201D01*
X19656Y40004D02*
X19812Y40004D01*
X20008Y39807D02*
X20243Y40083D01*
X20008Y40083D02*
X20243Y39807D01*
X20557Y39846D02*
X20518Y39807D01*
X20479Y39846D01*
X20479Y40201D01*
X20400Y40083D02*
X20557Y40083D01*
X20949Y39886D02*
X20871Y39807D01*
X20792Y39807D01*
X20714Y39886D01*
X20714Y40004D01*
X20792Y40083D01*
X20871Y40083D01*
X20949Y40004D01*
X20910Y39964D01*
X20714Y39964D01*
X21067Y39964D02*
X21184Y40083D01*
X21223Y40083D01*
X21302Y40004D01*
X21067Y39807D02*
X21067Y40083D01*
X21419Y39807D02*
X21419Y40043D01*
X21419Y40083D01*
X21419Y40043D02*
X21459Y40083D01*
X21537Y40083D01*
X21576Y40043D01*
X21576Y39807D01*
X21811Y40083D02*
X21929Y40083D01*
X21968Y40043D01*
X21968Y39846D01*
X21929Y39807D01*
X21811Y39807D01*
X21772Y39846D01*
X21772Y39925D01*
X21811Y39964D01*
X21968Y39964D01*
X21968Y39846D02*
X22007Y39807D01*
X22164Y40201D02*
X22164Y39886D01*
X22242Y39807D01*
X19714Y39334D02*
X19636Y39256D01*
X19558Y39256D01*
X19479Y39334D01*
X19479Y39571D01*
X19558Y39649D01*
X19636Y39649D01*
X19714Y39571D01*
X19871Y39531D02*
X19989Y39531D01*
X20028Y39492D01*
X20028Y39295D01*
X19989Y39256D01*
X19871Y39256D01*
X19832Y39295D01*
X19832Y39374D01*
X19871Y39413D01*
X20028Y39413D01*
X20028Y39295D02*
X20067Y39256D01*
X20185Y39334D02*
X20263Y39256D01*
X20341Y39256D01*
X20420Y39334D01*
X20420Y39453D01*
X20341Y39531D01*
X20263Y39531D01*
X20185Y39453D01*
X20185Y39138D02*
X20185Y39531D01*
X20577Y39531D02*
X20694Y39531D01*
X20733Y39492D01*
X20733Y39295D01*
X20694Y39256D01*
X20577Y39256D01*
X20537Y39295D01*
X20537Y39374D01*
X20577Y39413D01*
X20733Y39413D01*
X20733Y39295D02*
X20773Y39256D01*
X21086Y39295D02*
X21047Y39256D01*
X20969Y39256D01*
X20890Y39334D01*
X20890Y39453D01*
X20969Y39531D01*
X21047Y39531D01*
X21086Y39492D01*
X21361Y39256D02*
X21361Y39492D01*
X21361Y39571D02*
X21361Y39610D01*
X21792Y39295D02*
X21753Y39256D01*
X21713Y39295D01*
X21713Y39649D01*
X21635Y39531D02*
X21792Y39531D01*
X21948Y39334D02*
X22027Y39256D01*
X22105Y39256D01*
X22184Y39334D01*
X22184Y39453D01*
X22105Y39531D01*
X22027Y39531D01*
X21948Y39453D01*
X21948Y39334D01*
X22301Y39413D02*
X22419Y39531D01*
X22458Y39531D01*
X22536Y39453D01*
X22301Y39256D02*
X22301Y39531D01*
X63257Y13139D02*
X63335Y13139D01*
X63335Y13021D01*
X63257Y12943D01*
X63178Y12943D01*
X63100Y13021D01*
X63100Y13257D01*
X63178Y13336D01*
X63335Y13336D01*
X63453Y12943D02*
X63453Y13336D01*
X63688Y12943D01*
X63688Y13336D01*
X63806Y12943D02*
X63962Y12943D01*
X64041Y13021D01*
X64041Y13257D01*
X63962Y13336D01*
X63806Y13336D01*
X63845Y13336D02*
X63845Y12943D01*
X33919Y13181D02*
X34037Y12787D01*
X34154Y13181D01*
X34507Y12866D02*
X34429Y12787D01*
X34350Y12787D01*
X34272Y12866D01*
X34272Y13102D01*
X34350Y13181D01*
X34429Y13181D01*
X34507Y13102D01*
X34860Y12866D02*
X34781Y12787D01*
X34703Y12787D01*
X34625Y12866D01*
X34625Y13102D01*
X34703Y13181D01*
X34781Y13181D01*
X34860Y13102D01*
X23421Y8564D02*
X23027Y8564D01*
X23027Y8328D01*
X23027Y7976D02*
X23027Y8211D01*
X23224Y8211D01*
X23421Y8211D01*
X23421Y7976D01*
X23224Y8211D02*
X23224Y8054D01*
X23027Y7858D02*
X23027Y7701D01*
X23106Y7623D01*
X23342Y7623D01*
X23421Y7701D01*
X23421Y7858D01*
X23421Y7819D02*
X23027Y7819D01*
X23027Y7388D02*
X23224Y7388D01*
X23342Y7270D01*
X23421Y7270D01*
X23421Y7505D01*
X23342Y7505D01*
X36086Y12994D02*
X36164Y12994D01*
X36164Y12876D01*
X36086Y12797D01*
X36008Y12797D01*
X35929Y12876D01*
X35929Y13112D01*
X36008Y13191D01*
X36164Y13191D01*
X36282Y12797D02*
X36282Y13191D01*
X36517Y12797D01*
X36517Y13191D01*
X36635Y12797D02*
X36791Y12797D01*
X36870Y12876D01*
X36870Y13112D01*
X36791Y13191D01*
X36635Y13191D01*
X36674Y13191D02*
X36674Y12797D01*
G54D13*
G36*
X25850Y45000D02*
X25850Y47300D01*
X39150Y47300D01*
X39150Y45000D01*
X25850Y45000D01*
G37*
G54D14*
X21571Y45813D02*
X21571Y46528D01*
X21998Y45813D01*
X21998Y46528D01*
X22212Y45813D02*
X22212Y46242D01*
X22354Y46528D01*
X22497Y46528D01*
X22639Y46242D01*
X22639Y45813D01*
X22212Y46028D02*
X22639Y46028D01*
X22853Y45813D02*
X22853Y46528D01*
X23066Y46171D01*
X23280Y46528D01*
X23280Y45813D01*
X23921Y45813D02*
X23493Y45813D01*
X23493Y46171D01*
X23493Y46528D01*
X23921Y46528D01*
X23493Y46171D02*
X23778Y46171D01*
X24348Y46457D02*
X24348Y46314D01*
X24348Y45885D02*
X24348Y46028D01*
X52431Y36617D02*
X52573Y36474D01*
X52716Y36474D01*
X52858Y36617D01*
X52858Y37046D01*
X52716Y37189D01*
X52573Y37189D01*
X52431Y37046D01*
X52431Y36617D01*
X52716Y36617D02*
X52858Y36474D01*
X53498Y36617D02*
X53356Y36474D01*
X53213Y36474D01*
X53071Y36617D01*
X53071Y37046D01*
X53213Y37189D01*
X53356Y37189D01*
X53498Y37046D01*
X57921Y36657D02*
X58063Y36514D01*
X58206Y36514D01*
X58348Y36657D01*
X58348Y37086D01*
X58206Y37229D01*
X58063Y37229D01*
X57921Y37086D01*
X57921Y36657D01*
X58206Y36657D02*
X58348Y36514D01*
X58561Y36514D02*
X58846Y36514D01*
X58988Y36657D01*
X58988Y36729D01*
X58846Y36871D01*
X58988Y37014D01*
X58988Y37086D01*
X58846Y37229D01*
X58632Y37229D01*
X58561Y37229D01*
X58632Y36871D02*
X58846Y36871D01*
X58632Y37229D02*
X58632Y36514D01*
X46993Y33174D02*
X47136Y33174D01*
X46993Y33889D02*
X47136Y33889D01*
X47064Y33174D02*
X47064Y33889D01*
X47491Y33174D02*
X47491Y33889D01*
X47918Y33174D01*
X47918Y33889D01*
X48131Y33174D02*
X48416Y33174D01*
X48558Y33317D01*
X48558Y33746D01*
X48416Y33889D01*
X48131Y33889D01*
X48202Y33889D02*
X48202Y33174D01*
X52323Y33094D02*
X52466Y33094D01*
X52323Y33809D02*
X52466Y33809D01*
X52394Y33094D02*
X52394Y33809D01*
X52821Y33094D02*
X52821Y33809D01*
X53248Y33094D01*
X53248Y33809D01*
X53888Y33237D02*
X53746Y33094D01*
X53603Y33094D01*
X53461Y33237D01*
X53461Y33666D01*
X53603Y33809D01*
X53746Y33809D01*
X53888Y33666D01*
X57813Y33134D02*
X57956Y33134D01*
X57813Y33849D02*
X57956Y33849D01*
X57884Y33134D02*
X57884Y33849D01*
X58311Y33134D02*
X58311Y33849D01*
X58738Y33134D01*
X58738Y33849D01*
X58951Y33134D02*
X59236Y33134D01*
X59378Y33277D01*
X59378Y33349D01*
X59236Y33491D01*
X59378Y33634D01*
X59378Y33706D01*
X59236Y33849D01*
X59022Y33849D01*
X58951Y33849D01*
X59022Y33491D02*
X59236Y33491D01*
X59022Y33849D02*
X59022Y33134D01*
X62823Y33134D02*
X62966Y33134D01*
X62823Y33849D02*
X62966Y33849D01*
X62894Y33134D02*
X62894Y33849D01*
X63321Y33134D02*
X63321Y33849D01*
X63748Y33134D01*
X63748Y33849D01*
X63961Y33134D02*
X63961Y33563D01*
X64103Y33849D01*
X64246Y33849D01*
X64388Y33563D01*
X64388Y33134D01*
X63961Y33349D02*
X64388Y33349D01*
X47101Y36697D02*
X47243Y36554D01*
X47386Y36554D01*
X47528Y36697D01*
X47528Y37126D01*
X47386Y37269D01*
X47243Y37269D01*
X47101Y37126D01*
X47101Y36697D01*
X47386Y36697D02*
X47528Y36554D01*
X47741Y36554D02*
X48026Y36554D01*
X48168Y36697D01*
X48168Y37126D01*
X48026Y37269D01*
X47741Y37269D01*
X47812Y37269D02*
X47812Y36554D01*
G54D15*
X61188Y16818D02*
X61345Y16818D01*
X61423Y16897D01*
X61423Y17133D01*
X61345Y17212D01*
X61188Y17212D01*
X61227Y17212D02*
X61227Y16818D01*
X61580Y17094D02*
X61698Y17094D01*
X61737Y17054D01*
X61737Y16857D01*
X61698Y16818D01*
X61580Y16818D01*
X61541Y16857D01*
X61541Y16936D01*
X61580Y16976D01*
X61737Y16976D01*
X61737Y16857D02*
X61776Y16818D01*
X61894Y17094D02*
X62011Y16818D01*
X62129Y17094D01*
X62364Y16818D02*
X62364Y17054D01*
X62364Y17133D02*
X62364Y17172D01*
X62834Y16897D02*
X62756Y16818D01*
X62677Y16818D01*
X62599Y16897D01*
X62599Y16976D01*
X62677Y17054D01*
X62756Y17054D01*
X62834Y16976D01*
X62834Y17212D02*
X62834Y16818D01*
X63305Y16818D02*
X63305Y17212D01*
X63540Y17212D01*
X63305Y17015D02*
X63461Y17015D01*
X63657Y16976D02*
X63775Y17094D01*
X63814Y17094D01*
X63892Y17015D01*
X63657Y16818D02*
X63657Y17094D01*
X64049Y17094D02*
X64167Y17094D01*
X64206Y17054D01*
X64206Y16857D01*
X64167Y16818D01*
X64049Y16818D01*
X64010Y16857D01*
X64010Y16936D01*
X64049Y16976D01*
X64206Y16976D01*
X64206Y16857D02*
X64245Y16818D01*
X64363Y16818D02*
X64363Y17054D01*
X64363Y17094D01*
X64363Y17054D02*
X64402Y17094D01*
X64441Y17094D01*
X64480Y17054D01*
X64520Y17094D01*
X64559Y17094D01*
X64598Y17054D01*
X64598Y16818D01*
X64480Y17054D02*
X64480Y16818D01*
X64951Y16897D02*
X64872Y16818D01*
X64794Y16818D01*
X64716Y16897D01*
X64716Y17015D01*
X64794Y17094D01*
X64872Y17094D01*
X64951Y17015D01*
X64912Y16976D01*
X64716Y16976D01*
X65460Y17133D02*
X65539Y17212D01*
X65539Y16818D01*
X65421Y16818D02*
X65656Y16818D01*
X65774Y17133D02*
X65852Y17212D01*
X65931Y17212D01*
X66009Y17133D01*
X66009Y17094D01*
X65774Y16818D01*
X66009Y16818D01*
X66009Y16857D01*
X66362Y17212D02*
X66127Y16818D01*
X66479Y17133D02*
X66558Y17212D01*
X66636Y17212D01*
X66715Y17133D01*
X66715Y17094D01*
X66479Y16818D01*
X66715Y16818D01*
X66715Y16857D01*
X66832Y17133D02*
X66910Y17212D01*
X66989Y17212D01*
X67067Y17133D01*
X67067Y16897D01*
X66989Y16818D01*
X66910Y16818D01*
X66832Y16897D01*
X66832Y17133D01*
X67067Y17133D02*
X66832Y16897D01*
X67224Y17133D02*
X67302Y17212D01*
X67302Y16818D01*
X67185Y16818D02*
X67420Y16818D01*
X67655Y16818D02*
X67655Y17015D01*
X67773Y17133D01*
X67773Y17212D01*
X67538Y17212D01*
X67538Y17133D01*
X61012Y16661D02*
X61129Y16267D01*
X61247Y16661D01*
X61482Y16267D02*
X61482Y16503D01*
X61482Y16582D02*
X61482Y16621D01*
X61717Y16267D02*
X61717Y16503D01*
X61717Y16543D01*
X61717Y16503D02*
X61756Y16543D01*
X61835Y16543D01*
X61874Y16503D01*
X61874Y16267D01*
X62266Y16306D02*
X62227Y16267D01*
X62148Y16267D01*
X62070Y16346D01*
X62070Y16464D01*
X62148Y16543D01*
X62227Y16543D01*
X62266Y16503D01*
X62658Y16346D02*
X62579Y16267D01*
X62501Y16267D01*
X62423Y16346D01*
X62423Y16464D01*
X62501Y16543D01*
X62579Y16543D01*
X62658Y16464D01*
X62619Y16424D01*
X62423Y16424D01*
X62775Y16267D02*
X62775Y16503D01*
X62775Y16543D01*
X62775Y16503D02*
X62815Y16543D01*
X62893Y16543D01*
X62932Y16503D01*
X62932Y16267D01*
X63128Y16267D02*
X63128Y16503D01*
X63128Y16543D01*
X63128Y16503D02*
X63167Y16543D01*
X63246Y16543D01*
X63285Y16503D01*
X63285Y16267D01*
X63716Y16346D02*
X63638Y16267D01*
X63559Y16267D01*
X63481Y16346D01*
X63481Y16464D01*
X63559Y16543D01*
X63638Y16543D01*
X63716Y16464D01*
X63677Y16424D01*
X63481Y16424D01*
X63834Y16346D02*
X63912Y16267D01*
X63990Y16267D01*
X64069Y16346D01*
X63834Y16464D01*
X63912Y16543D01*
X63990Y16543D01*
X64069Y16464D01*
X64539Y16661D02*
X64539Y16346D01*
X64618Y16267D01*
X64696Y16267D01*
X64774Y16346D01*
X64774Y16661D01*
X64892Y16267D02*
X64892Y16503D01*
X64892Y16543D01*
X64892Y16503D02*
X64931Y16543D01*
X65010Y16543D01*
X65049Y16503D01*
X65049Y16267D01*
X65362Y16267D02*
X65362Y16503D01*
X65362Y16582D02*
X65362Y16621D01*
X65597Y16543D02*
X65715Y16267D01*
X65833Y16543D01*
X66185Y16346D02*
X66107Y16267D01*
X66029Y16267D01*
X65950Y16346D01*
X65950Y16464D01*
X66029Y16543D01*
X66107Y16543D01*
X66185Y16464D01*
X66146Y16424D01*
X65950Y16424D01*
X66303Y16424D02*
X66421Y16543D01*
X66460Y16543D01*
X66538Y16464D01*
X66303Y16267D02*
X66303Y16543D01*
X66656Y16346D02*
X66734Y16267D01*
X66813Y16267D01*
X66891Y16346D01*
X66656Y16464D01*
X66734Y16543D01*
X66813Y16543D01*
X66891Y16464D01*
X67126Y16267D02*
X67126Y16503D01*
X67126Y16582D02*
X67126Y16621D01*
X67557Y16306D02*
X67518Y16267D01*
X67479Y16306D01*
X67479Y16661D01*
X67400Y16543D02*
X67557Y16543D01*
X67714Y16149D02*
X67753Y16149D01*
X67949Y16543D01*
X67714Y16543D02*
X67832Y16306D01*
X64828Y15243D02*
X64828Y15636D01*
X64985Y15636D01*
X65063Y15557D01*
X65063Y15518D01*
X64985Y15439D01*
X64828Y15439D01*
X64867Y15439D02*
X65063Y15243D01*
X65416Y15243D02*
X65181Y15243D01*
X65181Y15439D01*
X65181Y15636D01*
X65416Y15636D01*
X65181Y15439D02*
X65338Y15439D01*
X65534Y15636D02*
X65651Y15243D01*
X65769Y15636D01*
X66004Y15597D02*
X66004Y15518D01*
X66004Y15282D02*
X66004Y15361D01*
X66631Y15597D02*
X66670Y15636D01*
X66749Y15636D01*
X66827Y15557D01*
X66827Y15479D01*
X66788Y15439D01*
X66827Y15400D01*
X66827Y15321D01*
X66749Y15243D01*
X66670Y15243D01*
X66631Y15282D01*
X66670Y15439D02*
X66788Y15439D01*
X67062Y15243D02*
X67062Y15282D01*
X67297Y15557D02*
X67376Y15636D01*
X67454Y15636D01*
X67533Y15557D01*
X67533Y15321D01*
X67454Y15243D01*
X67376Y15243D01*
X67297Y15321D01*
X67297Y15557D01*
X67533Y15557D02*
X67297Y15321D01*
X24070Y5286D02*
X23991Y5207D01*
X23913Y5207D01*
X23835Y5286D01*
X23835Y5522D01*
X23913Y5601D01*
X23991Y5601D01*
X24070Y5522D01*
X24187Y5601D02*
X24187Y5207D01*
X24423Y5207D01*
X24540Y5286D02*
X24619Y5207D01*
X24697Y5207D01*
X24775Y5286D01*
X24775Y5522D01*
X24697Y5601D01*
X24619Y5601D01*
X24540Y5522D01*
X24540Y5286D01*
X25128Y5286D02*
X25050Y5207D01*
X24971Y5207D01*
X24893Y5286D01*
X24893Y5522D01*
X24971Y5601D01*
X25050Y5601D01*
X25128Y5522D01*
X25246Y5207D02*
X25246Y5601D01*
X25246Y5404D02*
X25285Y5404D01*
X25481Y5601D01*
X25285Y5404D02*
X25481Y5207D01*
X23658Y4734D02*
X23737Y4656D01*
X23815Y4656D01*
X23893Y4734D01*
X23893Y4971D01*
X23815Y5049D01*
X23737Y5049D01*
X23658Y4971D01*
X23658Y4734D01*
X24011Y5049D02*
X24011Y4734D01*
X24089Y4656D01*
X24168Y4656D01*
X24246Y4734D01*
X24246Y5049D01*
X24481Y4656D02*
X24481Y5049D01*
X24364Y5049D02*
X24599Y5049D01*
X24717Y4656D02*
X24717Y5049D01*
X24873Y5049D01*
X24952Y4971D01*
X24952Y4931D01*
X24873Y4853D01*
X24717Y4853D01*
X25069Y5049D02*
X25069Y4734D01*
X25148Y4656D01*
X25226Y4656D01*
X25305Y4734D01*
X25305Y5049D01*
X25540Y4656D02*
X25540Y5049D01*
X25422Y5049D02*
X25657Y5049D01*
X12808Y45548D02*
X12808Y45784D01*
X12887Y45942D01*
X12965Y45942D01*
X13043Y45784D01*
X13043Y45548D01*
X12808Y45666D02*
X13043Y45666D01*
X13396Y45627D02*
X13318Y45548D01*
X13239Y45548D01*
X13161Y45627D01*
X13161Y45706D01*
X13239Y45784D01*
X13318Y45784D01*
X13396Y45706D01*
X13396Y45942D02*
X13396Y45548D01*
X13514Y45548D02*
X13514Y45784D01*
X13592Y45942D01*
X13670Y45942D01*
X13749Y45784D01*
X13749Y45548D01*
X13514Y45666D02*
X13749Y45666D01*
X13866Y45548D02*
X13866Y45942D01*
X14102Y45942D01*
X13866Y45745D02*
X14023Y45745D01*
X14219Y45706D02*
X14337Y45824D01*
X14376Y45824D01*
X14454Y45745D01*
X14219Y45548D02*
X14219Y45824D01*
X14572Y45824D02*
X14572Y45627D01*
X14650Y45548D01*
X14729Y45548D01*
X14807Y45627D01*
X14807Y45824D01*
X14807Y45627D02*
X14807Y45548D01*
X15042Y45548D02*
X15042Y45784D01*
X15042Y45863D02*
X15042Y45902D01*
X15473Y45587D02*
X15434Y45548D01*
X15395Y45587D01*
X15395Y45942D01*
X15317Y45824D02*
X15473Y45824D01*
X12808Y44997D02*
X12808Y45391D01*
X12926Y45194D01*
X13043Y45391D01*
X13043Y44997D01*
X13279Y44997D02*
X13279Y45233D01*
X13279Y45312D02*
X13279Y45351D01*
X13710Y45036D02*
X13670Y44997D01*
X13592Y44997D01*
X13514Y45076D01*
X13514Y45194D01*
X13592Y45273D01*
X13670Y45273D01*
X13710Y45233D01*
X13866Y45154D02*
X13984Y45273D01*
X14023Y45273D01*
X14102Y45194D01*
X13866Y44997D02*
X13866Y45273D01*
X14219Y45076D02*
X14298Y44997D01*
X14376Y44997D01*
X14454Y45076D01*
X14454Y45194D01*
X14376Y45273D01*
X14298Y45273D01*
X14219Y45194D01*
X14219Y45076D01*
X14572Y45391D02*
X14572Y45076D01*
X14650Y44997D01*
X14729Y44997D01*
X14807Y45076D01*
X14807Y45391D01*
X14925Y45076D02*
X15003Y44997D01*
X15081Y44997D01*
X15160Y45076D01*
X14925Y45312D01*
X15003Y45391D01*
X15081Y45391D01*
X15160Y45312D01*
X15277Y44997D02*
X15434Y44997D01*
X15513Y45076D01*
X15513Y45115D01*
X15434Y45194D01*
X15513Y45273D01*
X15513Y45312D01*
X15434Y45391D01*
X15317Y45391D01*
X15277Y45391D01*
X15317Y45194D02*
X15434Y45194D01*
X15317Y45391D02*
X15317Y44997D01*
X36570Y10353D02*
X36727Y10353D01*
X36805Y10431D01*
X36805Y10471D01*
X36727Y10549D01*
X36805Y10628D01*
X36805Y10667D01*
X36727Y10746D01*
X36609Y10746D01*
X36570Y10746D01*
X36609Y10549D02*
X36727Y10549D01*
X36609Y10746D02*
X36609Y10353D01*
X36923Y10746D02*
X36923Y10353D01*
X37158Y10353D01*
X37276Y10353D02*
X37276Y10746D01*
X37276Y10549D02*
X37315Y10549D01*
X37511Y10746D01*
X37315Y10549D02*
X37511Y10353D01*
X33853Y11200D02*
X34088Y11200D01*
X33970Y11357D02*
X33970Y11043D01*
X33270Y10313D02*
X33270Y10706D01*
X33427Y10706D01*
X33505Y10627D01*
X33505Y10588D01*
X33427Y10509D01*
X33270Y10509D01*
X33309Y10509D02*
X33505Y10313D01*
X33858Y10313D02*
X33623Y10313D01*
X33623Y10509D01*
X33623Y10706D01*
X33858Y10706D01*
X33623Y10509D02*
X33780Y10509D01*
X33976Y10313D02*
X34132Y10313D01*
X34211Y10391D01*
X34211Y10627D01*
X34132Y10706D01*
X33976Y10706D01*
X34015Y10706D02*
X34015Y10313D01*
G54D16*
X27480Y33527D02*
X27401Y33448D01*
X27323Y33448D01*
X27245Y33527D01*
X27245Y33763D01*
X27323Y33842D01*
X27401Y33842D01*
X27480Y33763D01*
X27597Y33527D02*
X27676Y33448D01*
X27754Y33448D01*
X27832Y33527D01*
X27832Y33763D01*
X27754Y33842D01*
X27676Y33842D01*
X27597Y33763D01*
X27597Y33527D01*
X27950Y33842D02*
X27950Y33527D01*
X28028Y33448D01*
X28107Y33448D01*
X28185Y33527D01*
X28185Y33842D01*
X28303Y33448D02*
X28303Y33842D01*
X28538Y33448D01*
X28538Y33842D01*
X28773Y33448D02*
X28773Y33842D01*
X28656Y33842D02*
X28891Y33842D01*
X29243Y33448D02*
X29008Y33448D01*
X29008Y33645D01*
X29008Y33842D01*
X29243Y33842D01*
X29008Y33645D02*
X29165Y33645D01*
X29361Y33448D02*
X29361Y33842D01*
X29518Y33842D01*
X29596Y33763D01*
X29596Y33724D01*
X29518Y33645D01*
X29361Y33645D01*
X29400Y33645D02*
X29596Y33448D01*
X27676Y32897D02*
X27754Y32897D01*
X27676Y33291D02*
X27754Y33291D01*
X27715Y32897D02*
X27715Y33291D01*
X27950Y32897D02*
X27950Y33291D01*
X28185Y32897D01*
X28185Y33291D01*
X28303Y32897D02*
X28303Y33291D01*
X28460Y33291D01*
X28538Y33212D01*
X28538Y33173D01*
X28460Y33094D01*
X28303Y33094D01*
X28656Y33291D02*
X28656Y32976D01*
X28734Y32897D01*
X28812Y32897D01*
X28891Y32976D01*
X28891Y33291D01*
X29126Y32897D02*
X29126Y33291D01*
X29008Y33291D02*
X29243Y33291D01*
X27480Y33527D02*
X27401Y33448D01*
X27323Y33448D01*
X27245Y33527D01*
X27245Y33763D01*
X27323Y33842D01*
X27401Y33842D01*
X27480Y33763D01*
X27597Y33527D02*
X27676Y33448D01*
X27754Y33448D01*
X27832Y33527D01*
X27832Y33763D01*
X27754Y33842D01*
X27676Y33842D01*
X27597Y33763D01*
X27597Y33527D01*
X27950Y33842D02*
X27950Y33527D01*
X28028Y33448D01*
X28107Y33448D01*
X28185Y33527D01*
X28185Y33842D01*
X28303Y33448D02*
X28303Y33842D01*
X28538Y33448D01*
X28538Y33842D01*
X28773Y33448D02*
X28773Y33842D01*
X28656Y33842D02*
X28891Y33842D01*
X29243Y33448D02*
X29008Y33448D01*
X29008Y33645D01*
X29008Y33842D01*
X29243Y33842D01*
X29008Y33645D02*
X29165Y33645D01*
X29361Y33448D02*
X29361Y33842D01*
X29518Y33842D01*
X29596Y33763D01*
X29596Y33724D01*
X29518Y33645D01*
X29361Y33645D01*
X29400Y33645D02*
X29596Y33448D01*
X27676Y32897D02*
X27754Y32897D01*
X27676Y33291D02*
X27754Y33291D01*
X27715Y32897D02*
X27715Y33291D01*
X27950Y32897D02*
X27950Y33291D01*
X28185Y32897D01*
X28185Y33291D01*
X28303Y32897D02*
X28303Y33291D01*
X28460Y33291D01*
X28538Y33212D01*
X28538Y33173D01*
X28460Y33094D01*
X28303Y33094D01*
X28656Y33291D02*
X28656Y32976D01*
X28734Y32897D01*
X28812Y32897D01*
X28891Y32976D01*
X28891Y33291D01*
X29126Y32897D02*
X29126Y33291D01*
X29008Y33291D02*
X29243Y33291D01*
X62931Y36657D02*
X63073Y36514D01*
X63216Y36514D01*
X63358Y36657D01*
X63358Y37086D01*
X63216Y37229D01*
X63073Y37229D01*
X62931Y37086D01*
X62931Y36657D01*
X63216Y36657D02*
X63358Y36514D01*
X63571Y36514D02*
X63571Y36943D01*
X63713Y37229D01*
X63856Y37229D01*
X63998Y36943D01*
X63998Y36514D01*
X63571Y36729D02*
X63998Y36729D01*
G54D17*
X12091Y15087D02*
X12233Y14944D01*
X12376Y14944D01*
X12518Y15087D01*
X12518Y15516D01*
X12376Y15659D01*
X12233Y15659D01*
X12091Y15516D01*
X12091Y15087D01*
X12376Y15087D02*
X12518Y14944D01*
X23521Y15087D02*
X23663Y14944D01*
X23806Y14944D01*
X23948Y15087D01*
X23948Y15516D01*
X23806Y15659D01*
X23663Y15659D01*
X23521Y15516D01*
X23521Y15087D01*
X23806Y15087D02*
X23948Y14944D01*
X20611Y2720D02*
X21038Y2720D01*
X20824Y3006D02*
X20824Y2434D01*
X22191Y38470D02*
X22618Y38470D01*
X22404Y38756D02*
X22404Y38184D01*
G54D18*
X11346Y16760D02*
X11346Y16463D01*
X11679Y16463D01*
X12179Y16463D02*
X11846Y16463D01*
X11846Y16611D01*
X11846Y16760D01*
X12179Y16760D01*
X11846Y16611D02*
X12068Y16611D01*
X12346Y16463D02*
X12568Y16463D01*
X12679Y16522D01*
X12679Y16701D01*
X12568Y16760D01*
X12346Y16760D01*
X12401Y16760D02*
X12401Y16463D01*
X13179Y16760D02*
X12846Y16760D01*
X12846Y16641D01*
X13068Y16641D01*
X13179Y16582D01*
X13179Y16522D01*
X13068Y16463D01*
X12846Y16463D01*
X7927Y16779D02*
X8022Y16646D01*
X8129Y16521D01*
X8245Y16407D01*
X8372Y16303D01*
X8506Y16210D01*
X8649Y16129D01*
X8798Y16062D01*
X8952Y16007D01*
X9110Y15966D01*
X9271Y15939D01*
X9435Y15926D01*
X9598Y15928D01*
X9761Y15943D01*
X9922Y15973D01*
X10079Y16017D01*
X10233Y16074D01*
X10380Y16144D01*
X10521Y16227D01*
X10654Y16322D01*
X10779Y16429D01*
X10893Y16545D01*
X10997Y16672D01*
X11090Y16806D01*
X11171Y16949D01*
X11238Y17098D01*
X11293Y17252D01*
X11334Y17410D01*
X11361Y17571D01*
X11374Y17735D01*
X11372Y17898D01*
X11357Y18061D01*
X11327Y18222D01*
X11283Y18379D01*
X11226Y18533D01*
X11156Y18680D01*
X11073Y18821D01*
X10978Y18954D01*
X10871Y19079D01*
X10755Y19193D01*
X10628Y19297D01*
X10494Y19390D01*
X10351Y19471D01*
X10202Y19538D01*
X10048Y19593D01*
X9890Y19634D01*
X9729Y19661D01*
X9565Y19674D01*
X9402Y19672D01*
X9239Y19657D01*
X9078Y19627D01*
X8921Y19583D01*
X8767Y19526D01*
X8620Y19456D01*
X8479Y19373D01*
X8346Y19278D01*
X8221Y19171D01*
X8107Y19055D01*
X8003Y18928D01*
X7927Y18821D01*
X11083Y17800D02*
X11077Y17938D01*
X11059Y18075D01*
X11029Y18210D01*
X10988Y18342D01*
X10935Y18469D01*
X10871Y18592D01*
X10797Y18708D01*
X10713Y18818D01*
X10620Y18920D01*
X10518Y19013D01*
X10408Y19097D01*
X10292Y19171D01*
X10169Y19235D01*
X10042Y19288D01*
X9910Y19329D01*
X9775Y19359D01*
X9638Y19377D01*
X9500Y19383D01*
X9362Y19377D01*
X9225Y19359D01*
X9090Y19329D01*
X8958Y19288D01*
X8831Y19235D01*
X8708Y19171D01*
X8592Y19097D01*
X8482Y19013D01*
X8380Y18920D01*
X8287Y18818D01*
X8203Y18708D01*
X8129Y18592D01*
X8065Y18469D01*
X8012Y18342D01*
X7971Y18210D01*
X7941Y18075D01*
X7923Y17938D01*
X7917Y17800D01*
X7923Y17662D01*
X7941Y17525D01*
X7971Y17390D01*
X8012Y17258D01*
X8065Y17131D01*
X8129Y17008D01*
X8203Y16892D01*
X8287Y16782D01*
X8380Y16680D01*
X8482Y16587D01*
X8592Y16503D01*
X8708Y16429D01*
X8831Y16365D01*
X8958Y16312D01*
X9090Y16271D01*
X9225Y16241D01*
X9362Y16223D01*
X9500Y16217D01*
X9638Y16223D01*
X9775Y16241D01*
X9910Y16271D01*
X10042Y16312D01*
X10169Y16365D01*
X10292Y16429D01*
X10408Y16503D01*
X10518Y16587D01*
X10620Y16680D01*
X10713Y16782D01*
X10797Y16892D01*
X10871Y17008D01*
X10935Y17131D01*
X10988Y17258D01*
X11029Y17390D01*
X11059Y17525D01*
X11077Y17662D01*
X11083Y17800D01*
X11083Y17800D01*
X9917Y17217D02*
X10083Y17217D01*
X10083Y17300D02*
X10083Y17307D01*
X10082Y17314D01*
X10080Y17322D01*
X10078Y17329D01*
X10076Y17335D01*
X10072Y17342D01*
X10068Y17348D01*
X10064Y17354D01*
X10059Y17359D01*
X10054Y17364D01*
X10048Y17368D01*
X10042Y17372D01*
X10035Y17376D01*
X10029Y17378D01*
X10022Y17380D01*
X10014Y17382D01*
X10007Y17383D01*
X10000Y17383D01*
X9993Y17383D01*
X9986Y17382D01*
X9978Y17380D01*
X9971Y17378D01*
X9965Y17376D01*
X9958Y17372D01*
X9952Y17368D01*
X9946Y17364D01*
X9941Y17359D01*
X9936Y17354D01*
X9932Y17348D01*
X9928Y17342D01*
X9924Y17335D01*
X9922Y17329D01*
X9920Y17322D01*
X9918Y17314D01*
X9917Y17307D01*
X9917Y17300D01*
X7917Y18800D02*
X7917Y16800D01*
X9917Y17050D02*
X9917Y17300D01*
X8917Y17133D02*
X8917Y17126D01*
X8918Y17119D01*
X8920Y17112D01*
X8922Y17105D01*
X8924Y17098D01*
X8928Y17092D01*
X8932Y17086D01*
X8936Y17080D01*
X8941Y17074D01*
X8946Y17070D01*
X8952Y17065D01*
X8958Y17061D01*
X8965Y17058D01*
X8971Y17055D01*
X8978Y17053D01*
X8986Y17051D01*
X8993Y17050D01*
X9000Y17050D01*
X9007Y17050D01*
X9014Y17051D01*
X9022Y17053D01*
X9029Y17055D01*
X9035Y17058D01*
X9042Y17061D01*
X9048Y17065D01*
X9054Y17070D01*
X9059Y17074D01*
X9064Y17080D01*
X9068Y17086D01*
X9072Y17092D01*
X9076Y17098D01*
X9078Y17105D01*
X9080Y17112D01*
X9082Y17119D01*
X9083Y17126D01*
X9083Y17133D01*
X9083Y17133D01*
X8917Y17133D02*
X8917Y17300D01*
X9083Y17300D02*
X9083Y17307D01*
X9082Y17314D01*
X9080Y17322D01*
X9078Y17329D01*
X9076Y17335D01*
X9072Y17342D01*
X9068Y17348D01*
X9064Y17354D01*
X9059Y17359D01*
X9054Y17364D01*
X9048Y17368D01*
X9042Y17372D01*
X9035Y17376D01*
X9029Y17378D01*
X9022Y17380D01*
X9014Y17382D01*
X9007Y17383D01*
X9000Y17383D01*
X8993Y17383D01*
X8986Y17382D01*
X8978Y17380D01*
X8971Y17378D01*
X8965Y17376D01*
X8958Y17372D01*
X8952Y17368D01*
X8946Y17364D01*
X8941Y17359D01*
X8936Y17354D01*
X8932Y17348D01*
X8928Y17342D01*
X8924Y17335D01*
X8922Y17329D01*
X8920Y17322D01*
X8918Y17314D01*
X8917Y17307D01*
X8917Y17300D01*
X10083Y17050D02*
X10083Y17300D01*
X6756Y16173D02*
X6756Y16470D01*
X6978Y16470D01*
X7089Y16411D01*
X7089Y16381D01*
X6978Y16321D01*
X6756Y16321D01*
X6811Y16321D02*
X7089Y16173D01*
X7311Y16411D02*
X7422Y16470D01*
X7422Y16173D01*
X7256Y16173D02*
X7589Y16173D01*
X7756Y16232D02*
X7867Y16173D01*
X7978Y16173D01*
X8089Y16232D01*
X8089Y16351D01*
X8089Y16411D01*
X7978Y16470D01*
X7867Y16470D01*
X7756Y16411D01*
X7756Y16351D01*
X7867Y16292D01*
X7978Y16292D01*
X8089Y16351D01*
X5783Y15050D02*
X5783Y16550D01*
X6617Y15050D02*
X6617Y16550D01*
X6200Y17050D02*
X5700Y16967D01*
X5700Y16633D02*
X5783Y16550D01*
X5700Y16967D02*
X5700Y16633D01*
X6200Y17300D02*
X6200Y17050D01*
X6700Y16967D01*
X6700Y16633D01*
X6617Y16550D01*
X6200Y14550D02*
X6200Y14300D01*
X6200Y14550D02*
X5700Y14633D01*
X5700Y14967D02*
X5783Y15050D01*
X5700Y14633D02*
X5700Y14967D01*
X6200Y14550D02*
X6700Y14633D01*
X6700Y14967D02*
X6617Y15050D01*
X6700Y14633D02*
X6700Y14967D01*
X2975Y10575D02*
G75*
D01*
G02X2975Y10575I1925J0*
G01*
X6100Y6190D02*
X3910Y6190D01*
X6100Y7390D02*
X6100Y6190D01*
X3900Y7390D02*
X6100Y7390D01*
X3900Y6190D02*
X3900Y7380D01*
X7300Y3810D02*
X9490Y3810D01*
X7300Y2610D02*
X7300Y3810D01*
X9500Y2610D02*
X7300Y2610D01*
X9500Y3810D02*
X9500Y2620D01*
X7900Y9410D02*
X10090Y9410D01*
X7900Y8210D02*
X7900Y9410D01*
X10100Y8210D02*
X7900Y8210D01*
X10100Y9410D02*
X10100Y8220D01*
X4339Y19346D02*
X4418Y19267D01*
X4497Y19267D01*
X4576Y19346D01*
X4339Y19582D01*
X4418Y19661D01*
X4497Y19661D01*
X4576Y19582D01*
X4694Y19661D02*
X4733Y19267D01*
X4812Y19424D01*
X4891Y19267D01*
X4930Y19661D01*
X5087Y19621D02*
X5127Y19661D01*
X5206Y19661D01*
X5284Y19582D01*
X5284Y19503D01*
X5245Y19464D01*
X5284Y19424D01*
X5284Y19346D01*
X5206Y19267D01*
X5127Y19267D01*
X5087Y19306D01*
X5127Y19464D02*
X5245Y19464D01*
X2760Y20800D02*
X2540Y20800D01*
X2530Y18100D02*
X2690Y18100D01*
X3610Y20800D02*
X3830Y20800D01*
X3830Y18090D01*
X3600Y18100D01*
X2540Y20800D02*
X2530Y18100D01*
X5806Y19332D02*
X5917Y19273D01*
X6028Y19273D01*
X6139Y19332D01*
X6139Y19570D01*
X6361Y19511D02*
X6472Y19570D01*
X6472Y19273D01*
X6306Y19273D02*
X6639Y19273D01*
X7139Y19570D02*
X6806Y19570D01*
X6806Y19451D01*
X7028Y19451D01*
X7139Y19392D01*
X7139Y19332D01*
X7028Y19273D01*
X6806Y19273D01*
X6700Y21900D02*
X6700Y19900D01*
X5700Y20650D02*
X5700Y19900D01*
X6700Y19900D01*
X5700Y21900D02*
X5700Y20983D01*
X5700Y20817D02*
X6033Y20817D01*
X5783Y20733D02*
X5700Y20817D01*
X5700Y21900D02*
X6700Y21900D01*
X8906Y22373D02*
X8906Y22670D01*
X9128Y22670D01*
X9239Y22611D01*
X9239Y22581D01*
X9128Y22521D01*
X8906Y22521D01*
X8961Y22521D02*
X9239Y22373D01*
X9461Y22611D02*
X9572Y22670D01*
X9572Y22373D01*
X9406Y22373D02*
X9739Y22373D01*
X10239Y22492D02*
X9906Y22492D01*
X10183Y22670D01*
X10183Y22373D01*
X10128Y22373D02*
X10239Y22373D01*
X8250Y24017D02*
X9750Y24017D01*
X8250Y23183D02*
X9750Y23183D01*
X10250Y23600D02*
X10167Y24100D01*
X9833Y24100D02*
X9750Y24017D01*
X10167Y24100D02*
X9833Y24100D01*
X10500Y23600D02*
X10250Y23600D01*
X10167Y23100D01*
X9833Y23100D01*
X9750Y23183D01*
X7750Y23600D02*
X7500Y23600D01*
X7750Y23600D02*
X7833Y24100D01*
X8167Y24100D02*
X8250Y24017D01*
X7833Y24100D02*
X8167Y24100D01*
X7750Y23600D02*
X7833Y23100D01*
X8167Y23100D02*
X8250Y23183D01*
X7833Y23100D02*
X8167Y23100D01*
X8856Y25073D02*
X8856Y25370D01*
X9078Y25370D01*
X9189Y25311D01*
X9189Y25281D01*
X9078Y25221D01*
X8856Y25221D01*
X8911Y25221D02*
X9189Y25073D01*
X9411Y25311D02*
X9522Y25370D01*
X9522Y25073D01*
X9356Y25073D02*
X9689Y25073D01*
X9856Y25311D02*
X9967Y25370D01*
X10078Y25370D01*
X10189Y25311D01*
X10189Y25281D01*
X9856Y25073D01*
X10189Y25073D01*
X10189Y25102D01*
X8250Y26617D02*
X9750Y26617D01*
X8250Y25783D02*
X9750Y25783D01*
X10250Y26200D02*
X10167Y26700D01*
X9833Y26700D02*
X9750Y26617D01*
X10167Y26700D02*
X9833Y26700D01*
X10500Y26200D02*
X10250Y26200D01*
X10167Y25700D01*
X9833Y25700D01*
X9750Y25783D01*
X7750Y26200D02*
X7500Y26200D01*
X7750Y26200D02*
X7833Y26700D01*
X8167Y26700D02*
X8250Y26617D01*
X7833Y26700D02*
X8167Y26700D01*
X7750Y26200D02*
X7833Y25700D01*
X8167Y25700D02*
X8250Y25783D01*
X7833Y25700D02*
X8167Y25700D01*
X16639Y20861D02*
X16639Y20546D01*
X16718Y20467D01*
X16796Y20467D01*
X16874Y20546D01*
X16874Y20861D01*
X16992Y20782D02*
X17070Y20861D01*
X17149Y20861D01*
X17227Y20782D01*
X17227Y20743D01*
X16992Y20467D01*
X17227Y20467D01*
X17227Y20506D01*
X16577Y21209D02*
X16577Y29791D01*
X14423Y29791D02*
X14423Y21209D01*
X16577Y29791D02*
X14423Y29791D01*
X14423Y21209D02*
X16577Y21209D01*
X16589Y30532D02*
X16478Y30473D01*
X16367Y30473D01*
X16256Y30532D01*
X16256Y30711D01*
X16367Y30770D01*
X16478Y30770D01*
X16589Y30711D01*
X16756Y30711D02*
X16867Y30770D01*
X16978Y30770D01*
X17089Y30711D01*
X17089Y30681D01*
X16756Y30473D01*
X17089Y30473D01*
X17089Y30502D01*
X15000Y31900D02*
X14956Y31898D01*
X14913Y31892D01*
X14871Y31883D01*
X14829Y31870D01*
X14789Y31853D01*
X14750Y31833D01*
X14713Y31810D01*
X14679Y31783D01*
X14646Y31754D01*
X14617Y31721D01*
X14590Y31687D01*
X14567Y31650D01*
X14547Y31611D01*
X14530Y31571D01*
X14517Y31529D01*
X14508Y31487D01*
X14502Y31444D01*
X14500Y31400D01*
X14502Y31356D01*
X14508Y31313D01*
X14517Y31271D01*
X14530Y31229D01*
X14547Y31189D01*
X14567Y31150D01*
X14590Y31113D01*
X14617Y31079D01*
X14646Y31046D01*
X14679Y31017D01*
X14713Y30990D01*
X14750Y30967D01*
X14789Y30947D01*
X14829Y30930D01*
X14871Y30917D01*
X14913Y30908D01*
X14956Y30902D01*
X15000Y30900D01*
X15000Y30900D01*
X16000Y30900D02*
X16044Y30902D01*
X16087Y30908D01*
X16129Y30917D01*
X16171Y30930D01*
X16211Y30947D01*
X16250Y30967D01*
X16287Y30990D01*
X16321Y31017D01*
X16354Y31046D01*
X16383Y31079D01*
X16410Y31113D01*
X16433Y31150D01*
X16453Y31189D01*
X16470Y31229D01*
X16483Y31271D01*
X16492Y31313D01*
X16498Y31356D01*
X16500Y31400D01*
X16498Y31444D01*
X16492Y31487D01*
X16483Y31529D01*
X16470Y31571D01*
X16453Y31611D01*
X16433Y31650D01*
X16410Y31687D01*
X16383Y31721D01*
X16354Y31754D01*
X16321Y31783D01*
X16287Y31810D01*
X16250Y31833D01*
X16211Y31853D01*
X16171Y31870D01*
X16129Y31883D01*
X16087Y31892D01*
X16044Y31898D01*
X16000Y31900D01*
X15000Y31900D01*
X16000Y30900D02*
X15000Y30900D01*
X19756Y27273D02*
X19756Y27570D01*
X19978Y27570D01*
X20089Y27511D01*
X20089Y27481D01*
X19978Y27421D01*
X19756Y27421D01*
X19811Y27421D02*
X20089Y27273D01*
X20533Y27570D02*
X20367Y27570D01*
X20256Y27511D01*
X20256Y27392D01*
X20256Y27332D01*
X20367Y27273D01*
X20478Y27273D01*
X20589Y27332D01*
X20589Y27392D01*
X20478Y27451D01*
X20367Y27451D01*
X20256Y27392D01*
X18783Y26250D02*
X18783Y27750D01*
X19617Y26250D02*
X19617Y27750D01*
X19200Y28250D02*
X18700Y28167D01*
X18700Y27833D02*
X18783Y27750D01*
X18700Y28167D02*
X18700Y27833D01*
X19200Y28500D02*
X19200Y28250D01*
X19700Y28167D01*
X19700Y27833D01*
X19617Y27750D01*
X19200Y25750D02*
X19200Y25500D01*
X19200Y25750D02*
X18700Y25833D01*
X18700Y26167D02*
X18783Y26250D01*
X18700Y25833D02*
X18700Y26167D01*
X19200Y25750D02*
X19700Y25833D01*
X19700Y26167D02*
X19617Y26250D01*
X19700Y25833D02*
X19700Y26167D01*
X20975Y22575D02*
G75*
D01*
G02X20975Y22575I1925J0*
G01*
X22646Y16810D02*
X22646Y16513D01*
X22979Y16513D01*
X23479Y16513D02*
X23146Y16513D01*
X23146Y16661D01*
X23146Y16810D01*
X23479Y16810D01*
X23146Y16661D02*
X23368Y16661D01*
X23646Y16513D02*
X23868Y16513D01*
X23979Y16572D01*
X23979Y16751D01*
X23868Y16810D01*
X23646Y16810D01*
X23701Y16810D02*
X23701Y16513D01*
X24423Y16810D02*
X24257Y16810D01*
X24146Y16751D01*
X24146Y16632D01*
X24146Y16572D01*
X24257Y16513D01*
X24368Y16513D01*
X24479Y16572D01*
X24479Y16632D01*
X24368Y16691D01*
X24257Y16691D01*
X24146Y16632D01*
X19127Y16579D02*
X19222Y16446D01*
X19329Y16321D01*
X19445Y16207D01*
X19572Y16103D01*
X19706Y16010D01*
X19849Y15929D01*
X19998Y15862D01*
X20152Y15807D01*
X20310Y15766D01*
X20471Y15739D01*
X20635Y15726D01*
X20798Y15728D01*
X20961Y15743D01*
X21122Y15773D01*
X21279Y15817D01*
X21433Y15874D01*
X21580Y15944D01*
X21721Y16027D01*
X21854Y16122D01*
X21979Y16229D01*
X22093Y16345D01*
X22197Y16472D01*
X22290Y16606D01*
X22371Y16749D01*
X22438Y16898D01*
X22493Y17052D01*
X22534Y17210D01*
X22561Y17371D01*
X22574Y17535D01*
X22572Y17698D01*
X22557Y17861D01*
X22527Y18022D01*
X22483Y18179D01*
X22426Y18333D01*
X22356Y18480D01*
X22273Y18621D01*
X22178Y18754D01*
X22071Y18879D01*
X21955Y18993D01*
X21828Y19097D01*
X21694Y19190D01*
X21551Y19271D01*
X21402Y19338D01*
X21248Y19393D01*
X21090Y19434D01*
X20929Y19461D01*
X20765Y19474D01*
X20602Y19472D01*
X20439Y19457D01*
X20278Y19427D01*
X20121Y19383D01*
X19967Y19326D01*
X19820Y19256D01*
X19679Y19173D01*
X19546Y19078D01*
X19421Y18971D01*
X19307Y18855D01*
X19203Y18728D01*
X19127Y18621D01*
X22283Y17600D02*
X22277Y17738D01*
X22259Y17875D01*
X22229Y18010D01*
X22188Y18142D01*
X22135Y18269D01*
X22071Y18392D01*
X21997Y18508D01*
X21913Y18618D01*
X21820Y18720D01*
X21718Y18813D01*
X21608Y18897D01*
X21492Y18971D01*
X21369Y19035D01*
X21242Y19088D01*
X21110Y19129D01*
X20975Y19159D01*
X20838Y19177D01*
X20700Y19183D01*
X20562Y19177D01*
X20425Y19159D01*
X20290Y19129D01*
X20158Y19088D01*
X20031Y19035D01*
X19908Y18971D01*
X19792Y18897D01*
X19682Y18813D01*
X19580Y18720D01*
X19487Y18618D01*
X19403Y18508D01*
X19329Y18392D01*
X19265Y18269D01*
X19212Y18142D01*
X19171Y18010D01*
X19141Y17875D01*
X19123Y17738D01*
X19117Y17600D01*
X19123Y17462D01*
X19141Y17325D01*
X19171Y17190D01*
X19212Y17058D01*
X19265Y16931D01*
X19329Y16808D01*
X19403Y16692D01*
X19487Y16582D01*
X19580Y16480D01*
X19682Y16387D01*
X19792Y16303D01*
X19908Y16229D01*
X20031Y16165D01*
X20158Y16112D01*
X20290Y16071D01*
X20425Y16041D01*
X20562Y16023D01*
X20700Y16017D01*
X20838Y16023D01*
X20975Y16041D01*
X21110Y16071D01*
X21242Y16112D01*
X21369Y16165D01*
X21492Y16229D01*
X21608Y16303D01*
X21718Y16387D01*
X21820Y16480D01*
X21913Y16582D01*
X21997Y16692D01*
X22071Y16808D01*
X22135Y16931D01*
X22188Y17058D01*
X22229Y17190D01*
X22259Y17325D01*
X22277Y17462D01*
X22283Y17600D01*
X22283Y17600D01*
X21117Y16850D02*
X21117Y17100D01*
X21283Y17100D02*
X21283Y17107D01*
X21282Y17114D01*
X21280Y17122D01*
X21278Y17129D01*
X21276Y17135D01*
X21272Y17142D01*
X21268Y17148D01*
X21264Y17154D01*
X21259Y17159D01*
X21254Y17164D01*
X21248Y17168D01*
X21242Y17172D01*
X21235Y17176D01*
X21229Y17178D01*
X21222Y17180D01*
X21214Y17182D01*
X21207Y17183D01*
X21200Y17183D01*
X21193Y17183D01*
X21186Y17182D01*
X21178Y17180D01*
X21171Y17178D01*
X21165Y17176D01*
X21158Y17172D01*
X21152Y17168D01*
X21146Y17164D01*
X21141Y17159D01*
X21136Y17154D01*
X21132Y17148D01*
X21128Y17142D01*
X21124Y17135D01*
X21122Y17129D01*
X21120Y17122D01*
X21118Y17114D01*
X21117Y17107D01*
X21117Y17100D01*
X21117Y17017D02*
X21283Y17017D01*
X19117Y18600D02*
X19117Y16600D01*
X20117Y16933D02*
X20117Y16926D01*
X20118Y16919D01*
X20120Y16912D01*
X20122Y16905D01*
X20124Y16898D01*
X20128Y16892D01*
X20132Y16886D01*
X20136Y16880D01*
X20141Y16874D01*
X20146Y16870D01*
X20152Y16865D01*
X20158Y16861D01*
X20165Y16858D01*
X20171Y16855D01*
X20178Y16853D01*
X20186Y16851D01*
X20193Y16850D01*
X20200Y16850D01*
X20207Y16850D01*
X20214Y16851D01*
X20222Y16853D01*
X20229Y16855D01*
X20235Y16858D01*
X20242Y16861D01*
X20248Y16865D01*
X20254Y16870D01*
X20259Y16874D01*
X20264Y16880D01*
X20268Y16886D01*
X20272Y16892D01*
X20276Y16898D01*
X20278Y16905D01*
X20280Y16912D01*
X20282Y16919D01*
X20283Y16926D01*
X20283Y16933D01*
X20283Y16933D01*
X20283Y17100D02*
X20283Y17107D01*
X20282Y17114D01*
X20280Y17122D01*
X20278Y17129D01*
X20276Y17135D01*
X20272Y17142D01*
X20268Y17148D01*
X20264Y17154D01*
X20259Y17159D01*
X20254Y17164D01*
X20248Y17168D01*
X20242Y17172D01*
X20235Y17176D01*
X20229Y17178D01*
X20222Y17180D01*
X20214Y17182D01*
X20207Y17183D01*
X20200Y17183D01*
X20193Y17183D01*
X20186Y17182D01*
X20178Y17180D01*
X20171Y17178D01*
X20165Y17176D01*
X20158Y17172D01*
X20152Y17168D01*
X20146Y17164D01*
X20141Y17159D01*
X20136Y17154D01*
X20132Y17148D01*
X20128Y17142D01*
X20124Y17135D01*
X20122Y17129D01*
X20120Y17122D01*
X20118Y17114D01*
X20117Y17107D01*
X20117Y17100D01*
X20117Y16933D02*
X20117Y17100D01*
X21283Y16850D02*
X21283Y17100D01*
X17456Y16873D02*
X17456Y17170D01*
X17678Y17170D01*
X17789Y17111D01*
X17789Y17081D01*
X17678Y17021D01*
X17456Y17021D01*
X17511Y17021D02*
X17789Y16873D01*
X17956Y17111D02*
X18067Y17170D01*
X18178Y17170D01*
X18289Y17111D01*
X18289Y17081D01*
X17956Y16873D01*
X18289Y16873D01*
X18289Y16902D01*
X18456Y17111D02*
X18567Y17170D01*
X18678Y17170D01*
X18789Y17111D01*
X18789Y16932D01*
X18678Y16873D01*
X18567Y16873D01*
X18456Y16932D01*
X18456Y17111D01*
X18789Y17111D02*
X18456Y16932D01*
X16583Y15850D02*
X16583Y17350D01*
X17417Y15850D02*
X17417Y17350D01*
X17000Y17850D02*
X16500Y17767D01*
X16500Y17433D02*
X16583Y17350D01*
X16500Y17767D02*
X16500Y17433D01*
X17000Y18100D02*
X17000Y17850D01*
X17500Y17767D01*
X17500Y17433D01*
X17417Y17350D01*
X17000Y15350D02*
X17000Y15100D01*
X17000Y15350D02*
X16500Y15433D01*
X16500Y15767D02*
X16583Y15850D01*
X16500Y15433D02*
X16500Y15767D01*
X17000Y15350D02*
X17500Y15433D01*
X17500Y15767D02*
X17417Y15850D01*
X17500Y15433D02*
X17500Y15767D01*
X22256Y29073D02*
X22256Y29370D01*
X22478Y29370D01*
X22589Y29311D01*
X22589Y29281D01*
X22478Y29221D01*
X22256Y29221D01*
X22311Y29221D02*
X22589Y29073D01*
X22922Y29073D02*
X22922Y29221D01*
X23089Y29311D01*
X23089Y29370D01*
X22756Y29370D01*
X22756Y29311D01*
X22017Y30350D02*
X22017Y28850D01*
X21183Y30350D02*
X21183Y28850D01*
X21600Y28350D02*
X22100Y28433D01*
X22100Y28767D02*
X22017Y28850D01*
X22100Y28433D02*
X22100Y28767D01*
X21600Y28100D02*
X21600Y28350D01*
X21100Y28433D01*
X21100Y28767D01*
X21183Y28850D01*
X21600Y30850D02*
X21600Y31100D01*
X21600Y30850D02*
X22100Y30767D01*
X22100Y30433D02*
X22017Y30350D01*
X22100Y30767D02*
X22100Y30433D01*
X21600Y30850D02*
X21100Y30767D01*
X21100Y30433D02*
X21183Y30350D01*
X21100Y30767D02*
X21100Y30433D01*
X25589Y27832D02*
X25478Y27773D01*
X25367Y27773D01*
X25256Y27832D01*
X25256Y28011D01*
X25367Y28070D01*
X25478Y28070D01*
X25589Y28011D01*
X25811Y28040D02*
X25867Y28070D01*
X25978Y28070D01*
X26089Y28011D01*
X26089Y27951D01*
X26033Y27921D01*
X26089Y27892D01*
X26089Y27832D01*
X25978Y27773D01*
X25867Y27773D01*
X25811Y27802D01*
X25867Y27921D02*
X26033Y27921D01*
X24700Y29200D02*
X24700Y26700D01*
X23700Y29200D02*
X23700Y26700D01*
X24533Y29200D02*
X24700Y29200D01*
X23867Y29200D02*
X23700Y29200D01*
X24500Y27750D02*
X23900Y27750D01*
X24200Y27750D02*
X24200Y27600D01*
X23900Y28050D02*
X24500Y28050D01*
X23900Y28150D02*
X24500Y28150D01*
X24500Y28100D02*
X23900Y28100D01*
X24200Y28150D02*
X24200Y28300D01*
X23900Y27800D02*
X24500Y27800D01*
X24500Y27850D02*
X23900Y27850D01*
X24700Y26700D02*
X24533Y26700D01*
X23700Y26700D02*
X23867Y26700D01*
X5506Y28832D02*
X5617Y28773D01*
X5728Y28773D01*
X5839Y28832D01*
X5839Y29070D01*
X6061Y29011D02*
X6172Y29070D01*
X6172Y28773D01*
X6006Y28773D02*
X6339Y28773D01*
X6561Y29040D02*
X6617Y29070D01*
X6728Y29070D01*
X6839Y29011D01*
X6839Y28951D01*
X6783Y28921D01*
X6839Y28892D01*
X6839Y28832D01*
X6728Y28773D01*
X6617Y28773D01*
X6561Y28802D01*
X6617Y28921D02*
X6783Y28921D01*
X5500Y29300D02*
X5500Y31300D01*
X6500Y30550D02*
X6500Y31300D01*
X5500Y31300D01*
X6500Y29300D02*
X6500Y30217D01*
X6500Y30383D02*
X6167Y30383D01*
X6417Y30467D02*
X6500Y30383D01*
X6500Y29300D02*
X5500Y29300D01*
X4239Y29746D02*
X4318Y29667D01*
X4397Y29667D01*
X4476Y29746D01*
X4239Y29982D01*
X4318Y30061D01*
X4397Y30061D01*
X4476Y29982D01*
X4594Y30061D02*
X4633Y29667D01*
X4712Y29824D01*
X4791Y29667D01*
X4830Y30061D01*
X4948Y29982D02*
X5027Y30061D01*
X5106Y30061D01*
X5184Y29982D01*
X5184Y29943D01*
X4948Y29667D01*
X5184Y29667D01*
X5184Y29706D01*
X2960Y31200D02*
X2740Y31200D01*
X2730Y28500D02*
X2890Y28500D01*
X3810Y31200D02*
X4030Y31200D01*
X4030Y28490D01*
X3800Y28500D01*
X2740Y31200D02*
X2730Y28500D01*
X63364Y43981D02*
X63364Y44279D01*
X63586Y44279D01*
X63697Y44219D01*
X63697Y44189D01*
X63586Y44130D01*
X63364Y44130D01*
X63419Y44130D02*
X63697Y43981D01*
X64197Y44100D02*
X63864Y44100D01*
X64142Y44279D01*
X64142Y43981D01*
X64086Y43981D02*
X64197Y43981D01*
X63017Y45550D02*
X63017Y44050D01*
X62183Y45550D02*
X62183Y44050D01*
X62600Y43550D02*
X63100Y43633D01*
X63100Y43967D02*
X63017Y44050D01*
X63100Y43633D02*
X63100Y43967D01*
X62600Y43300D02*
X62600Y43550D01*
X62100Y43633D01*
X62100Y43967D01*
X62183Y44050D01*
X62600Y46050D02*
X62600Y46300D01*
X62600Y46050D02*
X63100Y45967D01*
X63100Y45633D02*
X63017Y45550D01*
X63100Y45967D02*
X63100Y45633D01*
X62600Y46050D02*
X62100Y45967D01*
X62100Y45633D02*
X62183Y45550D01*
X62100Y45967D02*
X62100Y45633D01*
X47564Y43981D02*
X47564Y44279D01*
X47786Y44279D01*
X47897Y44219D01*
X47897Y44189D01*
X47786Y44130D01*
X47564Y44130D01*
X47619Y44130D02*
X47897Y43981D01*
X48119Y44219D02*
X48231Y44279D01*
X48231Y43981D01*
X48064Y43981D02*
X48397Y43981D01*
X47217Y45550D02*
X47217Y44050D01*
X46383Y45550D02*
X46383Y44050D01*
X46800Y43550D02*
X47300Y43633D01*
X47300Y43967D02*
X47217Y44050D01*
X47300Y43633D02*
X47300Y43967D01*
X46800Y43300D02*
X46800Y43550D01*
X46300Y43633D01*
X46300Y43967D01*
X46383Y44050D01*
X46800Y46050D02*
X46800Y46300D01*
X46800Y46050D02*
X47300Y45967D01*
X47300Y45633D02*
X47217Y45550D01*
X47300Y45967D02*
X47300Y45633D01*
X46800Y46050D02*
X46300Y45967D01*
X46300Y45633D02*
X46383Y45550D01*
X46300Y45967D02*
X46300Y45633D01*
X35506Y36373D02*
X35506Y36670D01*
X35728Y36670D01*
X35839Y36611D01*
X35839Y36581D01*
X35728Y36521D01*
X35506Y36521D01*
X35561Y36521D02*
X35839Y36373D01*
X36339Y36670D02*
X36006Y36670D01*
X36006Y36551D01*
X36228Y36551D01*
X36339Y36492D01*
X36339Y36432D01*
X36228Y36373D01*
X36006Y36373D01*
X34817Y37550D02*
X34817Y36050D01*
X33983Y37550D02*
X33983Y36050D01*
X34400Y35550D02*
X34900Y35633D01*
X34900Y35967D02*
X34817Y36050D01*
X34900Y35633D02*
X34900Y35967D01*
X34400Y35300D02*
X34400Y35550D01*
X33900Y35633D01*
X33900Y35967D01*
X33983Y36050D01*
X34400Y38050D02*
X34400Y38300D01*
X34400Y38050D02*
X34900Y37967D01*
X34900Y37633D02*
X34817Y37550D01*
X34900Y37967D02*
X34900Y37633D01*
X34400Y38050D02*
X33900Y37967D01*
X33900Y37633D02*
X33983Y37550D01*
X33900Y37967D02*
X33900Y37633D01*
X38556Y34132D02*
X38667Y34073D01*
X38778Y34073D01*
X38889Y34132D01*
X38889Y34311D01*
X38778Y34370D01*
X38667Y34370D01*
X38556Y34311D01*
X38556Y34132D01*
X38778Y34132D02*
X38889Y34073D01*
X39111Y34311D02*
X39222Y34370D01*
X39222Y34073D01*
X39056Y34073D02*
X39389Y34073D01*
X37300Y34050D02*
X37400Y34054D01*
X37500Y34067D01*
X37598Y34089D01*
X37693Y34119D01*
X37786Y34158D01*
X37875Y34204D01*
X37960Y34258D01*
X38039Y34319D01*
X38113Y34387D01*
X38181Y34461D01*
X38242Y34540D01*
X38296Y34625D01*
X38342Y34714D01*
X38381Y34807D01*
X38411Y34902D01*
X38433Y35000D01*
X38446Y35100D01*
X38450Y35200D01*
X38446Y35300D01*
X38433Y35400D01*
X38411Y35498D01*
X38381Y35593D01*
X38342Y35686D01*
X38296Y35775D01*
X38242Y35860D01*
X38181Y35939D01*
X38113Y36013D01*
X38039Y36081D01*
X37960Y36142D01*
X37875Y36196D01*
X37786Y36242D01*
X37693Y36281D01*
X37598Y36311D01*
X37500Y36333D01*
X37400Y36346D01*
X37300Y36350D01*
X37200Y36346D01*
X37100Y36333D01*
X37002Y36311D01*
X36907Y36281D01*
X36814Y36242D01*
X36725Y36196D01*
X36640Y36142D01*
X36561Y36081D01*
X36487Y36013D01*
X36419Y35939D01*
X36358Y35860D01*
X36304Y35775D01*
X36258Y35686D01*
X36219Y35593D01*
X36189Y35498D01*
X36167Y35400D01*
X36154Y35300D01*
X36150Y35200D01*
X36154Y35100D01*
X36167Y35000D01*
X36189Y34902D01*
X36219Y34807D01*
X36258Y34714D01*
X36304Y34625D01*
X36358Y34540D01*
X36419Y34461D01*
X36487Y34387D01*
X36561Y34319D01*
X36640Y34258D01*
X36725Y34204D01*
X36814Y34158D01*
X36907Y34119D01*
X37002Y34089D01*
X37100Y34067D01*
X37200Y34054D01*
X37300Y34050D01*
X36150Y36150D02*
X36350Y36350D01*
X36583Y36117D01*
X37100Y35550D02*
X36600Y35550D01*
X36600Y35650D02*
X36600Y35450D01*
X36383Y35917D02*
X36150Y36150D01*
X37000Y35650D02*
X37100Y35550D01*
X38100Y35450D02*
X37900Y35650D01*
X37600Y35550D02*
X37600Y35650D01*
X37900Y35650D02*
X37900Y35550D01*
X38100Y35750D02*
X38100Y35450D01*
X37700Y35450D02*
X37600Y35550D01*
X37900Y35550D02*
X37800Y35450D01*
X37600Y35650D02*
X37700Y35750D01*
X37800Y35450D02*
X37700Y35450D01*
X37400Y34200D02*
X37100Y34500D01*
X37100Y34200D01*
X37600Y34300D02*
X37500Y34200D01*
X37500Y34500D02*
X37600Y34400D01*
X37600Y34300D01*
X37500Y34200D02*
X37400Y34200D01*
X36906Y40332D02*
X37017Y40273D01*
X37128Y40273D01*
X37239Y40332D01*
X37239Y40570D01*
X37461Y40540D02*
X37517Y40570D01*
X37628Y40570D01*
X37739Y40511D01*
X37739Y40451D01*
X37683Y40421D01*
X37739Y40392D01*
X37739Y40332D01*
X37628Y40273D01*
X37517Y40273D01*
X37461Y40302D01*
X37517Y40421D02*
X37683Y40421D01*
X37700Y42700D02*
X37700Y40700D01*
X36700Y41450D02*
X36700Y40700D01*
X37700Y40700D01*
X36700Y42700D02*
X36700Y41783D01*
X36700Y41617D02*
X37033Y41617D01*
X36783Y41533D02*
X36700Y41617D01*
X36700Y42700D02*
X37700Y42700D01*
X33939Y42946D02*
X34018Y42867D01*
X34097Y42867D01*
X34176Y42946D01*
X33939Y43182D01*
X34018Y43261D01*
X34097Y43261D01*
X34176Y43182D01*
X34294Y43261D02*
X34333Y42867D01*
X34412Y43024D01*
X34491Y42867D01*
X34530Y43261D01*
X34687Y43182D02*
X34766Y43261D01*
X34766Y42867D01*
X34648Y42867D02*
X34884Y42867D01*
X32560Y43600D02*
X32340Y43600D01*
X32330Y40900D02*
X32490Y40900D01*
X33410Y43600D02*
X33630Y43600D01*
X33630Y40890D01*
X33400Y40900D01*
X32340Y43600D02*
X32330Y40900D01*
X44906Y27873D02*
X44906Y28170D01*
X45128Y28170D01*
X45239Y28111D01*
X45239Y28081D01*
X45128Y28021D01*
X44906Y28021D01*
X44961Y28021D02*
X45239Y27873D01*
X45406Y27932D02*
X45517Y27873D01*
X45628Y27873D01*
X45739Y27932D01*
X45739Y28051D01*
X45739Y28111D01*
X45628Y28170D01*
X45517Y28170D01*
X45406Y28111D01*
X45406Y28051D01*
X45517Y27992D01*
X45628Y27992D01*
X45739Y28051D01*
X43783Y26850D02*
X43783Y28350D01*
X44617Y26850D02*
X44617Y28350D01*
X44200Y28850D02*
X43700Y28767D01*
X43700Y28433D02*
X43783Y28350D01*
X43700Y28767D02*
X43700Y28433D01*
X44200Y29100D02*
X44200Y28850D01*
X44700Y28767D01*
X44700Y28433D01*
X44617Y28350D01*
X44200Y26350D02*
X44200Y26100D01*
X44200Y26350D02*
X43700Y26433D01*
X43700Y26767D02*
X43783Y26850D01*
X43700Y26433D02*
X43700Y26767D01*
X44200Y26350D02*
X44700Y26433D01*
X44700Y26767D02*
X44617Y26850D01*
X44700Y26433D02*
X44700Y26767D01*
X48939Y20561D02*
X48939Y20246D01*
X49018Y20167D01*
X49096Y20167D01*
X49174Y20246D01*
X49174Y20561D01*
X49527Y20324D02*
X49292Y20324D01*
X49488Y20561D01*
X49488Y20167D01*
X49449Y20167D02*
X49527Y20167D01*
X49377Y20809D02*
X49377Y29391D01*
X47223Y29391D02*
X47223Y20809D01*
X49377Y29391D02*
X47223Y29391D01*
X47223Y20809D02*
X49377Y20809D01*
X48289Y17732D02*
X48178Y17673D01*
X48067Y17673D01*
X47956Y17732D01*
X47956Y17911D01*
X48067Y17970D01*
X48178Y17970D01*
X48289Y17911D01*
X48733Y17970D02*
X48567Y17970D01*
X48456Y17911D01*
X48456Y17792D01*
X48456Y17732D01*
X48567Y17673D01*
X48678Y17673D01*
X48789Y17732D01*
X48789Y17792D01*
X48678Y17851D01*
X48567Y17851D01*
X48456Y17792D01*
X47800Y19300D02*
X47756Y19298D01*
X47713Y19292D01*
X47671Y19283D01*
X47629Y19270D01*
X47589Y19253D01*
X47550Y19233D01*
X47513Y19210D01*
X47479Y19183D01*
X47446Y19154D01*
X47417Y19121D01*
X47390Y19087D01*
X47367Y19050D01*
X47347Y19011D01*
X47330Y18971D01*
X47317Y18929D01*
X47308Y18887D01*
X47302Y18844D01*
X47300Y18800D01*
X47302Y18756D01*
X47308Y18713D01*
X47317Y18671D01*
X47330Y18629D01*
X47347Y18589D01*
X47367Y18550D01*
X47390Y18513D01*
X47417Y18479D01*
X47446Y18446D01*
X47479Y18417D01*
X47513Y18390D01*
X47550Y18367D01*
X47589Y18347D01*
X47629Y18330D01*
X47671Y18317D01*
X47713Y18308D01*
X47756Y18302D01*
X47800Y18300D01*
X48800Y18300D02*
X48844Y18302D01*
X48887Y18308D01*
X48929Y18317D01*
X48971Y18330D01*
X49011Y18347D01*
X49050Y18367D01*
X49087Y18390D01*
X49121Y18417D01*
X49154Y18446D01*
X49183Y18479D01*
X49210Y18513D01*
X49233Y18550D01*
X49253Y18589D01*
X49270Y18629D01*
X49283Y18671D01*
X49292Y18713D01*
X49298Y18756D01*
X49300Y18800D01*
X49298Y18844D01*
X49292Y18887D01*
X49283Y18929D01*
X49270Y18971D01*
X49253Y19011D01*
X49233Y19050D01*
X49210Y19087D01*
X49183Y19121D01*
X49154Y19154D01*
X49121Y19183D01*
X49087Y19210D01*
X49050Y19233D01*
X49011Y19253D01*
X48971Y19270D01*
X48929Y19283D01*
X48887Y19292D01*
X48844Y19298D01*
X48800Y19300D01*
X47800Y19300D01*
X48800Y18300D02*
X47800Y18300D01*
X18806Y3032D02*
X18917Y2973D01*
X19028Y2973D01*
X19139Y3032D01*
X19139Y3270D01*
X19306Y3211D02*
X19417Y3270D01*
X19528Y3270D01*
X19639Y3211D01*
X19639Y3181D01*
X19306Y2973D01*
X19639Y2973D01*
X19639Y3002D01*
X19806Y3211D02*
X19917Y3270D01*
X20028Y3270D01*
X20139Y3211D01*
X20139Y3181D01*
X19806Y2973D01*
X20139Y2973D01*
X20139Y3002D01*
X20100Y5500D02*
X20100Y3500D01*
X19100Y4250D02*
X19100Y3500D01*
X20100Y3500D01*
X19100Y5500D02*
X19100Y4583D01*
X19100Y4417D02*
X19433Y4417D01*
X19183Y4333D02*
X19100Y4417D01*
X19100Y5500D02*
X20100Y5500D01*
X16590Y2700D02*
X16590Y4890D01*
X17790Y2700D02*
X16590Y2700D01*
X17790Y4900D02*
X17790Y2700D01*
X16590Y4900D02*
X17780Y4900D01*
X15610Y7700D02*
X15610Y5510D01*
X14410Y7700D02*
X15610Y7700D01*
X14410Y5500D02*
X14410Y7700D01*
X15610Y5500D02*
X14420Y5500D01*
X11590Y2700D02*
X11590Y4890D01*
X12790Y2700D02*
X11590Y2700D01*
X12790Y4900D02*
X12790Y2700D01*
X11590Y4900D02*
X12780Y4900D01*
X15375Y10575D02*
G75*
D01*
G02X15375Y10575I1925J0*
G01*
X22410Y7700D02*
X22410Y5510D01*
X21210Y7700D02*
X22410Y7700D01*
X21210Y5500D02*
X21210Y7700D01*
X22410Y5500D02*
X21220Y5500D01*
X51806Y31432D02*
X51917Y31373D01*
X52028Y31373D01*
X52139Y31432D01*
X52139Y31670D01*
X52361Y31611D02*
X52472Y31670D01*
X52472Y31373D01*
X52306Y31373D02*
X52639Y31373D01*
X52806Y31611D02*
X52917Y31670D01*
X53028Y31670D01*
X53139Y31611D01*
X53139Y31432D01*
X53028Y31373D01*
X52917Y31373D01*
X52806Y31432D01*
X52806Y31611D01*
X53139Y31611D02*
X52806Y31432D01*
X54000Y31800D02*
X52000Y31800D01*
X52750Y32800D02*
X52000Y32800D01*
X52000Y31800D01*
X54000Y32800D02*
X53083Y32800D01*
X52917Y32800D02*
X52917Y32467D01*
X52833Y32717D02*
X52917Y32800D01*
X54000Y32800D02*
X54000Y31800D01*
X54484Y28971D02*
X54484Y29268D01*
X54706Y29268D01*
X54817Y29209D01*
X54817Y29179D01*
X54706Y29119D01*
X54484Y29119D01*
X54540Y29119D02*
X54817Y28971D01*
X55040Y29209D02*
X55151Y29268D01*
X55151Y28971D01*
X54984Y28971D02*
X55317Y28971D01*
X55484Y29209D02*
X55595Y29268D01*
X55706Y29268D01*
X55817Y29209D01*
X55817Y29030D01*
X55706Y28971D01*
X55595Y28971D01*
X55484Y29030D01*
X55484Y29209D01*
X55817Y29209D02*
X55484Y29030D01*
X53850Y30315D02*
X55350Y30315D01*
X53850Y29481D02*
X55350Y29481D01*
X55850Y29898D02*
X55767Y30398D01*
X55433Y30398D02*
X55350Y30315D01*
X55767Y30398D02*
X55433Y30398D01*
X56100Y29898D02*
X55850Y29898D01*
X55767Y29398D01*
X55433Y29398D01*
X55350Y29481D01*
X53350Y29898D02*
X53100Y29898D01*
X53350Y29898D02*
X53433Y30398D01*
X53767Y30398D02*
X53850Y30315D01*
X53433Y30398D02*
X53767Y30398D01*
X53350Y29898D02*
X53433Y29398D01*
X53767Y29398D02*
X53850Y29481D01*
X53433Y29398D02*
X53767Y29398D01*
X54456Y24538D02*
X54456Y24836D01*
X54678Y24836D01*
X54789Y24776D01*
X54789Y24747D01*
X54678Y24687D01*
X54456Y24687D01*
X54511Y24687D02*
X54789Y24538D01*
X55011Y24776D02*
X55122Y24836D01*
X55122Y24538D01*
X54956Y24538D02*
X55289Y24538D01*
X55511Y24806D02*
X55567Y24836D01*
X55678Y24836D01*
X55789Y24776D01*
X55789Y24717D01*
X55733Y24687D01*
X55789Y24657D01*
X55789Y24598D01*
X55678Y24538D01*
X55567Y24538D01*
X55511Y24568D01*
X55567Y24687D02*
X55733Y24687D01*
X53821Y26049D02*
X55321Y26049D01*
X53821Y25216D02*
X55321Y25216D01*
X55821Y25632D02*
X55738Y26132D01*
X55405Y26132D02*
X55321Y26049D01*
X55738Y26132D02*
X55405Y26132D01*
X56071Y25632D02*
X55821Y25632D01*
X55738Y25132D01*
X55405Y25132D01*
X55321Y25216D01*
X53321Y25632D02*
X53071Y25632D01*
X53321Y25632D02*
X53405Y26132D01*
X53738Y26132D02*
X53821Y26049D01*
X53405Y26132D02*
X53738Y26132D01*
X53321Y25632D02*
X53405Y25132D01*
X53738Y25132D02*
X53821Y25216D01*
X53405Y25132D02*
X53738Y25132D01*
X54556Y22472D02*
X54556Y22770D01*
X54778Y22770D01*
X54889Y22710D01*
X54889Y22680D01*
X54778Y22621D01*
X54556Y22621D01*
X54611Y22621D02*
X54889Y22472D01*
X55111Y22710D02*
X55222Y22770D01*
X55222Y22472D01*
X55056Y22472D02*
X55389Y22472D01*
X55833Y22770D02*
X55667Y22770D01*
X55556Y22710D01*
X55556Y22591D01*
X55556Y22532D01*
X55667Y22472D01*
X55778Y22472D01*
X55889Y22532D01*
X55889Y22591D01*
X55778Y22651D01*
X55667Y22651D01*
X55556Y22591D01*
X53821Y23916D02*
X55321Y23916D01*
X53821Y23083D02*
X55321Y23083D01*
X55821Y23499D02*
X55738Y23999D01*
X55405Y23999D02*
X55321Y23916D01*
X55738Y23999D02*
X55405Y23999D01*
X56071Y23499D02*
X55821Y23499D01*
X55738Y22999D01*
X55405Y22999D01*
X55321Y23083D01*
X53321Y23499D02*
X53071Y23499D01*
X53321Y23499D02*
X53405Y23999D01*
X53738Y23999D02*
X53821Y23916D01*
X53405Y23999D02*
X53738Y23999D01*
X53321Y23499D02*
X53405Y22999D01*
X53738Y22999D02*
X53821Y23083D01*
X53405Y22999D02*
X53738Y22999D01*
X54456Y20406D02*
X54456Y20703D01*
X54678Y20703D01*
X54789Y20644D01*
X54789Y20614D01*
X54678Y20555D01*
X54456Y20555D01*
X54511Y20555D02*
X54789Y20406D01*
X55011Y20644D02*
X55122Y20703D01*
X55122Y20406D01*
X54956Y20406D02*
X55289Y20406D01*
X55622Y20406D02*
X55622Y20555D01*
X55789Y20644D01*
X55789Y20703D01*
X55456Y20703D01*
X55456Y20644D01*
X53821Y21783D02*
X55321Y21783D01*
X53821Y20950D02*
X55321Y20950D01*
X55821Y21367D02*
X55738Y21867D01*
X55405Y21867D02*
X55321Y21783D01*
X55738Y21867D02*
X55405Y21867D01*
X56071Y21367D02*
X55821Y21367D01*
X55738Y20867D01*
X55405Y20867D01*
X55321Y20950D01*
X53321Y21367D02*
X53071Y21367D01*
X53321Y21367D02*
X53405Y21867D01*
X53738Y21867D02*
X53821Y21783D01*
X53405Y21867D02*
X53738Y21867D01*
X53321Y21367D02*
X53405Y20867D01*
X53738Y20867D02*
X53821Y20950D01*
X53405Y20867D02*
X53738Y20867D01*
X54384Y16174D02*
X54384Y16471D01*
X54606Y16471D01*
X54717Y16412D01*
X54717Y16382D01*
X54606Y16322D01*
X54384Y16322D01*
X54440Y16322D02*
X54717Y16174D01*
X54884Y16412D02*
X54995Y16471D01*
X55106Y16471D01*
X55217Y16412D01*
X55217Y16382D01*
X54884Y16174D01*
X55217Y16174D01*
X55217Y16203D01*
X55440Y16412D02*
X55551Y16471D01*
X55551Y16174D01*
X55384Y16174D02*
X55717Y16174D01*
X53850Y17518D02*
X55350Y17518D01*
X53850Y16684D02*
X55350Y16684D01*
X55850Y17101D02*
X55767Y17601D01*
X55433Y17601D02*
X55350Y17518D01*
X55767Y17601D02*
X55433Y17601D01*
X56100Y17101D02*
X55850Y17101D01*
X55767Y16601D01*
X55433Y16601D01*
X55350Y16684D01*
X53350Y17101D02*
X53100Y17101D01*
X53350Y17101D02*
X53433Y17601D01*
X53767Y17601D02*
X53850Y17518D01*
X53433Y17601D02*
X53767Y17601D01*
X53350Y17101D02*
X53433Y16601D01*
X53767Y16601D02*
X53850Y16684D01*
X53433Y16601D02*
X53767Y16601D01*
X57206Y31432D02*
X57317Y31373D01*
X57428Y31373D01*
X57539Y31432D01*
X57539Y31670D01*
X57761Y31611D02*
X57872Y31670D01*
X57872Y31373D01*
X57706Y31373D02*
X58039Y31373D01*
X58261Y31611D02*
X58372Y31670D01*
X58372Y31373D01*
X58206Y31373D02*
X58539Y31373D01*
X59400Y31800D02*
X57400Y31800D01*
X58150Y32800D02*
X57400Y32800D01*
X57400Y31800D01*
X59400Y32800D02*
X58483Y32800D01*
X58317Y32800D02*
X58317Y32467D01*
X58233Y32717D02*
X58317Y32800D01*
X59400Y32800D02*
X59400Y31800D01*
X62406Y31432D02*
X62517Y31373D01*
X62628Y31373D01*
X62739Y31432D01*
X62739Y31670D01*
X62961Y31611D02*
X63072Y31670D01*
X63072Y31373D01*
X62906Y31373D02*
X63239Y31373D01*
X63406Y31611D02*
X63517Y31670D01*
X63628Y31670D01*
X63739Y31611D01*
X63739Y31581D01*
X63406Y31373D01*
X63739Y31373D01*
X63739Y31402D01*
X64600Y31800D02*
X62600Y31800D01*
X63350Y32800D02*
X62600Y32800D01*
X62600Y31800D01*
X64600Y32800D02*
X63683Y32800D01*
X63517Y32800D02*
X63517Y32467D01*
X63433Y32717D02*
X63517Y32800D01*
X64600Y32800D02*
X64600Y31800D01*
X29756Y39432D02*
X29867Y39373D01*
X29978Y39373D01*
X30089Y39432D01*
X30089Y39670D01*
X30256Y39611D02*
X30367Y39670D01*
X30478Y39670D01*
X30589Y39611D01*
X30589Y39581D01*
X30256Y39373D01*
X30589Y39373D01*
X30589Y39402D01*
X30150Y40500D02*
X25650Y40500D01*
X25650Y44500D02*
X30150Y44500D01*
X25650Y40500D02*
X25650Y44500D01*
X26400Y41417D02*
X26400Y41750D01*
X26250Y43250D02*
X26250Y41850D01*
X26550Y41850D02*
X26550Y43250D01*
X26350Y42550D02*
X26350Y43150D01*
X26300Y42550D02*
X26300Y43200D01*
X26500Y43200D02*
X26500Y42550D01*
X26400Y42600D02*
X26400Y43100D01*
X26450Y43150D02*
X26450Y42600D01*
X25733Y43083D02*
X25734Y43076D01*
X25735Y43069D01*
X25736Y43062D01*
X25738Y43055D01*
X25741Y43048D01*
X25744Y43042D01*
X25748Y43036D01*
X25753Y43030D01*
X25758Y43024D01*
X25763Y43020D01*
X25769Y43015D01*
X25775Y43011D01*
X25781Y43008D01*
X25788Y43005D01*
X25795Y43003D01*
X25802Y43001D01*
X25809Y43000D01*
X25817Y43000D01*
X25824Y43000D01*
X25831Y43001D01*
X25838Y43003D01*
X25845Y43005D01*
X25852Y43008D01*
X25858Y43011D01*
X25864Y43015D01*
X25870Y43020D01*
X25876Y43024D01*
X25880Y43030D01*
X25885Y43036D01*
X25889Y43042D01*
X25892Y43048D01*
X25895Y43055D01*
X25897Y43062D01*
X25899Y43069D01*
X25900Y43076D01*
X25900Y43083D01*
X26150Y43000D02*
X25983Y43333D01*
X25983Y43000D01*
X26150Y43333D02*
X26150Y43000D01*
X25900Y43083D02*
X25900Y43250D01*
X25733Y43250D02*
X25733Y43083D01*
X26350Y43150D02*
X26450Y43150D01*
X26450Y42600D02*
X26400Y42600D01*
X26400Y41750D02*
X26317Y41667D01*
X26250Y41850D02*
X26550Y41850D01*
X26500Y42550D02*
X26350Y42550D01*
X26250Y42500D02*
X26550Y42500D01*
X25900Y43250D02*
X25900Y43257D01*
X25899Y43264D01*
X25897Y43272D01*
X25895Y43279D01*
X25892Y43285D01*
X25889Y43292D01*
X25885Y43298D01*
X25880Y43304D01*
X25876Y43309D01*
X25870Y43314D01*
X25864Y43318D01*
X25858Y43322D01*
X25852Y43326D01*
X25845Y43328D01*
X25838Y43330D01*
X25831Y43332D01*
X25824Y43333D01*
X25817Y43333D01*
X25809Y43333D01*
X25802Y43332D01*
X25795Y43330D01*
X25788Y43328D01*
X25781Y43326D01*
X25775Y43322D01*
X25769Y43318D01*
X25763Y43314D01*
X25758Y43309D01*
X25753Y43304D01*
X25748Y43298D01*
X25744Y43292D01*
X25741Y43285D01*
X25738Y43279D01*
X25736Y43272D01*
X25735Y43264D01*
X25734Y43257D01*
X25733Y43250D01*
X26550Y43250D02*
X26250Y43250D01*
X26300Y43200D02*
X26500Y43200D01*
X27400Y41583D02*
X27407Y41584D01*
X27414Y41585D01*
X27422Y41586D01*
X27429Y41588D01*
X27435Y41591D01*
X27442Y41594D01*
X27448Y41598D01*
X27454Y41603D01*
X27459Y41608D01*
X27464Y41613D01*
X27468Y41619D01*
X27472Y41625D01*
X27476Y41631D01*
X27478Y41638D01*
X27480Y41645D01*
X27482Y41652D01*
X27483Y41659D01*
X27483Y41667D01*
X27483Y41674D01*
X27482Y41681D01*
X27480Y41688D01*
X27478Y41695D01*
X27476Y41702D01*
X27472Y41708D01*
X27468Y41714D01*
X27464Y41720D01*
X27459Y41726D01*
X27454Y41730D01*
X27448Y41735D01*
X27442Y41739D01*
X27435Y41742D01*
X27429Y41745D01*
X27422Y41747D01*
X27414Y41749D01*
X27407Y41750D01*
X27400Y41750D01*
X27393Y41750D01*
X27386Y41749D01*
X27378Y41747D01*
X27371Y41745D01*
X27365Y41742D01*
X27358Y41739D01*
X27352Y41735D01*
X27346Y41730D01*
X27341Y41726D01*
X27336Y41720D01*
X27332Y41714D01*
X27328Y41708D01*
X27324Y41702D01*
X27322Y41695D01*
X27320Y41688D01*
X27318Y41681D01*
X27317Y41674D01*
X27317Y41667D01*
X27400Y41583D02*
X27393Y41583D01*
X27386Y41582D01*
X27378Y41580D01*
X27371Y41578D01*
X27365Y41576D01*
X27358Y41572D01*
X27352Y41568D01*
X27346Y41564D01*
X27341Y41559D01*
X27336Y41554D01*
X27332Y41548D01*
X27328Y41542D01*
X27324Y41535D01*
X27322Y41529D01*
X27320Y41522D01*
X27318Y41514D01*
X27317Y41507D01*
X27317Y41500D01*
X28317Y41500D02*
X28317Y41493D01*
X28318Y41486D01*
X28320Y41478D01*
X28322Y41471D01*
X28324Y41465D01*
X28328Y41458D01*
X28332Y41452D01*
X28336Y41446D01*
X28341Y41441D01*
X28346Y41436D01*
X28352Y41432D01*
X28358Y41428D01*
X28365Y41424D01*
X28371Y41422D01*
X28378Y41420D01*
X28386Y41418D01*
X28393Y41417D01*
X28400Y41417D01*
X28407Y41417D01*
X28414Y41418D01*
X28422Y41420D01*
X28429Y41422D01*
X28435Y41424D01*
X28442Y41428D01*
X28448Y41432D01*
X28454Y41436D01*
X28459Y41441D01*
X28464Y41446D01*
X28468Y41452D01*
X28472Y41458D01*
X28476Y41465D01*
X28478Y41471D01*
X28480Y41478D01*
X28482Y41486D01*
X28483Y41493D01*
X28483Y41500D01*
X28483Y41507D01*
X28482Y41514D01*
X28480Y41522D01*
X28478Y41529D01*
X28476Y41535D01*
X28472Y41542D01*
X28468Y41548D01*
X28464Y41554D01*
X28459Y41559D01*
X28454Y41564D01*
X28448Y41568D01*
X28442Y41572D01*
X28435Y41576D01*
X28429Y41578D01*
X28422Y41580D01*
X28414Y41582D01*
X28407Y41583D01*
X28400Y41583D01*
X29400Y41417D02*
X29400Y41583D01*
X28400Y41583D02*
X28407Y41584D01*
X28414Y41585D01*
X28422Y41586D01*
X28429Y41588D01*
X28435Y41591D01*
X28442Y41594D01*
X28448Y41598D01*
X28454Y41603D01*
X28459Y41608D01*
X28464Y41613D01*
X28468Y41619D01*
X28472Y41625D01*
X28476Y41631D01*
X28478Y41638D01*
X28480Y41645D01*
X28482Y41652D01*
X28483Y41659D01*
X28483Y41667D01*
X28483Y41674D01*
X28482Y41681D01*
X28480Y41688D01*
X28478Y41695D01*
X28476Y41702D01*
X28472Y41708D01*
X28468Y41714D01*
X28464Y41720D01*
X28459Y41726D01*
X28454Y41730D01*
X28448Y41735D01*
X28442Y41739D01*
X28435Y41742D01*
X28429Y41745D01*
X28422Y41747D01*
X28414Y41749D01*
X28407Y41750D01*
X28400Y41750D01*
X28393Y41750D01*
X28386Y41749D01*
X28378Y41747D01*
X28371Y41745D01*
X28365Y41742D01*
X28358Y41739D01*
X28352Y41735D01*
X28346Y41730D01*
X28341Y41726D01*
X28336Y41720D01*
X28332Y41714D01*
X28328Y41708D01*
X28324Y41702D01*
X28322Y41695D01*
X28320Y41688D01*
X28318Y41681D01*
X28317Y41674D01*
X28317Y41667D01*
X29317Y41583D02*
X29400Y41750D01*
X29317Y41500D02*
X29317Y41583D01*
X27483Y41417D02*
X27317Y41417D01*
X27317Y41500D01*
X29483Y41500D02*
X29317Y41500D01*
X27250Y43250D02*
X27250Y41850D01*
X27550Y41850D02*
X27550Y43250D01*
X27500Y43200D02*
X27500Y42550D01*
X27350Y42550D02*
X27350Y43150D01*
X27300Y42550D02*
X27300Y43200D01*
X27400Y42600D02*
X27400Y43100D01*
X27450Y43150D02*
X27450Y42600D01*
X27350Y43150D02*
X27450Y43150D01*
X27450Y42600D02*
X27400Y42600D01*
X27250Y41850D02*
X27550Y41850D01*
X27250Y42500D02*
X27550Y42500D01*
X27500Y42550D02*
X27350Y42550D01*
X27550Y43250D02*
X27250Y43250D01*
X27300Y43200D02*
X27500Y43200D01*
X28250Y43250D02*
X28250Y41850D01*
X28550Y41850D02*
X28550Y43250D01*
X29250Y43250D02*
X29250Y41850D01*
X29550Y41850D02*
X29550Y43250D01*
X28300Y42550D02*
X28300Y43200D01*
X28350Y42550D02*
X28350Y43150D01*
X28500Y43200D02*
X28500Y42550D01*
X28450Y43150D02*
X28450Y42600D01*
X28400Y42600D02*
X28400Y43100D01*
X29500Y43200D02*
X29500Y42550D01*
X29300Y42550D02*
X29300Y43200D01*
X29350Y42550D02*
X29350Y43150D01*
X29400Y42600D02*
X29400Y43100D01*
X29450Y43150D02*
X29450Y42600D01*
X28350Y43150D02*
X28450Y43150D01*
X29350Y43150D02*
X29450Y43150D01*
X28450Y42600D02*
X28400Y42600D01*
X29450Y42600D02*
X29400Y42600D01*
X28250Y41850D02*
X28550Y41850D01*
X29250Y41850D02*
X29550Y41850D01*
X28500Y42550D02*
X28350Y42550D01*
X28250Y42500D02*
X28550Y42500D01*
X29500Y42550D02*
X29350Y42550D01*
X29250Y42500D02*
X29550Y42500D01*
X28550Y43250D02*
X28250Y43250D01*
X28300Y43200D02*
X28500Y43200D01*
X29550Y43250D02*
X29250Y43250D01*
X29300Y43200D02*
X29500Y43200D01*
X30150Y44500D02*
X30150Y40500D01*
X63206Y34432D02*
X63317Y34373D01*
X63428Y34373D01*
X63539Y34432D01*
X63539Y34670D01*
X63872Y34373D02*
X63872Y34521D01*
X64039Y34611D01*
X64039Y34670D01*
X63706Y34670D01*
X63706Y34611D01*
X64600Y35000D02*
X62600Y35000D01*
X63350Y36000D02*
X62600Y36000D01*
X62600Y35000D01*
X64600Y36000D02*
X63683Y36000D01*
X63517Y36000D02*
X63517Y35667D01*
X63433Y35917D02*
X63517Y36000D01*
X64600Y36000D02*
X64600Y35000D01*
X47206Y34432D02*
X47317Y34373D01*
X47428Y34373D01*
X47539Y34432D01*
X47539Y34670D01*
X48039Y34492D02*
X47706Y34492D01*
X47983Y34670D01*
X47983Y34373D01*
X47928Y34373D02*
X48039Y34373D01*
X48800Y35000D02*
X46800Y35000D01*
X47550Y36000D02*
X46800Y36000D01*
X46800Y35000D01*
X48800Y36000D02*
X47883Y36000D01*
X47717Y36000D02*
X47717Y35667D01*
X47633Y35917D02*
X47717Y36000D01*
X48800Y36000D02*
X48800Y35000D01*
X44456Y11932D02*
X44567Y11873D01*
X44678Y11873D01*
X44789Y11932D01*
X44789Y12170D01*
X45011Y12111D02*
X45122Y12170D01*
X45122Y11873D01*
X44956Y11873D02*
X45289Y11873D01*
X45456Y11932D02*
X45567Y11873D01*
X45678Y11873D01*
X45789Y11932D01*
X45789Y12051D01*
X45789Y12111D01*
X45678Y12170D01*
X45567Y12170D01*
X45456Y12111D01*
X45456Y12051D01*
X45567Y11992D01*
X45678Y11992D01*
X45789Y12051D01*
X44300Y12900D02*
X44300Y10900D01*
X43300Y11650D02*
X43300Y10900D01*
X44300Y10900D01*
X43300Y12900D02*
X43300Y11983D01*
X43300Y11817D02*
X43633Y11817D01*
X43383Y11733D02*
X43300Y11817D01*
X43300Y12900D02*
X44300Y12900D01*
X54556Y11732D02*
X54667Y11673D01*
X54778Y11673D01*
X54889Y11732D01*
X54889Y11970D01*
X55056Y11911D02*
X55167Y11970D01*
X55278Y11970D01*
X55389Y11911D01*
X55389Y11881D01*
X55056Y11673D01*
X55389Y11673D01*
X55389Y11702D01*
X55556Y11911D02*
X55667Y11970D01*
X55778Y11970D01*
X55889Y11911D01*
X55889Y11732D01*
X55778Y11673D01*
X55667Y11673D01*
X55556Y11732D01*
X55556Y11911D01*
X55889Y11911D02*
X55556Y11732D01*
X54500Y12700D02*
X54500Y10700D01*
X53500Y11450D02*
X53500Y10700D01*
X54500Y10700D01*
X53500Y12700D02*
X53500Y11783D01*
X53500Y11617D02*
X53833Y11617D01*
X53583Y11533D02*
X53500Y11617D01*
X53500Y12700D02*
X54500Y12700D01*
X63656Y19270D02*
X63656Y19032D01*
X63767Y18973D01*
X63878Y18973D01*
X63989Y19032D01*
X63989Y19270D01*
X64489Y19270D02*
X64156Y19270D01*
X64156Y19151D01*
X64378Y19151D01*
X64489Y19092D01*
X64489Y19032D01*
X64378Y18973D01*
X64156Y18973D01*
X64200Y19700D02*
X64200Y26700D01*
X59200Y26700D02*
X59200Y19700D01*
X60783Y23200D02*
X60617Y20783D01*
X60950Y23117D02*
X60783Y20783D01*
X62450Y23117D02*
X62283Y20783D01*
X62617Y23200D02*
X62450Y20783D01*
X59200Y19700D02*
X64200Y19700D01*
X62450Y20783D02*
X62283Y20617D01*
X62283Y20783D02*
X62367Y20700D01*
X62283Y20783D02*
X60783Y20783D01*
X62283Y20617D02*
X60783Y20617D01*
X60617Y20783D02*
X60783Y20617D01*
X60783Y20783D02*
X60700Y20700D01*
X60450Y20453D02*
X60464Y20461D01*
X60477Y20470D01*
X60489Y20480D01*
X60501Y20492D01*
X60511Y20504D01*
X60520Y20517D01*
X60529Y20531D01*
X60535Y20545D01*
X60541Y20560D01*
X60545Y20575D01*
X60548Y20591D01*
X60550Y20607D01*
X60550Y20623D01*
X60549Y20639D01*
X60546Y20655D01*
X60542Y20670D01*
X60537Y20685D01*
X60530Y20700D01*
X60522Y20714D01*
X60513Y20727D01*
X60503Y20739D01*
X60492Y20751D01*
X60480Y20761D01*
X60467Y20770D01*
X60453Y20779D01*
X60438Y20785D01*
X60423Y20791D01*
X60408Y20795D01*
X60392Y20798D01*
X60376Y20800D01*
X60360Y20800D01*
X60344Y20799D01*
X60329Y20796D01*
X60313Y20792D01*
X60298Y20787D01*
X60283Y20780D01*
X60270Y20772D01*
X60256Y20763D01*
X60244Y20753D01*
X60233Y20742D01*
X60222Y20730D01*
X60213Y20717D01*
X60205Y20703D01*
X60198Y20688D01*
X60192Y20673D01*
X60188Y20658D01*
X60185Y20642D01*
X60184Y20626D01*
X60183Y20610D01*
X60185Y20594D01*
X60187Y20579D01*
X60191Y20563D01*
X60197Y20548D01*
X60202Y20536D01*
X62867Y20617D02*
X62866Y20631D01*
X62864Y20646D01*
X62861Y20660D01*
X62857Y20674D01*
X62851Y20687D01*
X62844Y20700D01*
X62837Y20712D01*
X62828Y20724D01*
X62818Y20735D01*
X62807Y20744D01*
X62796Y20753D01*
X62783Y20761D01*
X62770Y20768D01*
X62757Y20773D01*
X62743Y20778D01*
X62729Y20781D01*
X62715Y20783D01*
X62700Y20783D01*
X62685Y20783D01*
X62671Y20781D01*
X62657Y20778D01*
X62643Y20773D01*
X62630Y20768D01*
X62617Y20761D01*
X62604Y20753D01*
X62593Y20744D01*
X62582Y20735D01*
X62572Y20724D01*
X62563Y20712D01*
X62556Y20700D01*
X62549Y20687D01*
X62543Y20674D01*
X62539Y20660D01*
X62536Y20646D01*
X62534Y20631D01*
X62533Y20617D01*
X62534Y20602D01*
X62536Y20588D01*
X62539Y20574D01*
X62543Y20560D01*
X62549Y20546D01*
X62556Y20533D01*
X62563Y20521D01*
X62572Y20510D01*
X62582Y20499D01*
X62593Y20489D01*
X62604Y20480D01*
X62617Y20472D01*
X62630Y20466D01*
X62643Y20460D01*
X62657Y20456D01*
X62671Y20453D01*
X62685Y20451D01*
X62700Y20450D01*
X62715Y20451D01*
X62729Y20453D01*
X62743Y20456D01*
X62757Y20460D01*
X62770Y20466D01*
X62783Y20472D01*
X62796Y20480D01*
X62807Y20489D01*
X62818Y20499D01*
X62828Y20510D01*
X62837Y20521D01*
X62844Y20533D01*
X62851Y20546D01*
X62857Y20560D01*
X62861Y20574D01*
X62864Y20588D01*
X62866Y20602D01*
X62867Y20617D01*
X64200Y26700D02*
X59200Y26700D01*
X62450Y23283D02*
X60950Y23283D01*
X60950Y23117D02*
X62450Y23117D01*
X61117Y25783D02*
X62617Y25783D01*
X62617Y25950D02*
X61117Y25950D01*
X60950Y25783D01*
X60783Y23200D01*
X60950Y23117D01*
X60950Y23283D02*
X60783Y23200D01*
X60950Y23283D02*
X61117Y25783D01*
X61033Y25867D01*
X60700Y26367D02*
X60700Y26033D01*
X60617Y26283D02*
X60700Y26367D01*
X62783Y25700D02*
X62617Y25950D01*
X62617Y25783D02*
X62450Y23283D01*
X62617Y23200D02*
X62783Y25700D01*
X62617Y23200D02*
X62450Y23283D01*
X62450Y23117D02*
X62617Y23200D01*
X62617Y25783D02*
X62700Y25867D01*
X52156Y34532D02*
X52267Y34473D01*
X52378Y34473D01*
X52489Y34532D01*
X52489Y34770D01*
X52989Y34770D02*
X52656Y34770D01*
X52656Y34651D01*
X52878Y34651D01*
X52989Y34592D01*
X52989Y34532D01*
X52878Y34473D01*
X52656Y34473D01*
X54000Y35000D02*
X52000Y35000D01*
X52750Y36000D02*
X52000Y36000D01*
X52000Y35000D01*
X54000Y36000D02*
X53083Y36000D01*
X52917Y36000D02*
X52917Y35667D01*
X52833Y35917D02*
X52917Y36000D01*
X54000Y36000D02*
X54000Y35000D01*
X53922Y37370D02*
X53922Y37073D01*
X54256Y37073D01*
X54756Y37073D02*
X54422Y37073D01*
X54422Y37221D01*
X54422Y37370D01*
X54756Y37370D01*
X54422Y37221D02*
X54644Y37221D01*
X54922Y37073D02*
X55144Y37073D01*
X55256Y37132D01*
X55256Y37311D01*
X55144Y37370D01*
X54922Y37370D01*
X54978Y37370D02*
X54978Y37073D01*
X55422Y37311D02*
X55533Y37370D01*
X55644Y37370D01*
X55756Y37311D01*
X55756Y37281D01*
X55422Y37073D01*
X55756Y37073D01*
X55756Y37102D01*
X50994Y38179D02*
X51089Y38046D01*
X51195Y37921D01*
X51312Y37807D01*
X51438Y37703D01*
X51573Y37610D01*
X51715Y37529D01*
X51864Y37462D01*
X52018Y37407D01*
X52177Y37366D01*
X52338Y37339D01*
X52501Y37326D01*
X52665Y37328D01*
X52828Y37343D01*
X52988Y37373D01*
X53146Y37417D01*
X53299Y37474D01*
X53447Y37544D01*
X53588Y37627D01*
X53721Y37722D01*
X53845Y37829D01*
X53960Y37945D01*
X54064Y38072D01*
X54157Y38206D01*
X54237Y38349D01*
X54305Y38498D01*
X54360Y38652D01*
X54401Y38810D01*
X54428Y38971D01*
X54441Y39135D01*
X54439Y39298D01*
X54423Y39461D01*
X54394Y39622D01*
X54350Y39779D01*
X54293Y39933D01*
X54222Y40080D01*
X54139Y40221D01*
X54044Y40354D01*
X53938Y40479D01*
X53821Y40593D01*
X53695Y40697D01*
X53560Y40790D01*
X53418Y40871D01*
X53269Y40938D01*
X53115Y40993D01*
X52957Y41034D01*
X52795Y41061D01*
X52632Y41074D01*
X52469Y41072D01*
X52306Y41057D01*
X52145Y41027D01*
X51987Y40983D01*
X51834Y40926D01*
X51686Y40856D01*
X51545Y40773D01*
X51412Y40678D01*
X51288Y40571D01*
X51173Y40455D01*
X51069Y40328D01*
X50994Y40221D01*
X54150Y39200D02*
X54144Y39338D01*
X54126Y39475D01*
X54096Y39610D01*
X54055Y39742D01*
X54002Y39869D01*
X53938Y39992D01*
X53864Y40108D01*
X53780Y40218D01*
X53686Y40320D01*
X53584Y40413D01*
X53475Y40497D01*
X53358Y40571D01*
X53236Y40635D01*
X53108Y40688D01*
X52976Y40729D01*
X52842Y40759D01*
X52705Y40777D01*
X52567Y40783D01*
X52429Y40777D01*
X52292Y40759D01*
X52157Y40729D01*
X52025Y40688D01*
X51898Y40635D01*
X51775Y40571D01*
X51659Y40497D01*
X51549Y40413D01*
X51447Y40320D01*
X51354Y40218D01*
X51270Y40108D01*
X51195Y39992D01*
X51132Y39869D01*
X51079Y39742D01*
X51037Y39610D01*
X51007Y39475D01*
X50989Y39338D01*
X50983Y39200D01*
X50989Y39062D01*
X51007Y38925D01*
X51037Y38790D01*
X51079Y38658D01*
X51132Y38531D01*
X51195Y38408D01*
X51270Y38292D01*
X51354Y38182D01*
X51447Y38080D01*
X51549Y37987D01*
X51659Y37903D01*
X51775Y37829D01*
X51898Y37765D01*
X52025Y37712D01*
X52157Y37671D01*
X52292Y37641D01*
X52429Y37623D01*
X52567Y37617D01*
X52705Y37623D01*
X52842Y37641D01*
X52976Y37671D01*
X53108Y37712D01*
X53236Y37765D01*
X53358Y37829D01*
X53475Y37903D01*
X53584Y37987D01*
X53686Y38080D01*
X53780Y38182D01*
X53864Y38292D01*
X53938Y38408D01*
X54002Y38531D01*
X54055Y38658D01*
X54096Y38790D01*
X54126Y38925D01*
X54144Y39062D01*
X54150Y39200D01*
X54150Y39200D01*
X52983Y38450D02*
X52983Y38700D01*
X53150Y38700D02*
X53150Y38707D01*
X53149Y38714D01*
X53147Y38722D01*
X53145Y38729D01*
X53142Y38735D01*
X53139Y38742D01*
X53135Y38748D01*
X53131Y38754D01*
X53126Y38759D01*
X53120Y38764D01*
X53114Y38768D01*
X53108Y38772D01*
X53102Y38776D01*
X53095Y38778D01*
X53088Y38780D01*
X53081Y38782D01*
X53074Y38783D01*
X53067Y38783D01*
X53059Y38783D01*
X53052Y38782D01*
X53045Y38780D01*
X53038Y38778D01*
X53031Y38776D01*
X53025Y38772D01*
X53019Y38768D01*
X53013Y38764D01*
X53008Y38759D01*
X53003Y38754D01*
X52998Y38748D01*
X52994Y38742D01*
X52991Y38735D01*
X52988Y38729D01*
X52986Y38722D01*
X52985Y38714D01*
X52984Y38707D01*
X52983Y38700D01*
X52983Y38617D02*
X53150Y38617D01*
X50983Y40200D02*
X50983Y38200D01*
X51983Y38533D02*
X51984Y38526D01*
X51985Y38519D01*
X51986Y38512D01*
X51988Y38505D01*
X51991Y38498D01*
X51994Y38492D01*
X51998Y38486D01*
X52003Y38480D01*
X52008Y38474D01*
X52013Y38470D01*
X52019Y38465D01*
X52025Y38461D01*
X52031Y38458D01*
X52038Y38455D01*
X52045Y38453D01*
X52052Y38451D01*
X52059Y38450D01*
X52067Y38450D01*
X52074Y38450D01*
X52081Y38451D01*
X52088Y38453D01*
X52095Y38455D01*
X52102Y38458D01*
X52108Y38461D01*
X52114Y38465D01*
X52120Y38470D01*
X52126Y38474D01*
X52131Y38480D01*
X52135Y38486D01*
X52139Y38492D01*
X52142Y38498D01*
X52145Y38505D01*
X52147Y38512D01*
X52149Y38519D01*
X52150Y38526D01*
X52150Y38533D01*
X52150Y38533D01*
X52150Y38700D02*
X52150Y38707D01*
X52149Y38714D01*
X52147Y38722D01*
X52145Y38729D01*
X52142Y38735D01*
X52139Y38742D01*
X52135Y38748D01*
X52131Y38754D01*
X52126Y38759D01*
X52120Y38764D01*
X52114Y38768D01*
X52108Y38772D01*
X52102Y38776D01*
X52095Y38778D01*
X52088Y38780D01*
X52081Y38782D01*
X52074Y38783D01*
X52067Y38783D01*
X52059Y38783D01*
X52052Y38782D01*
X52045Y38780D01*
X52038Y38778D01*
X52031Y38776D01*
X52025Y38772D01*
X52019Y38768D01*
X52013Y38764D01*
X52008Y38759D01*
X52003Y38754D01*
X51998Y38748D01*
X51994Y38742D01*
X51991Y38735D01*
X51988Y38729D01*
X51986Y38722D01*
X51985Y38714D01*
X51984Y38707D01*
X51983Y38700D01*
X51983Y38533D02*
X51983Y38700D01*
X53150Y38450D02*
X53150Y38700D01*
X48556Y37570D02*
X48556Y37273D01*
X48889Y37273D01*
X49389Y37273D02*
X49056Y37273D01*
X49056Y37421D01*
X49056Y37570D01*
X49389Y37570D01*
X49056Y37421D02*
X49278Y37421D01*
X49556Y37273D02*
X49778Y37273D01*
X49889Y37332D01*
X49889Y37511D01*
X49778Y37570D01*
X49556Y37570D01*
X49611Y37570D02*
X49611Y37273D01*
X50111Y37511D02*
X50222Y37570D01*
X50222Y37273D01*
X50056Y37273D02*
X50389Y37273D01*
X45727Y38179D02*
X45822Y38046D01*
X45929Y37921D01*
X46045Y37807D01*
X46172Y37703D01*
X46306Y37610D01*
X46449Y37529D01*
X46598Y37462D01*
X46752Y37407D01*
X46910Y37366D01*
X47071Y37339D01*
X47235Y37326D01*
X47398Y37328D01*
X47561Y37343D01*
X47722Y37373D01*
X47879Y37417D01*
X48033Y37474D01*
X48180Y37544D01*
X48321Y37627D01*
X48454Y37722D01*
X48579Y37829D01*
X48693Y37945D01*
X48797Y38072D01*
X48890Y38206D01*
X48971Y38349D01*
X49038Y38498D01*
X49093Y38652D01*
X49134Y38810D01*
X49161Y38971D01*
X49174Y39135D01*
X49172Y39298D01*
X49157Y39461D01*
X49127Y39622D01*
X49083Y39779D01*
X49026Y39933D01*
X48956Y40080D01*
X48873Y40221D01*
X48778Y40354D01*
X48671Y40479D01*
X48555Y40593D01*
X48428Y40697D01*
X48294Y40790D01*
X48151Y40871D01*
X48002Y40938D01*
X47848Y40993D01*
X47690Y41034D01*
X47529Y41061D01*
X47365Y41074D01*
X47202Y41072D01*
X47039Y41057D01*
X46878Y41027D01*
X46721Y40983D01*
X46567Y40926D01*
X46420Y40856D01*
X46279Y40773D01*
X46146Y40678D01*
X46021Y40571D01*
X45907Y40455D01*
X45803Y40328D01*
X45727Y40221D01*
X48883Y39200D02*
X48877Y39338D01*
X48859Y39475D01*
X48829Y39610D01*
X48788Y39742D01*
X48735Y39869D01*
X48671Y39992D01*
X48597Y40108D01*
X48513Y40218D01*
X48420Y40320D01*
X48318Y40413D01*
X48208Y40497D01*
X48092Y40571D01*
X47969Y40635D01*
X47842Y40688D01*
X47710Y40729D01*
X47575Y40759D01*
X47438Y40777D01*
X47300Y40783D01*
X47162Y40777D01*
X47025Y40759D01*
X46890Y40729D01*
X46758Y40688D01*
X46631Y40635D01*
X46508Y40571D01*
X46392Y40497D01*
X46282Y40413D01*
X46180Y40320D01*
X46087Y40218D01*
X46003Y40108D01*
X45929Y39992D01*
X45865Y39869D01*
X45812Y39742D01*
X45771Y39610D01*
X45741Y39475D01*
X45723Y39338D01*
X45717Y39200D01*
X45723Y39062D01*
X45741Y38925D01*
X45771Y38790D01*
X45812Y38658D01*
X45865Y38531D01*
X45929Y38408D01*
X46003Y38292D01*
X46087Y38182D01*
X46180Y38080D01*
X46282Y37987D01*
X46392Y37903D01*
X46508Y37829D01*
X46631Y37765D01*
X46758Y37712D01*
X46890Y37671D01*
X47025Y37641D01*
X47162Y37623D01*
X47300Y37617D01*
X47438Y37623D01*
X47575Y37641D01*
X47710Y37671D01*
X47842Y37712D01*
X47969Y37765D01*
X48092Y37829D01*
X48208Y37903D01*
X48318Y37987D01*
X48420Y38080D01*
X48513Y38182D01*
X48597Y38292D01*
X48671Y38408D01*
X48735Y38531D01*
X48788Y38658D01*
X48829Y38790D01*
X48859Y38925D01*
X48877Y39062D01*
X48883Y39200D01*
X48883Y39200D01*
X47717Y38450D02*
X47717Y38700D01*
X47883Y38700D02*
X47883Y38707D01*
X47882Y38714D01*
X47880Y38722D01*
X47878Y38729D01*
X47876Y38735D01*
X47872Y38742D01*
X47868Y38748D01*
X47864Y38754D01*
X47859Y38759D01*
X47854Y38764D01*
X47848Y38768D01*
X47842Y38772D01*
X47835Y38776D01*
X47829Y38778D01*
X47822Y38780D01*
X47814Y38782D01*
X47807Y38783D01*
X47800Y38783D01*
X47793Y38783D01*
X47786Y38782D01*
X47778Y38780D01*
X47771Y38778D01*
X47765Y38776D01*
X47758Y38772D01*
X47752Y38768D01*
X47746Y38764D01*
X47741Y38759D01*
X47736Y38754D01*
X47732Y38748D01*
X47728Y38742D01*
X47724Y38735D01*
X47722Y38729D01*
X47720Y38722D01*
X47718Y38714D01*
X47717Y38707D01*
X47717Y38700D01*
X47717Y38617D02*
X47883Y38617D01*
X45717Y40200D02*
X45717Y38200D01*
X46717Y38533D02*
X46717Y38526D01*
X46718Y38519D01*
X46720Y38512D01*
X46722Y38505D01*
X46724Y38498D01*
X46728Y38492D01*
X46732Y38486D01*
X46736Y38480D01*
X46741Y38474D01*
X46746Y38470D01*
X46752Y38465D01*
X46758Y38461D01*
X46765Y38458D01*
X46771Y38455D01*
X46778Y38453D01*
X46786Y38451D01*
X46793Y38450D01*
X46800Y38450D01*
X46807Y38450D01*
X46814Y38451D01*
X46822Y38453D01*
X46829Y38455D01*
X46835Y38458D01*
X46842Y38461D01*
X46848Y38465D01*
X46854Y38470D01*
X46859Y38474D01*
X46864Y38480D01*
X46868Y38486D01*
X46872Y38492D01*
X46876Y38498D01*
X46878Y38505D01*
X46880Y38512D01*
X46882Y38519D01*
X46883Y38526D01*
X46883Y38533D01*
X46883Y38533D01*
X46883Y38700D02*
X46883Y38707D01*
X46882Y38714D01*
X46880Y38722D01*
X46878Y38729D01*
X46876Y38735D01*
X46872Y38742D01*
X46868Y38748D01*
X46864Y38754D01*
X46859Y38759D01*
X46854Y38764D01*
X46848Y38768D01*
X46842Y38772D01*
X46835Y38776D01*
X46829Y38778D01*
X46822Y38780D01*
X46814Y38782D01*
X46807Y38783D01*
X46800Y38783D01*
X46793Y38783D01*
X46786Y38782D01*
X46778Y38780D01*
X46771Y38778D01*
X46765Y38776D01*
X46758Y38772D01*
X46752Y38768D01*
X46746Y38764D01*
X46741Y38759D01*
X46736Y38754D01*
X46732Y38748D01*
X46728Y38742D01*
X46724Y38735D01*
X46722Y38729D01*
X46720Y38722D01*
X46718Y38714D01*
X46717Y38707D01*
X46717Y38700D01*
X46717Y38533D02*
X46717Y38700D01*
X47883Y38450D02*
X47883Y38700D01*
X59289Y37470D02*
X59289Y37173D01*
X59622Y37173D01*
X60122Y37173D02*
X59789Y37173D01*
X59789Y37321D01*
X59789Y37470D01*
X60122Y37470D01*
X59789Y37321D02*
X60011Y37321D01*
X60289Y37173D02*
X60511Y37173D01*
X60622Y37232D01*
X60622Y37411D01*
X60511Y37470D01*
X60289Y37470D01*
X60344Y37470D02*
X60344Y37173D01*
X60844Y37440D02*
X60900Y37470D01*
X61011Y37470D01*
X61122Y37411D01*
X61122Y37351D01*
X61067Y37321D01*
X61122Y37292D01*
X61122Y37232D01*
X61011Y37173D01*
X60900Y37173D01*
X60844Y37202D01*
X60900Y37321D02*
X61067Y37321D01*
X56261Y38179D02*
X56356Y38046D01*
X56462Y37921D01*
X56579Y37807D01*
X56705Y37703D01*
X56840Y37610D01*
X56982Y37529D01*
X57131Y37462D01*
X57285Y37407D01*
X57443Y37366D01*
X57605Y37339D01*
X57768Y37326D01*
X57931Y37328D01*
X58094Y37343D01*
X58255Y37373D01*
X58413Y37417D01*
X58566Y37474D01*
X58714Y37544D01*
X58855Y37627D01*
X58988Y37722D01*
X59112Y37829D01*
X59227Y37945D01*
X59331Y38072D01*
X59423Y38206D01*
X59504Y38349D01*
X59572Y38498D01*
X59626Y38652D01*
X59667Y38810D01*
X59694Y38971D01*
X59707Y39135D01*
X59706Y39298D01*
X59690Y39461D01*
X59660Y39622D01*
X59617Y39779D01*
X59559Y39933D01*
X59489Y40080D01*
X59406Y40221D01*
X59311Y40354D01*
X59205Y40479D01*
X59088Y40593D01*
X58962Y40697D01*
X58827Y40790D01*
X58685Y40871D01*
X58536Y40938D01*
X58382Y40993D01*
X58223Y41034D01*
X58062Y41061D01*
X57899Y41074D01*
X57735Y41072D01*
X57572Y41057D01*
X57412Y41027D01*
X57254Y40983D01*
X57101Y40926D01*
X56953Y40856D01*
X56812Y40773D01*
X56679Y40678D01*
X56555Y40571D01*
X56440Y40455D01*
X56336Y40328D01*
X56261Y40221D01*
X59417Y39200D02*
X59411Y39338D01*
X59393Y39475D01*
X59363Y39610D01*
X59321Y39742D01*
X59268Y39869D01*
X59205Y39992D01*
X59130Y40108D01*
X59046Y40218D01*
X58953Y40320D01*
X58851Y40413D01*
X58741Y40497D01*
X58625Y40571D01*
X58502Y40635D01*
X58375Y40688D01*
X58243Y40729D01*
X58108Y40759D01*
X57971Y40777D01*
X57833Y40783D01*
X57695Y40777D01*
X57558Y40759D01*
X57424Y40729D01*
X57292Y40688D01*
X57164Y40635D01*
X57042Y40571D01*
X56925Y40497D01*
X56816Y40413D01*
X56714Y40320D01*
X56620Y40218D01*
X56536Y40108D01*
X56462Y39992D01*
X56398Y39869D01*
X56345Y39742D01*
X56304Y39610D01*
X56274Y39475D01*
X56256Y39338D01*
X56250Y39200D01*
X56256Y39062D01*
X56274Y38925D01*
X56304Y38790D01*
X56345Y38658D01*
X56398Y38531D01*
X56462Y38408D01*
X56536Y38292D01*
X56620Y38182D01*
X56714Y38080D01*
X56816Y37987D01*
X56925Y37903D01*
X57042Y37829D01*
X57164Y37765D01*
X57292Y37712D01*
X57424Y37671D01*
X57558Y37641D01*
X57695Y37623D01*
X57833Y37617D01*
X57971Y37623D01*
X58108Y37641D01*
X58243Y37671D01*
X58375Y37712D01*
X58502Y37765D01*
X58625Y37829D01*
X58741Y37903D01*
X58851Y37987D01*
X58953Y38080D01*
X59046Y38182D01*
X59130Y38292D01*
X59205Y38408D01*
X59268Y38531D01*
X59321Y38658D01*
X59363Y38790D01*
X59393Y38925D01*
X59411Y39062D01*
X59417Y39200D01*
X59417Y39200D01*
X58250Y38450D02*
X58250Y38700D01*
X58417Y38700D02*
X58416Y38707D01*
X58415Y38714D01*
X58414Y38722D01*
X58412Y38729D01*
X58409Y38735D01*
X58406Y38742D01*
X58402Y38748D01*
X58397Y38754D01*
X58392Y38759D01*
X58387Y38764D01*
X58381Y38768D01*
X58375Y38772D01*
X58369Y38776D01*
X58362Y38778D01*
X58355Y38780D01*
X58348Y38782D01*
X58341Y38783D01*
X58333Y38783D01*
X58326Y38783D01*
X58319Y38782D01*
X58312Y38780D01*
X58305Y38778D01*
X58298Y38776D01*
X58292Y38772D01*
X58286Y38768D01*
X58280Y38764D01*
X58274Y38759D01*
X58269Y38754D01*
X58265Y38748D01*
X58261Y38742D01*
X58258Y38735D01*
X58255Y38729D01*
X58253Y38722D01*
X58251Y38714D01*
X58250Y38707D01*
X58250Y38700D01*
X58250Y38617D02*
X58417Y38617D01*
X56250Y40200D02*
X56250Y38200D01*
X57250Y38533D02*
X57250Y38526D01*
X57251Y38519D01*
X57253Y38512D01*
X57255Y38505D01*
X57258Y38498D01*
X57261Y38492D01*
X57265Y38486D01*
X57269Y38480D01*
X57274Y38474D01*
X57280Y38470D01*
X57286Y38465D01*
X57292Y38461D01*
X57298Y38458D01*
X57305Y38455D01*
X57312Y38453D01*
X57319Y38451D01*
X57326Y38450D01*
X57333Y38450D01*
X57341Y38450D01*
X57348Y38451D01*
X57355Y38453D01*
X57362Y38455D01*
X57369Y38458D01*
X57375Y38461D01*
X57381Y38465D01*
X57387Y38470D01*
X57392Y38474D01*
X57397Y38480D01*
X57402Y38486D01*
X57406Y38492D01*
X57409Y38498D01*
X57412Y38505D01*
X57414Y38512D01*
X57415Y38519D01*
X57416Y38526D01*
X57417Y38533D01*
X57417Y38533D01*
X57417Y38700D02*
X57416Y38707D01*
X57415Y38714D01*
X57414Y38722D01*
X57412Y38729D01*
X57409Y38735D01*
X57406Y38742D01*
X57402Y38748D01*
X57397Y38754D01*
X57392Y38759D01*
X57387Y38764D01*
X57381Y38768D01*
X57375Y38772D01*
X57369Y38776D01*
X57362Y38778D01*
X57355Y38780D01*
X57348Y38782D01*
X57341Y38783D01*
X57333Y38783D01*
X57326Y38783D01*
X57319Y38782D01*
X57312Y38780D01*
X57305Y38778D01*
X57298Y38776D01*
X57292Y38772D01*
X57286Y38768D01*
X57280Y38764D01*
X57274Y38759D01*
X57269Y38754D01*
X57265Y38748D01*
X57261Y38742D01*
X57258Y38735D01*
X57255Y38729D01*
X57253Y38722D01*
X57251Y38714D01*
X57250Y38707D01*
X57250Y38700D01*
X57250Y38533D02*
X57250Y38700D01*
X58417Y38450D02*
X58417Y38700D01*
X64456Y37470D02*
X64456Y37173D01*
X64789Y37173D01*
X65289Y37173D02*
X64956Y37173D01*
X64956Y37321D01*
X64956Y37470D01*
X65289Y37470D01*
X64956Y37321D02*
X65178Y37321D01*
X65456Y37173D02*
X65678Y37173D01*
X65789Y37232D01*
X65789Y37411D01*
X65678Y37470D01*
X65456Y37470D01*
X65511Y37470D02*
X65511Y37173D01*
X66289Y37292D02*
X65956Y37292D01*
X66233Y37470D01*
X66233Y37173D01*
X66178Y37173D02*
X66289Y37173D01*
X61527Y38179D02*
X61622Y38046D01*
X61729Y37921D01*
X61845Y37807D01*
X61972Y37703D01*
X62106Y37610D01*
X62249Y37529D01*
X62398Y37462D01*
X62552Y37407D01*
X62710Y37366D01*
X62871Y37339D01*
X63035Y37326D01*
X63198Y37328D01*
X63361Y37343D01*
X63522Y37373D01*
X63679Y37417D01*
X63833Y37474D01*
X63980Y37544D01*
X64121Y37627D01*
X64254Y37722D01*
X64379Y37829D01*
X64493Y37945D01*
X64597Y38072D01*
X64690Y38206D01*
X64771Y38349D01*
X64838Y38498D01*
X64893Y38652D01*
X64934Y38810D01*
X64961Y38971D01*
X64974Y39135D01*
X64972Y39298D01*
X64957Y39461D01*
X64927Y39622D01*
X64883Y39779D01*
X64826Y39933D01*
X64756Y40080D01*
X64673Y40221D01*
X64578Y40354D01*
X64471Y40479D01*
X64355Y40593D01*
X64228Y40697D01*
X64094Y40790D01*
X63951Y40871D01*
X63802Y40938D01*
X63648Y40993D01*
X63490Y41034D01*
X63329Y41061D01*
X63165Y41074D01*
X63002Y41072D01*
X62839Y41057D01*
X62678Y41027D01*
X62521Y40983D01*
X62367Y40926D01*
X62220Y40856D01*
X62079Y40773D01*
X61946Y40678D01*
X61821Y40571D01*
X61707Y40455D01*
X61603Y40328D01*
X61527Y40221D01*
X64683Y39200D02*
X64677Y39338D01*
X64659Y39475D01*
X64629Y39610D01*
X64588Y39742D01*
X64535Y39869D01*
X64471Y39992D01*
X64397Y40108D01*
X64313Y40218D01*
X64220Y40320D01*
X64118Y40413D01*
X64008Y40497D01*
X63892Y40571D01*
X63769Y40635D01*
X63642Y40688D01*
X63510Y40729D01*
X63375Y40759D01*
X63238Y40777D01*
X63100Y40783D01*
X62962Y40777D01*
X62825Y40759D01*
X62690Y40729D01*
X62558Y40688D01*
X62431Y40635D01*
X62308Y40571D01*
X62192Y40497D01*
X62082Y40413D01*
X61980Y40320D01*
X61887Y40218D01*
X61803Y40108D01*
X61729Y39992D01*
X61665Y39869D01*
X61612Y39742D01*
X61571Y39610D01*
X61541Y39475D01*
X61523Y39338D01*
X61517Y39200D01*
X61523Y39062D01*
X61541Y38925D01*
X61571Y38790D01*
X61612Y38658D01*
X61665Y38531D01*
X61729Y38408D01*
X61803Y38292D01*
X61887Y38182D01*
X61980Y38080D01*
X62082Y37987D01*
X62192Y37903D01*
X62308Y37829D01*
X62431Y37765D01*
X62558Y37712D01*
X62690Y37671D01*
X62825Y37641D01*
X62962Y37623D01*
X63100Y37617D01*
X63238Y37623D01*
X63375Y37641D01*
X63510Y37671D01*
X63642Y37712D01*
X63769Y37765D01*
X63892Y37829D01*
X64008Y37903D01*
X64118Y37987D01*
X64220Y38080D01*
X64313Y38182D01*
X64397Y38292D01*
X64471Y38408D01*
X64535Y38531D01*
X64588Y38658D01*
X64629Y38790D01*
X64659Y38925D01*
X64677Y39062D01*
X64683Y39200D01*
X64683Y39200D01*
X63517Y38450D02*
X63517Y38700D01*
X63683Y38700D02*
X63683Y38707D01*
X63682Y38714D01*
X63680Y38722D01*
X63678Y38729D01*
X63676Y38735D01*
X63672Y38742D01*
X63668Y38748D01*
X63664Y38754D01*
X63659Y38759D01*
X63654Y38764D01*
X63648Y38768D01*
X63642Y38772D01*
X63635Y38776D01*
X63629Y38778D01*
X63622Y38780D01*
X63614Y38782D01*
X63607Y38783D01*
X63600Y38783D01*
X63593Y38783D01*
X63586Y38782D01*
X63578Y38780D01*
X63571Y38778D01*
X63565Y38776D01*
X63558Y38772D01*
X63552Y38768D01*
X63546Y38764D01*
X63541Y38759D01*
X63536Y38754D01*
X63532Y38748D01*
X63528Y38742D01*
X63524Y38735D01*
X63522Y38729D01*
X63520Y38722D01*
X63518Y38714D01*
X63517Y38707D01*
X63517Y38700D01*
X63517Y38617D02*
X63683Y38617D01*
X61517Y40200D02*
X61517Y38200D01*
X62517Y38533D02*
X62517Y38526D01*
X62518Y38519D01*
X62520Y38512D01*
X62522Y38505D01*
X62524Y38498D01*
X62528Y38492D01*
X62532Y38486D01*
X62536Y38480D01*
X62541Y38474D01*
X62546Y38470D01*
X62552Y38465D01*
X62558Y38461D01*
X62565Y38458D01*
X62571Y38455D01*
X62578Y38453D01*
X62586Y38451D01*
X62593Y38450D01*
X62600Y38450D01*
X62607Y38450D01*
X62614Y38451D01*
X62622Y38453D01*
X62629Y38455D01*
X62635Y38458D01*
X62642Y38461D01*
X62648Y38465D01*
X62654Y38470D01*
X62659Y38474D01*
X62664Y38480D01*
X62668Y38486D01*
X62672Y38492D01*
X62676Y38498D01*
X62678Y38505D01*
X62680Y38512D01*
X62682Y38519D01*
X62683Y38526D01*
X62683Y38533D01*
X62683Y38533D01*
X62683Y38700D02*
X62683Y38707D01*
X62682Y38714D01*
X62680Y38722D01*
X62678Y38729D01*
X62676Y38735D01*
X62672Y38742D01*
X62668Y38748D01*
X62664Y38754D01*
X62659Y38759D01*
X62654Y38764D01*
X62648Y38768D01*
X62642Y38772D01*
X62635Y38776D01*
X62629Y38778D01*
X62622Y38780D01*
X62614Y38782D01*
X62607Y38783D01*
X62600Y38783D01*
X62593Y38783D01*
X62586Y38782D01*
X62578Y38780D01*
X62571Y38778D01*
X62565Y38776D01*
X62558Y38772D01*
X62552Y38768D01*
X62546Y38764D01*
X62541Y38759D01*
X62536Y38754D01*
X62532Y38748D01*
X62528Y38742D01*
X62524Y38735D01*
X62522Y38729D01*
X62520Y38722D01*
X62518Y38714D01*
X62517Y38707D01*
X62517Y38700D01*
X62517Y38533D02*
X62517Y38700D01*
X63683Y38450D02*
X63683Y38700D01*
X57456Y34632D02*
X57567Y34573D01*
X57678Y34573D01*
X57789Y34632D01*
X57789Y34870D01*
X58233Y34870D02*
X58067Y34870D01*
X57956Y34811D01*
X57956Y34692D01*
X57956Y34632D01*
X58067Y34573D01*
X58178Y34573D01*
X58289Y34632D01*
X58289Y34692D01*
X58178Y34751D01*
X58067Y34751D01*
X57956Y34692D01*
X59400Y35000D02*
X57400Y35000D01*
X58150Y36000D02*
X57400Y36000D01*
X57400Y35000D01*
X59400Y36000D02*
X58483Y36000D01*
X58317Y36000D02*
X58317Y35667D01*
X58233Y35917D02*
X58317Y36000D01*
X59400Y36000D02*
X59400Y35000D01*
X30006Y31432D02*
X30117Y31373D01*
X30228Y31373D01*
X30339Y31432D01*
X30339Y31670D01*
X30728Y31373D02*
X30617Y31373D01*
X30506Y31432D01*
X30506Y31492D01*
X30561Y31521D01*
X30506Y31551D01*
X30506Y31611D01*
X30617Y31670D01*
X30728Y31670D01*
X30839Y31611D01*
X30839Y31551D01*
X30783Y31521D01*
X30839Y31492D01*
X30839Y31432D01*
X30728Y31373D01*
X30561Y31521D02*
X30783Y31521D01*
X30900Y33900D02*
X30900Y31900D01*
X29900Y32650D02*
X29900Y31900D01*
X30900Y31900D01*
X29900Y33900D02*
X29900Y32983D01*
X29900Y32817D02*
X30233Y32817D01*
X29983Y32733D02*
X29900Y32817D01*
X29900Y33900D02*
X30900Y33900D01*
X46856Y31432D02*
X46967Y31373D01*
X47078Y31373D01*
X47189Y31432D01*
X47189Y31670D01*
X47356Y31432D02*
X47467Y31373D01*
X47578Y31373D01*
X47689Y31432D01*
X47689Y31551D01*
X47689Y31611D01*
X47578Y31670D01*
X47467Y31670D01*
X47356Y31611D01*
X47356Y31551D01*
X47467Y31492D01*
X47578Y31492D01*
X47689Y31551D01*
X48800Y31800D02*
X46800Y31800D01*
X47550Y32800D02*
X46800Y32800D01*
X46800Y31800D01*
X48800Y32800D02*
X47883Y32800D01*
X47717Y32800D02*
X47717Y32467D01*
X47633Y32717D02*
X47717Y32800D01*
X48800Y32800D02*
X48800Y31800D01*
X11806Y12132D02*
X11917Y12073D01*
X12028Y12073D01*
X12139Y12132D01*
X12139Y12370D01*
X12361Y12311D02*
X12472Y12370D01*
X12472Y12073D01*
X12306Y12073D02*
X12639Y12073D01*
X13083Y12370D02*
X12917Y12370D01*
X12806Y12311D01*
X12806Y12192D01*
X12806Y12132D01*
X12917Y12073D01*
X13028Y12073D01*
X13139Y12132D01*
X13139Y12192D01*
X13028Y12251D01*
X12917Y12251D01*
X12806Y12192D01*
X12900Y14700D02*
X12900Y12700D01*
X11900Y13450D02*
X11900Y12700D01*
X12900Y12700D01*
X11900Y14700D02*
X11900Y13783D01*
X11900Y13617D02*
X12233Y13617D01*
X11983Y13533D02*
X11900Y13617D01*
X11900Y14700D02*
X12900Y14700D01*
X24006Y12032D02*
X24117Y11973D01*
X24228Y11973D01*
X24339Y12032D01*
X24339Y12270D01*
X24561Y12211D02*
X24672Y12270D01*
X24672Y11973D01*
X24506Y11973D02*
X24839Y11973D01*
X25172Y11973D02*
X25172Y12121D01*
X25339Y12211D01*
X25339Y12270D01*
X25006Y12270D01*
X25006Y12211D01*
X24300Y14500D02*
X24300Y12500D01*
X23300Y13250D02*
X23300Y12500D01*
X24300Y12500D01*
X23300Y14500D02*
X23300Y13583D01*
X23300Y13417D02*
X23633Y13417D01*
X23383Y13333D02*
X23300Y13417D01*
X23300Y14500D02*
X24300Y14500D01*
X23806Y1632D02*
X23917Y1573D01*
X24028Y1573D01*
X24139Y1632D01*
X24139Y1870D01*
X24306Y1811D02*
X24417Y1870D01*
X24528Y1870D01*
X24639Y1811D01*
X24639Y1781D01*
X24306Y1573D01*
X24639Y1573D01*
X24639Y1602D01*
X24861Y1840D02*
X24917Y1870D01*
X25028Y1870D01*
X25139Y1811D01*
X25139Y1751D01*
X25083Y1721D01*
X25139Y1692D01*
X25139Y1632D01*
X25028Y1573D01*
X24917Y1573D01*
X24861Y1602D01*
X24917Y1721D02*
X25083Y1721D01*
X25100Y4300D02*
X25100Y2300D01*
X24100Y3050D02*
X24100Y2300D01*
X25100Y2300D01*
X24100Y4300D02*
X24100Y3383D01*
X24100Y3217D02*
X24433Y3217D01*
X24183Y3133D02*
X24100Y3217D01*
X24100Y4300D02*
X25100Y4300D01*
X33506Y30873D02*
X33506Y31170D01*
X33728Y31170D01*
X33839Y31111D01*
X33839Y31081D01*
X33728Y31021D01*
X33506Y31021D01*
X33561Y31021D02*
X33839Y30873D01*
X34228Y30873D02*
X34117Y30873D01*
X34006Y30932D01*
X34006Y30992D01*
X34061Y31021D01*
X34006Y31051D01*
X34006Y31111D01*
X34117Y31170D01*
X34228Y31170D01*
X34339Y31111D01*
X34339Y31051D01*
X34283Y31021D01*
X34339Y30992D01*
X34339Y30932D01*
X34228Y30873D01*
X34061Y31021D02*
X34283Y31021D01*
X32383Y29650D02*
X32383Y31150D01*
X33217Y29650D02*
X33217Y31150D01*
X32800Y31650D02*
X32300Y31567D01*
X32300Y31233D02*
X32383Y31150D01*
X32300Y31567D02*
X32300Y31233D01*
X32800Y31900D02*
X32800Y31650D01*
X33300Y31567D01*
X33300Y31233D01*
X33217Y31150D01*
X32800Y29150D02*
X32800Y28900D01*
X32800Y29150D02*
X32300Y29233D01*
X32300Y29567D02*
X32383Y29650D01*
X32300Y29233D02*
X32300Y29567D01*
X32800Y29150D02*
X33300Y29233D01*
X33300Y29567D02*
X33217Y29650D01*
X33300Y29233D02*
X33300Y29567D01*
X37639Y22332D02*
X37528Y22273D01*
X37417Y22273D01*
X37306Y22332D01*
X37306Y22511D01*
X37417Y22570D01*
X37528Y22570D01*
X37639Y22511D01*
X38139Y22392D02*
X37806Y22392D01*
X38083Y22570D01*
X38083Y22273D01*
X38028Y22273D02*
X38139Y22273D01*
X38400Y22700D02*
X38444Y22702D01*
X38487Y22708D01*
X38529Y22717D01*
X38571Y22730D01*
X38611Y22747D01*
X38650Y22767D01*
X38687Y22790D01*
X38721Y22817D01*
X38754Y22846D01*
X38783Y22879D01*
X38810Y22913D01*
X38833Y22950D01*
X38853Y22989D01*
X38870Y23029D01*
X38883Y23071D01*
X38892Y23113D01*
X38898Y23156D01*
X38900Y23200D01*
X38898Y23244D01*
X38892Y23287D01*
X38883Y23329D01*
X38870Y23371D01*
X38853Y23411D01*
X38833Y23450D01*
X38810Y23487D01*
X38783Y23521D01*
X38754Y23554D01*
X38721Y23583D01*
X38687Y23610D01*
X38650Y23633D01*
X38611Y23653D01*
X38571Y23670D01*
X38529Y23683D01*
X38487Y23692D01*
X38444Y23698D01*
X38400Y23700D01*
X37400Y23700D02*
X37356Y23698D01*
X37313Y23692D01*
X37271Y23683D01*
X37229Y23670D01*
X37189Y23653D01*
X37150Y23633D01*
X37113Y23610D01*
X37079Y23583D01*
X37046Y23554D01*
X37017Y23521D01*
X36990Y23487D01*
X36967Y23450D01*
X36947Y23411D01*
X36930Y23371D01*
X36917Y23329D01*
X36908Y23287D01*
X36902Y23244D01*
X36900Y23200D01*
X36902Y23156D01*
X36908Y23113D01*
X36917Y23071D01*
X36930Y23029D01*
X36947Y22989D01*
X36967Y22950D01*
X36990Y22913D01*
X37017Y22879D01*
X37046Y22846D01*
X37079Y22817D01*
X37113Y22790D01*
X37150Y22767D01*
X37189Y22747D01*
X37229Y22730D01*
X37271Y22717D01*
X37313Y22708D01*
X37356Y22702D01*
X37400Y22700D01*
X38400Y22700D01*
X37400Y23700D02*
X38400Y23700D01*
X38839Y24561D02*
X38839Y24246D01*
X38918Y24167D01*
X38996Y24167D01*
X39074Y24246D01*
X39074Y24561D01*
X39231Y24521D02*
X39270Y24561D01*
X39349Y24561D01*
X39427Y24482D01*
X39427Y24403D01*
X39388Y24364D01*
X39427Y24324D01*
X39427Y24246D01*
X39349Y24167D01*
X39270Y24167D01*
X39231Y24206D01*
X39270Y24364D02*
X39388Y24364D01*
X38975Y24800D02*
X38975Y32800D01*
X36825Y32800D02*
X36825Y24800D01*
X38975Y32800D02*
X36825Y32800D01*
X36825Y24800D02*
X38975Y24800D01*
X16049Y40461D02*
X15989Y40572D01*
X15989Y40683D01*
X16049Y40794D01*
X16227Y40794D01*
X16287Y40683D01*
X16287Y40572D01*
X16227Y40461D01*
X16227Y40239D02*
X16287Y40128D01*
X15989Y40128D01*
X15989Y40294D02*
X15989Y39961D01*
X15631Y40833D02*
X15589Y40947D01*
X15536Y41057D01*
X15474Y41162D01*
X15403Y41262D01*
X15324Y41355D01*
X15237Y41440D01*
X15143Y41518D01*
X15042Y41587D01*
X14936Y41647D01*
X14824Y41698D01*
X14709Y41739D01*
X14591Y41769D01*
X14471Y41790D01*
X14349Y41799D01*
X14227Y41798D01*
X14105Y41786D01*
X13985Y41764D01*
X13867Y41731D01*
X13753Y41689D01*
X13643Y41636D01*
X13538Y41574D01*
X13438Y41503D01*
X13345Y41424D01*
X13260Y41337D01*
X13182Y41243D01*
X13113Y41142D01*
X13053Y41036D01*
X13002Y40924D01*
X12961Y40809D01*
X12931Y40691D01*
X12910Y40571D01*
X12901Y40449D01*
X12902Y40327D01*
X12914Y40205D01*
X12936Y40085D01*
X12969Y39967D01*
X13011Y39853D01*
X13064Y39743D01*
X13126Y39638D01*
X13197Y39538D01*
X13276Y39445D01*
X13363Y39360D01*
X13457Y39282D01*
X13558Y39213D01*
X13664Y39153D01*
X13776Y39102D01*
X13891Y39061D01*
X14009Y39031D01*
X14129Y39010D01*
X14251Y39001D01*
X14373Y39002D01*
X14495Y39014D01*
X14615Y39036D01*
X14733Y39069D01*
X14847Y39111D01*
X14957Y39164D01*
X15062Y39226D01*
X15162Y39297D01*
X15255Y39376D01*
X15340Y39463D01*
X15418Y39557D01*
X15487Y39658D01*
X15547Y39764D01*
X15598Y39876D01*
X14300Y41650D02*
X14191Y41645D01*
X14083Y41631D01*
X13976Y41607D01*
X13872Y41575D01*
X13772Y41533D01*
X13675Y41483D01*
X13583Y41424D01*
X13497Y41358D01*
X13416Y41284D01*
X13342Y41203D01*
X13276Y41117D01*
X13217Y41025D01*
X13167Y40928D01*
X13125Y40828D01*
X13093Y40724D01*
X13069Y40617D01*
X13055Y40509D01*
X13050Y40400D01*
X14100Y40700D02*
X14100Y40100D01*
X15800Y40400D02*
X15300Y40400D01*
X14350Y40700D02*
X14550Y40700D01*
X14350Y40100D02*
X14550Y40100D01*
X14550Y40700D02*
X14550Y40550D01*
X15550Y40150D02*
X15550Y40650D01*
X14550Y40100D02*
X14550Y40250D01*
X14350Y40100D02*
X14350Y40700D01*
X14150Y40100D02*
X14150Y40700D01*
X14200Y40700D02*
X14200Y40100D01*
X14300Y39150D02*
X14409Y39155D01*
X14517Y39169D01*
X14624Y39193D01*
X14728Y39225D01*
X14828Y39267D01*
X14925Y39317D01*
X15017Y39376D01*
X15103Y39442D01*
X15184Y39516D01*
X15258Y39597D01*
X15324Y39683D01*
X15383Y39775D01*
X15433Y39872D01*
X15459Y39932D01*
X54484Y26804D02*
X54484Y27102D01*
X54706Y27102D01*
X54817Y27042D01*
X54817Y27013D01*
X54706Y26953D01*
X54484Y26953D01*
X54540Y26953D02*
X54817Y26804D01*
X55040Y27042D02*
X55151Y27102D01*
X55151Y26804D01*
X54984Y26804D02*
X55317Y26804D01*
X55540Y27042D02*
X55651Y27102D01*
X55651Y26804D01*
X55484Y26804D02*
X55817Y26804D01*
X53850Y28182D02*
X55350Y28182D01*
X53850Y27348D02*
X55350Y27348D01*
X55850Y27765D02*
X55767Y28265D01*
X55433Y28265D02*
X55350Y28182D01*
X55767Y28265D02*
X55433Y28265D01*
X56100Y27765D02*
X55850Y27765D01*
X55767Y27265D01*
X55433Y27265D01*
X55350Y27348D01*
X53350Y27765D02*
X53100Y27765D01*
X53350Y27765D02*
X53433Y28265D01*
X53767Y28265D02*
X53850Y28182D01*
X53433Y28265D02*
X53767Y28265D01*
X53350Y27765D02*
X53433Y27265D01*
X53767Y27265D02*
X53850Y27348D01*
X53433Y27265D02*
X53767Y27265D01*
X52764Y43981D02*
X52764Y44279D01*
X52986Y44279D01*
X53097Y44219D01*
X53097Y44189D01*
X52986Y44130D01*
X52764Y44130D01*
X52819Y44130D02*
X53097Y43981D01*
X53264Y44219D02*
X53375Y44279D01*
X53486Y44279D01*
X53597Y44219D01*
X53597Y44189D01*
X53264Y43981D01*
X53597Y43981D01*
X53597Y44011D01*
X52417Y45550D02*
X52417Y44050D01*
X51583Y45550D02*
X51583Y44050D01*
X52000Y43550D02*
X52500Y43633D01*
X52500Y43967D02*
X52417Y44050D01*
X52500Y43633D02*
X52500Y43967D01*
X52000Y43300D02*
X52000Y43550D01*
X51500Y43633D01*
X51500Y43967D01*
X51583Y44050D01*
X52000Y46050D02*
X52000Y46300D01*
X52000Y46050D02*
X52500Y45967D01*
X52500Y45633D02*
X52417Y45550D01*
X52500Y45967D02*
X52500Y45633D01*
X52000Y46050D02*
X51500Y45967D01*
X51500Y45633D02*
X51583Y45550D01*
X51500Y45967D02*
X51500Y45633D01*
X58164Y43981D02*
X58164Y44279D01*
X58386Y44279D01*
X58497Y44219D01*
X58497Y44189D01*
X58386Y44130D01*
X58164Y44130D01*
X58219Y44130D02*
X58497Y43981D01*
X58719Y44249D02*
X58775Y44279D01*
X58886Y44279D01*
X58997Y44219D01*
X58997Y44160D01*
X58942Y44130D01*
X58997Y44100D01*
X58997Y44040D01*
X58886Y43981D01*
X58775Y43981D01*
X58719Y44011D01*
X58775Y44130D02*
X58942Y44130D01*
X57817Y45550D02*
X57817Y44050D01*
X56983Y45550D02*
X56983Y44050D01*
X57400Y43550D02*
X57900Y43633D01*
X57900Y43967D02*
X57817Y44050D01*
X57900Y43633D02*
X57900Y43967D01*
X57400Y43300D02*
X57400Y43550D01*
X56900Y43633D01*
X56900Y43967D01*
X56983Y44050D01*
X57400Y46050D02*
X57400Y46300D01*
X57400Y46050D02*
X57900Y45967D01*
X57900Y45633D02*
X57817Y45550D01*
X57900Y45967D02*
X57900Y45633D01*
X57400Y46050D02*
X56900Y45967D01*
X56900Y45633D02*
X56983Y45550D01*
X56900Y45967D02*
X56900Y45633D01*
X40331Y42632D02*
X39269Y42632D01*
X39269Y39640D02*
X40331Y39640D01*
X39793Y42651D02*
X39793Y42908D01*
X39793Y39601D02*
X39793Y39365D01*
X39269Y42632D02*
X39269Y39640D01*
X40331Y39640D02*
X40331Y42632D01*
X20606Y34832D02*
X20717Y34773D01*
X20828Y34773D01*
X20939Y34832D01*
X20939Y35070D01*
X21161Y35011D02*
X21272Y35070D01*
X21272Y34773D01*
X21106Y34773D02*
X21439Y34773D01*
X21939Y34892D02*
X21606Y34892D01*
X21883Y35070D01*
X21883Y34773D01*
X21828Y34773D02*
X21939Y34773D01*
X20700Y35500D02*
X20700Y37500D01*
X21700Y36750D02*
X21700Y37500D01*
X20700Y37500D01*
X21700Y35500D02*
X21700Y36417D01*
X21700Y36583D02*
X21367Y36583D01*
X21617Y36667D02*
X21700Y36583D01*
X21700Y35500D02*
X20700Y35500D01*
X9885Y43636D02*
X9885Y43321D01*
X9964Y43243D01*
X10043Y43243D01*
X10121Y43321D01*
X10121Y43636D01*
X10279Y43557D02*
X10357Y43636D01*
X10357Y43243D01*
X10239Y43243D02*
X10476Y43243D01*
X11309Y42377D02*
X11309Y42613D01*
X11388Y42771D01*
X11467Y42771D01*
X11546Y42613D01*
X11546Y42377D01*
X11309Y42495D02*
X11546Y42495D01*
X11900Y42456D02*
X11821Y42377D01*
X11742Y42377D01*
X11664Y42456D01*
X11664Y42534D01*
X11742Y42613D01*
X11821Y42613D01*
X11900Y42534D01*
X11900Y42771D02*
X11900Y42377D01*
X12057Y42653D02*
X12176Y42653D01*
X12215Y42613D01*
X12215Y42416D01*
X12176Y42377D01*
X12057Y42377D01*
X12018Y42416D01*
X12018Y42495D01*
X12057Y42534D01*
X12215Y42534D01*
X12215Y42416D02*
X12254Y42377D01*
X12372Y42377D02*
X12372Y42771D01*
X12609Y42771D01*
X12372Y42574D02*
X12530Y42574D01*
X12727Y42534D02*
X12845Y42653D01*
X12884Y42653D01*
X12963Y42574D01*
X12727Y42377D02*
X12727Y42653D01*
X13081Y42653D02*
X13081Y42456D01*
X13160Y42377D01*
X13239Y42377D01*
X13317Y42456D01*
X13317Y42653D01*
X13317Y42456D02*
X13317Y42377D01*
X13553Y42377D02*
X13553Y42613D01*
X13553Y42692D02*
X13553Y42731D01*
X13987Y42416D02*
X13947Y42377D01*
X13908Y42416D01*
X13908Y42771D01*
X13829Y42653D02*
X13987Y42653D01*
X14144Y42377D02*
X14301Y42377D01*
X14380Y42456D01*
X14380Y42495D01*
X14301Y42574D01*
X14380Y42653D01*
X14380Y42692D01*
X14301Y42771D01*
X14183Y42771D01*
X14144Y42771D01*
X14183Y42574D02*
X14301Y42574D01*
X14183Y42771D02*
X14183Y42377D01*
X14498Y42534D02*
X14616Y42653D01*
X14656Y42653D01*
X14735Y42574D01*
X14498Y42377D02*
X14498Y42653D01*
X15089Y42456D02*
X15010Y42377D01*
X14931Y42377D01*
X14853Y42456D01*
X14853Y42574D01*
X14931Y42653D01*
X15010Y42653D01*
X15089Y42574D01*
X15050Y42534D01*
X14853Y42534D01*
X15246Y42653D02*
X15364Y42653D01*
X15404Y42613D01*
X15404Y42416D01*
X15364Y42377D01*
X15246Y42377D01*
X15207Y42416D01*
X15207Y42495D01*
X15246Y42534D01*
X15404Y42534D01*
X15404Y42416D02*
X15443Y42377D01*
X15561Y42534D02*
X15640Y42534D01*
X15758Y42653D01*
X15640Y42534D02*
X15758Y42377D01*
X15561Y42377D02*
X15561Y42771D01*
X15916Y42456D02*
X15994Y42377D01*
X16073Y42377D01*
X16152Y42456D01*
X16152Y42574D01*
X16073Y42653D01*
X15994Y42653D01*
X15916Y42574D01*
X15916Y42456D01*
X16270Y42653D02*
X16270Y42456D01*
X16349Y42377D01*
X16427Y42377D01*
X16506Y42456D01*
X16506Y42653D01*
X16506Y42456D02*
X16506Y42377D01*
X16821Y42416D02*
X16782Y42377D01*
X16742Y42416D01*
X16742Y42771D01*
X16664Y42653D02*
X16821Y42653D01*
X30889Y19649D02*
X30778Y19589D01*
X30667Y19589D01*
X30556Y19649D01*
X30556Y19827D01*
X30667Y19887D01*
X30778Y19887D01*
X30889Y19827D01*
X31389Y19887D02*
X31056Y19887D01*
X31056Y19768D01*
X31278Y19768D01*
X31389Y19708D01*
X31389Y19649D01*
X31278Y19589D01*
X31056Y19589D01*
X31400Y19350D02*
X37650Y19350D01*
X31400Y15850D02*
X37650Y15850D01*
X37233Y17600D02*
X36733Y17600D01*
X37900Y19100D02*
X37900Y16100D01*
X37567Y16017D02*
X37567Y19183D01*
X38150Y17683D02*
X38483Y17683D01*
X38150Y17517D02*
X38483Y17517D01*
X37900Y19100D02*
X37899Y19122D01*
X37896Y19143D01*
X37891Y19165D01*
X37885Y19186D01*
X37877Y19206D01*
X37867Y19225D01*
X37855Y19243D01*
X37842Y19261D01*
X37827Y19277D01*
X37811Y19292D01*
X37793Y19305D01*
X37775Y19317D01*
X37756Y19327D01*
X37736Y19335D01*
X37715Y19341D01*
X37693Y19346D01*
X37672Y19349D01*
X37650Y19350D01*
X37650Y19350D01*
X37900Y17100D02*
X38150Y17100D01*
X38150Y18100D02*
X37900Y18100D01*
X38150Y17100D02*
X38150Y18100D01*
X37650Y15850D02*
X37672Y15851D01*
X37693Y15854D01*
X37715Y15859D01*
X37736Y15865D01*
X37756Y15873D01*
X37775Y15883D01*
X37793Y15895D01*
X37811Y15908D01*
X37827Y15923D01*
X37842Y15939D01*
X37855Y15957D01*
X37867Y15975D01*
X37877Y15994D01*
X37885Y16014D01*
X37891Y16035D01*
X37896Y16057D01*
X37899Y16078D01*
X37900Y16100D01*
X37900Y16100D01*
X30400Y17683D02*
X29733Y17683D01*
X30400Y17517D02*
X29733Y17517D01*
X30400Y15850D02*
X30400Y19350D01*
X30900Y19350D01*
X30900Y15850D02*
X30400Y15850D01*
X31400Y15850D02*
X31400Y19350D01*
X30900Y15850D02*
X30900Y19350D01*
X34500Y17900D02*
X34500Y17300D01*
X34550Y17600D02*
X34750Y17600D01*
X34550Y17300D02*
X34550Y17900D01*
X34150Y17900D02*
X34300Y17900D01*
X34150Y17300D02*
X34300Y17300D01*
X34450Y17300D02*
X34450Y17900D01*
X34300Y17300D02*
X34300Y17900D01*
X34150Y17600D02*
X33950Y17600D01*
X34150Y17300D02*
X34150Y17900D01*
X31733Y17600D02*
X32233Y17600D01*
X31983Y17850D02*
X31983Y17350D01*
X30900Y19350D02*
X30901Y19328D01*
X30904Y19307D01*
X30909Y19285D01*
X30915Y19264D01*
X30923Y19244D01*
X30933Y19225D01*
X30945Y19207D01*
X30958Y19189D01*
X30973Y19173D01*
X30989Y19158D01*
X31007Y19145D01*
X31025Y19133D01*
X31044Y19123D01*
X31064Y19115D01*
X31085Y19109D01*
X31107Y19104D01*
X31128Y19101D01*
X31150Y19100D01*
X31172Y19101D01*
X31193Y19104D01*
X31215Y19109D01*
X31236Y19115D01*
X31256Y19123D01*
X31275Y19133D01*
X31293Y19145D01*
X31311Y19158D01*
X31327Y19173D01*
X31342Y19189D01*
X31355Y19207D01*
X31367Y19225D01*
X31377Y19244D01*
X31385Y19264D01*
X31391Y19285D01*
X31396Y19307D01*
X31399Y19328D01*
X31400Y19350D01*
X31400Y15850D02*
X31399Y15872D01*
X31396Y15893D01*
X31391Y15915D01*
X31385Y15936D01*
X31377Y15956D01*
X31367Y15975D01*
X31355Y15993D01*
X31342Y16011D01*
X31327Y16027D01*
X31311Y16042D01*
X31293Y16055D01*
X31275Y16067D01*
X31256Y16077D01*
X31236Y16085D01*
X31215Y16091D01*
X31193Y16096D01*
X31172Y16099D01*
X31150Y16100D01*
X31128Y16099D01*
X31107Y16096D01*
X31085Y16091D01*
X31064Y16085D01*
X31044Y16077D01*
X31025Y16067D01*
X31007Y16055D01*
X30989Y16042D01*
X30973Y16027D01*
X30958Y16011D01*
X30945Y15993D01*
X30933Y15975D01*
X30923Y15956D01*
X30915Y15936D01*
X30909Y15915D01*
X30904Y15893D01*
X30901Y15872D01*
X30900Y15850D01*
X23700Y8610D02*
X25890Y8610D01*
X23700Y7410D02*
X23700Y8610D01*
X25900Y7410D02*
X23700Y7410D01*
X25900Y8610D02*
X25900Y7420D01*
X34309Y9920D02*
X36491Y9920D01*
X36491Y12480D01*
X34309Y12480D01*
X34309Y9920D01*
X54556Y18242D02*
X54556Y18539D01*
X54778Y18539D01*
X54889Y18480D01*
X54889Y18450D01*
X54778Y18390D01*
X54556Y18390D01*
X54611Y18390D02*
X54889Y18242D01*
X55111Y18480D02*
X55222Y18539D01*
X55222Y18242D01*
X55056Y18242D02*
X55389Y18242D01*
X55778Y18242D02*
X55667Y18242D01*
X55556Y18301D01*
X55556Y18361D01*
X55611Y18390D01*
X55556Y18420D01*
X55556Y18480D01*
X55667Y18539D01*
X55778Y18539D01*
X55889Y18480D01*
X55889Y18420D01*
X55833Y18390D01*
X55889Y18361D01*
X55889Y18301D01*
X55778Y18242D01*
X55611Y18390D02*
X55833Y18390D01*
X53821Y19650D02*
X55321Y19650D01*
X53821Y18817D02*
X55321Y18817D01*
X55821Y19234D02*
X55738Y19734D01*
X55405Y19734D02*
X55321Y19650D01*
X55738Y19734D02*
X55405Y19734D01*
X56071Y19234D02*
X55821Y19234D01*
X55738Y18734D01*
X55405Y18734D01*
X55321Y18817D01*
X53321Y19234D02*
X53071Y19234D01*
X53321Y19234D02*
X53405Y19734D01*
X53738Y19734D02*
X53821Y19650D01*
X53405Y19734D02*
X53738Y19734D01*
X53321Y19234D02*
X53405Y18734D01*
X53738Y18734D02*
X53821Y18817D01*
X53405Y18734D02*
X53738Y18734D01*
G54D19*
X8170Y5235D02*
X9430Y5235D01*
X9430Y7165D02*
X8170Y7165D01*
X8170Y5235D01*
X9430Y5235D02*
X9430Y7165D01*
G54D20*
X8465Y6771D02*
G75*
D01*
G02X8465Y6771I99J0*
G01*
G54D21*
X7491Y7283D02*
G75*
D01*
G02X7491Y7283I49J0*
G01*
G54D22*
X13710Y4270D02*
X12940Y4270D01*
X13330Y3540D01*
X13720Y4270D01*
X13730Y3500D02*
X12920Y3500D01*
X13330Y3510D02*
X13330Y2840D01*
X13330Y4290D02*
X13330Y4880D01*
X10200Y46284D02*
X10200Y44516D01*
G75*
D01*
G03X11316Y43400I1116J0*
G01*
X17084Y43400D01*
G75*
D01*
G03X18200Y44516I0J1116*
G01*
X18200Y46284D01*
G74*
D01*
G03X17084Y47400I1116J0*
G01*
X11316Y47400D01*
G75*
D01*
G03X10200Y46284I0J-1116*
G01*
X25270Y6490D02*
X25270Y7260D01*
X24540Y6870D01*
X25270Y6480D01*
X24500Y6470D02*
X24500Y7280D01*
X24510Y6870D02*
X23840Y6870D01*
X25290Y6870D02*
X25880Y6870D01*
G54D23*
X40612Y40946D02*
X40780Y40946D01*
X40864Y41030D01*
X40864Y41283D01*
X40780Y41368D01*
X40612Y41368D01*
X40654Y41368D02*
X40654Y40946D01*
X41032Y41283D02*
X41116Y41368D01*
X41116Y40946D01*
X40990Y40946D02*
X41242Y40946D01*
G54D24*
G36*
X39300Y42300D02*
X39300Y42615D01*
X40300Y42615D01*
X40300Y42300D01*
X39300Y42300D01*
G37*
G54D25*
X39863Y39573D02*
X39947Y39573D01*
X40003Y39545D01*
X40003Y39517D01*
X39947Y39489D01*
X39863Y39489D01*
X39905Y39573D02*
X39905Y39489D01*
X40602Y43027D02*
X40630Y43055D01*
X40658Y43055D01*
X40686Y43027D01*
X40686Y42942D01*
X40658Y42914D01*
X40630Y42914D01*
X40602Y42942D01*
G54D26*
X-100Y-100D02*
X-100Y4670D01*
X-100Y-100D02*
X6795Y-100D01*
X68850Y-100D02*
X61955Y-100D01*
X68850Y-100D02*
X68850Y4670D01*
X68850Y47600D02*
X68850Y42830D01*
X68850Y47600D02*
X61955Y47600D01*
X-100Y47600D02*
X6795Y47600D01*
X-100Y47600D02*
X-100Y42830D01*
X-2069Y-100D02*
X-6006Y-100D01*
X-4037Y-2069D02*
X-4037Y1869D01*
X-5513Y-100D02*
G75*
D01*
G02X-5513Y-100I1476J0*
G01*
X70819Y-100D02*
X74756Y-100D01*
X72787Y-2069D02*
X72787Y1869D01*
X71311Y-100D02*
G75*
D01*
G02X71311Y-100I1476J0*
G01*
X72295Y-100D02*
G75*
D01*
G02X72295Y-100I492J0*
G01*
X-2069Y47600D02*
X-6006Y47600D01*
X-4037Y45631D02*
X-4037Y49569D01*
X-5513Y47600D02*
G75*
D01*
G02X-5513Y47600I1476J0*
G01*
X-5021Y47600D02*
G75*
D01*
G02X-5021Y47600I984J0*
G01*
X-4529Y47600D02*
G75*
D01*
G02X-4529Y47600I492J0*
G01*
G54D27*
X25850Y46150D03*
X39150Y46150D03*
G54D28*
X13700Y29498D03*
X46500Y29098D03*
X36000Y32398D03*
G54D29*
X14800Y29397D03*
X47600Y28997D03*
X37200Y32397D03*

M02*
