G04 Generated by Ultiboard 14.0 *
%FSLAX25Y25*%
%MOIN*%

%ADD10C,0.00001*%
%ADD11C,0.00005*%
%ADD12C,0.00500*%
%ADD13C,0.15000*%
%ADD14C,0.16971*%
%ADD15C,0.08500*%
%ADD16C,0.08000*%
%ADD17C,0.09000*%
%ADD18R,0.06300X0.08300*%
%ADD19C,0.01900*%
%ADD20R,0.06102X0.02362*%
%ADD21C,0.01200*%
%ADD22C,0.10000*%
%ADD23R,0.05083X0.05083*%
%ADD24C,0.03917*%
%ADD25R,0.08500X0.08500*%
%ADD26C,0.06000*%
%ADD27R,0.08300X0.06300*%
%ADD28R,0.05167X0.05167*%
%ADD29C,0.03333*%
%ADD30C,0.08334*%
%ADD31C,0.05166*%
%ADD32C,0.20000*%
%ADD33R,0.08000X0.08000*%
%ADD34C,0.07500*%
%ADD35C,0.04037*%


G04 ColorRGB FF00CC for the following layer *
%LNSolder Mask Top*%
%LPD*%
G54D10*
G54D11*
G36*
X284000Y100000D02*
X284000Y142000D01*
X334000Y142000D01*
X334000Y100000D01*
X284000Y100000D01*
G37*
G36*
X381000Y100000D02*
X381000Y142000D01*
X431000Y142000D01*
X431000Y100000D01*
X381000Y100000D01*
G37*
G36*
X477000Y100000D02*
X477000Y142000D01*
X527000Y142000D01*
X527000Y100000D01*
X477000Y100000D01*
G37*
G36*
X574000Y100000D02*
X574000Y142000D01*
X624000Y142000D01*
X624000Y100000D01*
X574000Y100000D01*
G37*
G36*
X206500Y95000D02*
X206500Y116000D01*
X221500Y116000D01*
X221500Y95000D01*
X206500Y95000D01*
G37*
G36*
X266500Y216000D02*
X266500Y237000D01*
X281500Y237000D01*
X281500Y216000D01*
X266500Y216000D01*
G37*
G36*
X88500Y101000D02*
X88500Y122000D01*
X103500Y122000D01*
X103500Y101000D01*
X88500Y101000D01*
G37*
G54D12*
X-1000Y-1000D02*
X-1000Y46700D01*
X-1000Y-1000D02*
X67950Y-1000D01*
X688500Y-1000D02*
X619550Y-1000D01*
X688500Y-1000D02*
X688500Y46700D01*
X688500Y476000D02*
X688500Y428300D01*
X688500Y476000D02*
X619550Y476000D01*
X-1000Y476000D02*
X67950Y476000D01*
X-1000Y476000D02*
X-1000Y428300D01*
X-20685Y-1000D02*
X-60055Y-1000D01*
X-40370Y-20685D02*
X-40370Y18685D01*
X-55134Y-1000D02*
G75*
D01*
G02X-55134Y-1000I14764J0*
G01*
X708185Y-1000D02*
X747555Y-1000D01*
X727870Y-20685D02*
X727870Y18685D01*
X713106Y-1000D02*
G75*
D01*
G02X713106Y-1000I14764J0*
G01*
X722949Y-1000D02*
G75*
D01*
G02X722949Y-1000I4921J0*
G01*
X-20685Y476000D02*
X-60055Y476000D01*
X-40370Y456315D02*
X-40370Y495685D01*
X-55134Y476000D02*
G75*
D01*
G02X-55134Y476000I14764J0*
G01*
X-50213Y476000D02*
G75*
D01*
G02X-50213Y476000I9843J0*
G01*
X-45291Y476000D02*
G75*
D01*
G02X-45291Y476000I4921J0*
G01*
G54D13*
X214000Y116000D03*
X214000Y95000D03*
X274000Y237000D03*
X274000Y216000D03*
X96000Y122000D03*
X96000Y101000D03*
G54D14*
X661000Y447000D03*
X25900Y448000D03*
G54D15*
X90000Y178000D03*
X100000Y178000D03*
X62000Y214000D03*
X140000Y220000D03*
X170000Y220000D03*
X140000Y230000D03*
X170000Y230000D03*
X140000Y240000D03*
X170000Y240000D03*
X140000Y250000D03*
X170000Y250000D03*
X140000Y260000D03*
X170000Y260000D03*
X140000Y270000D03*
X170000Y270000D03*
X140000Y280000D03*
X170000Y280000D03*
X170000Y290000D03*
X160000Y314000D03*
X150000Y314000D03*
X202000Y176000D03*
X212000Y176000D03*
X242000Y267000D03*
X242000Y292000D03*
X60000Y298000D03*
X372000Y422000D03*
X468000Y216000D03*
X498000Y216000D03*
X468000Y226000D03*
X498000Y226000D03*
X468000Y236000D03*
X498000Y236000D03*
X468000Y246000D03*
X498000Y246000D03*
X468000Y256000D03*
X498000Y256000D03*
X468000Y266000D03*
X498000Y266000D03*
X468000Y276000D03*
X498000Y276000D03*
X498000Y286000D03*
X488000Y188000D03*
X478000Y188000D03*
X196000Y50000D03*
X535000Y323000D03*
X589000Y323000D03*
X641000Y323000D03*
X274000Y410000D03*
X284000Y410000D03*
X294000Y410000D03*
X264000Y440000D03*
X274000Y440000D03*
X284000Y440000D03*
X294000Y440000D03*
X641000Y355000D03*
X483000Y355000D03*
X438000Y124000D03*
X540000Y122000D03*
X636000Y122000D03*
X602000Y202000D03*
X632000Y202000D03*
X602000Y212000D03*
X632000Y212000D03*
X602000Y222000D03*
X632000Y222000D03*
X602000Y232000D03*
X632000Y232000D03*
X602000Y242000D03*
X632000Y242000D03*
X602000Y252000D03*
X632000Y252000D03*
X602000Y262000D03*
X632000Y262000D03*
X246000Y82000D03*
X256000Y82000D03*
X535000Y355000D03*
X520667Y392000D03*
X530667Y392000D03*
X468000Y392000D03*
X478000Y392000D03*
X573333Y392000D03*
X583333Y392000D03*
X626000Y392000D03*
X636000Y392000D03*
X589000Y355000D03*
X304000Y334000D03*
X483000Y323000D03*
X124000Y142000D03*
X238000Y140000D03*
X246000Y38000D03*
X384000Y232000D03*
X374000Y232000D03*
X364000Y258000D03*
X394000Y258000D03*
X364000Y268000D03*
X394000Y268000D03*
X364000Y278000D03*
X394000Y278000D03*
X364000Y288000D03*
X394000Y288000D03*
X364000Y298000D03*
X394000Y298000D03*
X364000Y308000D03*
X394000Y308000D03*
X394000Y318000D03*
X398000Y388724D03*
X212000Y360000D03*
X342000Y123000D03*
X366000Y123000D03*
G54D16*
X62000Y178000D03*
X62000Y138000D03*
X110000Y236000D03*
X70000Y236000D03*
X110000Y262000D03*
X70000Y262000D03*
X192000Y290000D03*
X192000Y250000D03*
X170000Y186000D03*
X170000Y146000D03*
X216000Y276000D03*
X216000Y316000D03*
X626000Y428000D03*
X626000Y468000D03*
X468000Y428000D03*
X468000Y468000D03*
X344000Y348000D03*
X344000Y388000D03*
X442000Y296000D03*
X442000Y256000D03*
X566000Y298980D03*
X526000Y298980D03*
X565714Y256323D03*
X525714Y256323D03*
X565714Y234994D03*
X525714Y234994D03*
X565714Y213666D03*
X525714Y213666D03*
X566000Y171009D03*
X526000Y171009D03*
X328000Y324000D03*
X328000Y284000D03*
X566000Y277651D03*
X526000Y277651D03*
X520000Y428000D03*
X520000Y468000D03*
X574000Y428000D03*
X574000Y468000D03*
X132000Y439000D03*
X142000Y439000D03*
X152000Y439000D03*
X162000Y439000D03*
X565714Y192337D03*
X525714Y192337D03*
G54D17*
X39000Y106000D03*
X39000Y116000D03*
X39000Y96000D03*
X219000Y236000D03*
X219000Y226000D03*
X219000Y216000D03*
X163000Y106000D03*
X163000Y116000D03*
X163000Y96000D03*
G54D18*
X55500Y68000D03*
X44500Y68000D03*
X78500Y32000D03*
X89500Y32000D03*
X84500Y88000D03*
X95500Y88000D03*
G54D19*
X52350Y63850D02*
X58650Y63850D01*
X58650Y72150D01*
X52350Y72150D01*
X52350Y63850D01*D02*
X41350Y63850D02*
X47650Y63850D01*
X47650Y72150D01*
X41350Y72150D01*
X41350Y63850D01*D02*
X75350Y27850D02*
X81650Y27850D01*
X81650Y36150D01*
X75350Y36150D01*
X75350Y27850D01*D02*
X86350Y27850D02*
X92650Y27850D01*
X92650Y36150D01*
X86350Y36150D01*
X86350Y27850D01*D02*
X81350Y83850D02*
X87650Y83850D01*
X87650Y92150D01*
X81350Y92150D01*
X81350Y83850D01*D02*
X92350Y83850D02*
X98650Y83850D01*
X98650Y92150D01*
X92350Y92150D01*
X92350Y83850D01*D02*
X167850Y40350D02*
X176150Y40350D01*
X176150Y46650D01*
X167850Y46650D01*
X167850Y40350D01*D02*
X167850Y29350D02*
X176150Y29350D01*
X176150Y35650D01*
X167850Y35650D01*
X167850Y29350D01*D02*
X145850Y68350D02*
X154150Y68350D01*
X154150Y74650D01*
X145850Y74650D01*
X145850Y68350D01*D02*
X145850Y57350D02*
X154150Y57350D01*
X154150Y63650D01*
X145850Y63650D01*
X145850Y57350D01*D02*
X117850Y29350D02*
X126150Y29350D01*
X126150Y35650D01*
X117850Y35650D01*
X117850Y29350D01*D02*
X117850Y40350D02*
X126150Y40350D01*
X126150Y46650D01*
X117850Y46650D01*
X117850Y40350D01*D02*
X213850Y68350D02*
X222150Y68350D01*
X222150Y74650D01*
X213850Y74650D01*
X213850Y68350D01*D02*
X213850Y57350D02*
X222150Y57350D01*
X222150Y63650D01*
X213850Y63650D01*
X213850Y57350D01*D02*
G54D20*
X77370Y54500D03*
X77370Y59500D03*
X77370Y69500D03*
X77370Y64500D03*
X98630Y54500D03*
X98630Y59500D03*
X98630Y69500D03*
X98630Y64500D03*
G54D21*
X74319Y53319D02*
X80421Y53319D01*
X80421Y55681D01*
X74319Y55681D01*
X74319Y53319D01*D02*
X74319Y58319D02*
X80421Y58319D01*
X80421Y60681D01*
X74319Y60681D01*
X74319Y58319D01*D02*
X74319Y68319D02*
X80421Y68319D01*
X80421Y70681D01*
X74319Y70681D01*
X74319Y68319D01*D02*
X74319Y63319D02*
X80421Y63319D01*
X80421Y65681D01*
X74319Y65681D01*
X74319Y63319D01*D02*
X95579Y53319D02*
X101681Y53319D01*
X101681Y55681D01*
X95579Y55681D01*
X95579Y53319D01*D02*
X95579Y58319D02*
X101681Y58319D01*
X101681Y60681D01*
X95579Y60681D01*
X95579Y58319D01*D02*
X95579Y68319D02*
X101681Y68319D01*
X101681Y70681D01*
X95579Y70681D01*
X95579Y68319D01*D02*
X95579Y63319D02*
X101681Y63319D01*
X101681Y65681D01*
X95579Y65681D01*
X95579Y63319D01*D02*
G54D22*
X31800Y208000D03*
X31800Y180900D03*
X33800Y312000D03*
X33800Y284900D03*
X329800Y436000D03*
X329800Y408900D03*
G54D23*
X62000Y204000D03*
X60000Y308000D03*
X372000Y412000D03*
X196000Y40000D03*
X525000Y323000D03*
X579000Y323000D03*
X631000Y323000D03*
X631000Y355000D03*
X473000Y355000D03*
X438000Y114000D03*
X540000Y112000D03*
X636000Y112000D03*
X525000Y355000D03*
X579000Y355000D03*
X304000Y324000D03*
X473000Y323000D03*
X124000Y132000D03*
X238000Y130000D03*
X246000Y28000D03*
X212000Y370000D03*
X342000Y113000D03*
X366000Y113000D03*
G54D24*
X59459Y201459D02*
X64541Y201459D01*
X64541Y206541D01*
X59459Y206541D01*
X59459Y201459D01*D02*
X57459Y305459D02*
X62541Y305459D01*
X62541Y310541D01*
X57459Y310541D01*
X57459Y305459D01*D02*
X369459Y409459D02*
X374541Y409459D01*
X374541Y414541D01*
X369459Y414541D01*
X369459Y409459D01*D02*
X193459Y37459D02*
X198541Y37459D01*
X198541Y42541D01*
X193459Y42541D01*
X193459Y37459D01*D02*
X522459Y320459D02*
X527541Y320459D01*
X527541Y325541D01*
X522459Y325541D01*
X522459Y320459D01*D02*
X576459Y320459D02*
X581541Y320459D01*
X581541Y325541D01*
X576459Y325541D01*
X576459Y320459D01*D02*
X628459Y320459D02*
X633541Y320459D01*
X633541Y325541D01*
X628459Y325541D01*
X628459Y320459D01*D02*
X628459Y352459D02*
X633541Y352459D01*
X633541Y357541D01*
X628459Y357541D01*
X628459Y352459D01*D02*
X470459Y352459D02*
X475541Y352459D01*
X475541Y357541D01*
X470459Y357541D01*
X470459Y352459D01*D02*
X435459Y111459D02*
X440541Y111459D01*
X440541Y116541D01*
X435459Y116541D01*
X435459Y111459D01*D02*
X537459Y109459D02*
X542541Y109459D01*
X542541Y114541D01*
X537459Y114541D01*
X537459Y109459D01*D02*
X633459Y109459D02*
X638541Y109459D01*
X638541Y114541D01*
X633459Y114541D01*
X633459Y109459D01*D02*
X522459Y352459D02*
X527541Y352459D01*
X527541Y357541D01*
X522459Y357541D01*
X522459Y352459D01*D02*
X576459Y352459D02*
X581541Y352459D01*
X581541Y357541D01*
X576459Y357541D01*
X576459Y352459D01*D02*
X301459Y321459D02*
X306541Y321459D01*
X306541Y326541D01*
X301459Y326541D01*
X301459Y321459D01*D02*
X470459Y320459D02*
X475541Y320459D01*
X475541Y325541D01*
X470459Y325541D01*
X470459Y320459D01*D02*
X121459Y129459D02*
X126541Y129459D01*
X126541Y134541D01*
X121459Y134541D01*
X121459Y129459D01*D02*
X235459Y127459D02*
X240541Y127459D01*
X240541Y132541D01*
X235459Y132541D01*
X235459Y127459D01*D02*
X243459Y25459D02*
X248541Y25459D01*
X248541Y30541D01*
X243459Y30541D01*
X243459Y25459D01*D02*
X209459Y367459D02*
X214541Y367459D01*
X214541Y372541D01*
X209459Y372541D01*
X209459Y367459D01*D02*
X339459Y110459D02*
X344541Y110459D01*
X344541Y115541D01*
X339459Y115541D01*
X339459Y110459D01*D02*
X363459Y110459D02*
X368541Y110459D01*
X368541Y115541D01*
X363459Y115541D01*
X363459Y110459D01*D02*
G54D25*
X140000Y290000D03*
X468000Y286000D03*
X364000Y318000D03*
X398000Y434000D03*
G54D26*
X373000Y347000D03*
X368000Y352000D03*
X378000Y352000D03*
G54D27*
X172000Y43500D03*
X172000Y32500D03*
X150000Y71500D03*
X150000Y60500D03*
X122000Y32500D03*
X122000Y43500D03*
X218000Y71500D03*
X218000Y60500D03*
G54D28*
X264000Y410000D03*
G54D29*
X261417Y407417D02*
X266583Y407417D01*
X266583Y412583D01*
X261417Y412583D01*
X261417Y407417D01*D02*
G54D30*
X389000Y176000D03*
X294000Y176000D03*
G54D31*
X138000Y404000D03*
X148000Y404000D03*
G54D32*
X172000Y464000D03*
X112000Y464000D03*
G54D33*
X122000Y439000D03*
G54D34*
X96000Y120000D03*
X214000Y116000D03*
X214000Y96000D03*
X96000Y100000D03*
X274000Y217000D03*
X274000Y237000D03*
G54D35*
X110000Y54000D03*
X60000Y50000D03*
X86000Y46000D03*
X101000Y28000D03*
X171900Y56700D03*
X448000Y320000D03*
X235000Y440000D03*
X47000Y32000D03*
X275000Y252000D03*

M02*
