G04 Generated by Ultiboard 14.0 *
%FSLAX25Y25*%
%MOIN*%

%ADD10C,0.00001*%
%ADD11C,0.00005*%
%ADD12C,0.00500*%


G04 ColorRGB 00FFFF for the following layer *
%LNBoard Outline*%
%LPD*%
G54D10*
G54D11*
X0Y0D02*
X285000Y0D01*
X285000Y100000D01*
X297500Y100000D01*
X297500Y128100D01*
X319400Y128100D01*
X319400Y100000D01*
X394400Y100000D01*
X394400Y128100D01*
X416300Y128100D01*
X416300Y100000D01*
X491200Y100000D01*
X491200Y128100D01*
X513100Y128100D01*
X513100Y100000D01*
X588100Y100000D01*
X588100Y128100D01*
X610000Y128100D01*
X610000Y100000D01*
X687500Y100000D01*
X687500Y475000D01*
X0Y475000D01*
X0Y0D01*
G54D12*
X-1000Y-1000D02*
X-1000Y46700D01*
X-1000Y-1000D02*
X67950Y-1000D01*
X688500Y-1000D02*
X619550Y-1000D01*
X688500Y-1000D02*
X688500Y46700D01*
X688500Y476000D02*
X688500Y428300D01*
X688500Y476000D02*
X619550Y476000D01*
X-1000Y476000D02*
X67950Y476000D01*
X-1000Y476000D02*
X-1000Y428300D01*
X-20685Y-1000D02*
X-60055Y-1000D01*
X-40370Y-20685D02*
X-40370Y18685D01*
X-55134Y-1000D02*
G75*
D01*
G02X-55134Y-1000I14764J0*
G01*
X708185Y-1000D02*
X747555Y-1000D01*
X727870Y-20685D02*
X727870Y18685D01*
X713106Y-1000D02*
G75*
D01*
G02X713106Y-1000I14764J0*
G01*
X722949Y-1000D02*
G75*
D01*
G02X722949Y-1000I4921J0*
G01*
X-20685Y476000D02*
X-60055Y476000D01*
X-40370Y456315D02*
X-40370Y495685D01*
X-55134Y476000D02*
G75*
D01*
G02X-55134Y476000I14764J0*
G01*
X-50213Y476000D02*
G75*
D01*
G02X-50213Y476000I9843J0*
G01*
X-45291Y476000D02*
G75*
D01*
G02X-45291Y476000I4921J0*
G01*

M02*
