M48
INCH,TZ
VER,1
FMAT,2
DETECT,ON
ATC,ON
T1C0.1500
T2C0.0350
T3C0.0400
T4C0.0500
T5C0.1000
T6C0.0394
T7C0.0433
T8C0.0520
T9C0.0236
T10C0.0300
%
T1
X2600Y44800
X66030Y44790
T2
X9000Y17800
X10000
X6200
Y13800
Y21400
X11000Y23600
X7000
X11000Y26200
X7000
X14000Y22000
X17000
X14000Y23000
X17000
X14000Y24000
X17000
X14000Y25000
X17000
X14000Y26000
X17000
X14000Y27000
X17000
X14000Y28000
X17000
X14000Y29000
X17000
X16000Y31400
X15000
X19200Y29000
Y25000
X20200Y17600
X21200
X17000Y18600
Y14600
X21600Y27600
Y31600
X24200Y26700
Y29200
X6000Y29800
X62600Y42800
Y46800
X46800Y42800
Y46800
X34400Y34800
Y38800
X37200Y42200
X44200Y29600
Y25600
X46800Y21600
X49800
X46800Y22600
X49800
X46800Y23600
X49800
X46800Y24600
X49800
X46800Y25600
X49800
X46800Y26600
X49800
X46800Y27600
X49800
X46800Y28600
X49800
X48800Y18800
X47800
X19600Y5000
X53500Y32300
X56600Y29898
X52600
X56571Y25632
X52571
X56571Y23499
X52571
X56571Y21367
X52571
X56600Y17101
X52600
X58900Y32300
X64100
X26400Y41000
X27400
X28400
X29400
X26400Y44000
X27400
X28400
X29400
X64100Y35500
X48300
X43800Y12400
X54000Y12200
X60200Y20200
X63200
X60200Y21200
X63200
X60200Y22200
X63200
X60200Y23200
X63200
X60200Y24200
X63200
X60200Y25200
X63200
X60200Y26200
X63200
X53500Y35500
X52067Y39200
X53067
X46800
X47800
X57333
X58333
X62600
X63600
X58900Y35500
X30400Y33400
X48300Y32300
X12400Y14200
X23800Y14000
X24600Y3800
X32800Y32400
Y28400
X38400Y23200
X37400
X36400Y25800
X39400
X36400Y26800
X39400
X36400Y27800
X39400
X36400Y28800
X39400
X36400Y29800
X39400
X36400Y30800
X39400
X36400Y31800
X39400
X14800Y40400
X13800
X56600Y27765
X52600
X52000Y42800
Y46800
X57400Y42800
Y46800
X39800Y38872
Y43400
X21200Y36000
X56571Y19234
X52571
T3
X3900Y10600
Y11600
Y9600
X6200Y20400
X21900Y23600
Y22600
Y21600
X6000Y30800
X37300Y34700
X36800Y35200
X37800
X37200Y41200
X19600Y4000
X16300Y10600
Y11600
Y9600
X52500Y32300
X57900
X63100
Y35500
X47300
X43800Y11400
X54000Y11200
X52500Y35500
X57900
X30400Y32400
X47300Y32300
X12400Y13200
X23800Y13000
X24600Y2800
X21200Y37000
T4
X3180Y20800
Y18090
X3380Y31200
Y28490
X32980Y43600
Y40890
T5
X17200Y46400
X11200
T6
X12200Y43900
X13200
X14200
X15200
X16200
T7
X38900Y17600
X29400
T8
X35900Y11200
X34900
T9
X14800Y40300
X11000Y5400
X6000Y5000
X8600Y4600
X10100Y2800
X17190Y5670
X44800Y32000
X23500Y43900
X4700Y3200
X27500Y25200
T10
X9600Y12000
X21400Y11600
Y9600
X9600Y10000
X27400Y21700
Y23700
M30
